<svg version="1.0" xmlns="http://www.w3.org/2000/svg" width="269.333" height="334.667" viewBox="0 0 202 251"><g fill="#fff"><path d="M98 5.6c-.6 1.5-2 3.4-3.1 4.1-1.5 1.1-1.7 1.8-.9 3.4.6 1 1.7 1.9 2.5 1.9s1.5.7 1.5 1.5c0 1.7-3.8 21.7-4.2 22.1-.2.1-2.3-2.3-4.8-5.3-2.5-3.1-6.7-7.2-9.4-9.1l-4.9-3.6.8 2.9c1 3.9 3.3 18.9 2.9 19.4-.2.2-2.5-1.6-5.1-3.9-2.7-2.3-7.3-5.5-10.2-7.2l-5.3-3.1 3.6 7.2C65.5 44 69.2 53 68.5 53c-.3 0-2-1.6-3.7-3.5-1.7-2-5-4.7-7.4-6.1-5.1-3-17-6.9-15.6-5.1 4.8 5.9 11.1 15.1 10.8 15.5-.3.2-1.8-.5-3.4-1.7-3.7-2.6-5.7-2.6-14.7-.2-14.8 3.9-18.5 6.9-14.6 12.2l2.1 2.8-5.5 3.1c-11.2 6.4-11.2 11 .1 26.2 3.9 5.4 4.4 6.6 4.4 11.4v5.4H9.3l-1.9 6.2C4.8 127.8 5.1 132.1 9 142c3.1 7.8 3.3 9.4 3.4 20 .1 6.3-.3 19.8-.8 30-1 21.5-.6 23.6 5.7 30.2 7.2 7.4 23.5 20.8 27.2 22.3 7.4 3.2 13.5 1.2 16.2-5.2 1.3-3.3 1.6-3.5 5.1-2.8 2 .4 7.8 2 12.8 3.6 9.4 3 16.1 3.7 19.5 1.9 1.4-.8 1.9-2.3 2.1-5.3l.1-4.2.4 3.9c.3 2.2 1.2 4.6 2.1 5.3 2.8 2.1 10.7 1.5 20.4-1.6 5.1-1.7 10.9-3.3 12.9-3.6 3.3-.6 3.7-.5 4.3 2 1.1 4.4 5 7.5 9.4 7.5 7.2 0 15.1-5.5 33.1-23 8.2-8 8.6-9.7 7.1-33.9-1.8-28.1-1.2-38.6 2.8-48.4 3.7-9.1 3.9-13.1 1.1-21.5l-2.1-6.2h-12l.4-5.4c.3-3.9 1.3-6.6 3.4-9.6 10.4-14.8 11.7-19.5 6.7-24.2-1.6-1.4-4.2-3.3-6-4.2-4.2-2.1-4.8-3.3-2.9-5.5 3.7-4.1.2-7.9-9.9-11-12.9-4-16.2-3.9-21.4.5-4.7 3.9-3.7 1.4 3-7.7l6.1-8.2-3.3.7c-6.1 1.2-14.4 5.7-19.3 10.4-5.9 5.7-5.7 4.4 1.2-10l4.7-9.6-3 1.5c-4.4 2.3-11.6 7.2-14.7 10.1-1.6 1.4-2.8 2.1-2.8 1.5 0-1.9 3-18 3.7-19.8 1.7-4.5-12.2 7.5-16.9 14.5-2 3.1-2.1 2.9-4.6-10.5l-2-10 2.4-1.8c2.8-2.2 3.1-4.2.8-5.5-.8-.5-2.1-1.9-2.7-3.2-1.7-3.4-3.5-3.6-4.7-.4zm11.5 53.3l1.8 6.3 3.4-7c3.6-7.7 11.1-16.6 17.9-21.3 2.3-1.6 4.5-2.9 4.8-2.9.2 0-.8 2.8-2.4 6.2-3.2 7.3-7 19.1-7 22.1 0 1.4 1.2.1 3.5-3.9 1.9-3.2 5.3-7.5 7.5-9.5 4-3.6 12.4-8.3 14-7.7.4.2-1.8 4.3-5.1 9.2-3.2 4.8-6.9 11.5-8.1 14.7-1.6 4.1-2.7 5.8-3.7 5.4-10.4-4-45.1-5.2-61.6-2.2-4.9.9-9.5 1.7-10.2 1.7-.6 0-2.9-3.7-5.1-8.3-2.2-4.6-6.1-11.1-8.6-14.5-5.1-6.9-4.5-7.7 3.2-3.8 6 3.1 12.3 9.5 16.1 16.6 1.7 3 3.1 5 3.1 4.4 0-2.9-4.2-16.8-6.9-22.9-1.7-3.7-3-7-2.8-7.1.2-.2 2.6 1.2 5.4 3.1 6.9 4.6 12.9 11.7 16.6 19.7 1.8 3.7 3.5 6.8 3.9 6.8.8 0 6-21.7 8.2-34.5.9-5 1.9-10.1 2.2-11.5.5-1.7 1.9 3.5 4.4 16 2.1 10.2 4.5 21.4 5.5 24.9zM90.1 37.7c2 3.2 2 3.5.4 10.8-.9 4.1-1.8 7.5-2 7.5-.1 0-2-2.8-4.1-6.3-3.1-4.9-4.2-7.9-5.1-14.2-.7-4.4-1.2-8.7-1.3-9.5 0-1.8 9.4 7.3 12.1 11.7zm32.4-9.5c-.3 1.3-.9 5.3-1.4 8.9-.7 5-1.8 8-4.9 12.8l-4.1 6.2-1-3.8c-2.6-9.6-2.5-12.1.4-16 2.9-4 9.5-10.3 10.8-10.3.4 0 .5 1 .2 2.2zm2.1 41.4c12.2 2.1 12.5 2.2 10.9 6l-1.3 3.2-4.9-1.1c-6.2-1.4-52.3-1.4-58.6 0-4.7 1-4.9 1-5.8-1.5-.5-1.4-.8-3.1-.5-3.8.4-1.1 16.6-3.9 27.6-4.8 7-.5 23.7.5 32.6 2zm-97.5 4c4.1 1.9 6.3 3.3 4.9 3-1.4-.3-3.1-.1-3.9.3-2 1.2-.2 5.4 6.5 15.2l5.2 7.5-.8 8c-.5 4.3-1.6 9.6-2.5 11.8-.9 2.1-1.4 4-1.2 4.3.3.2 1.4-2 2.6-4.9 1.1-2.9 2-4.4 2-3.3 0 2.4-4.8 11.7-4.9 9.5 0-1.1-.4-1-1.7.5-1.7 2.2-1.7 2 2.3-7.4 3.8-9.4 3.2-14.8-2.8-23.2-5.6-8-8.8-14.1-8.8-17.2 0-1.7-1-2.8-3.5-4-3.4-1.6-3.6-1.6-5.5.3-3.1 3.1-2.4 6.3 3.4 14.9 6 8.7 7.6 13.1 7.6 20.3 0 4.7.1 4.8 3 4.8 4 0 4.6 1.9 2.6 8.3-1.5 4.8-1.5 3.5-.2-3.8.4-1.7-.2-.8-1.3 2-1 2.7-1.6 5.4-1.3 5.9.3.5 0 .6-.6.2-.7-.4-.6-2 .5-5.2.8-2.5 1.2-4.8.9-5.1-1.2-1.2-3 1.6-3.7 5.9-.8 4-.8 3.9-.4-1.1.5-5.8-.2-6.2-1.6-.9l-.8 3.3.5-3.5c.3-1.9.7-6.7.9-10.5l.3-7-.7 6-.6 6-.5-6.5c-.6-6.8-2-9.9-9.5-20.4-4.8-6.6-4.7-10.4.2-13.9l3.6-2.6 4.8 2.5c2.7 1.3 5.4 2.4 6.1 2.4.7-.1-1.2-1.4-4.2-3-7.7-4.1-5.8-3.7 3.1.6zm154.3-2.4c-.5.8-.2.9.9.5 2.7-1 1.9.1-1.2 1.7-2.1 1.1-3.1 2.7-4 6-.6 2.5-3.9 8.6-7.3 13.7-5.9 8.7-6.3 9.6-6.2 14.8 0 3.9.9 7.5 2.8 11.8 3.3 7.3 5.2 8.4 2.9 1.8-1.8-5.4-.9-7.1 4.2-7.7 1.9-.2 3.3-.2 3 0-.2.2.3 1.9 1.1 3.7 2.2 5.3 1.7 12.3-1.6 22.9-1.6 5.3-3.4 12.9-3.9 16.8l-1 7.3.4-7c.3-3.9 1.8-11.6 3.5-17 3.1-10.4 3.7-17.4 2-22.1-1.6-4.1-1.9-2.5-.8 3.6 1 5.1.7 6.7-2.7 19-3.6 12.8-3.7 14-3.3 24.5.4 7.2.3 9.3-.2 6-1.7-10.6-1.1-17.7 2.6-31 3.5-12.5 3.9-17.5 1.7-23.1-1-2.6-2.5-1.5-2 1.3.3 1.6.8 4.1 1.2 5.8.4 2.2.2 2-.9-1-.9-2.2-1.6-4.8-1.6-5.8 0-.9-.4-1.7-1-1.7-1.3 0-1.3.7.6 5.9 1.6 4.8 1.4 5.7-1.3 4.6-1-.5-2.2-.7-2.6-.6-.9.2-5.7-9.8-5.7-11.9 0-.8 1.1 1.1 2.4 4.3 2.1 5 5 10 3.3 5.7-4.5-11.6-5.2-17.3-3.2-23.5.4-1.4.2-1.2-.9.5-1 1.7-1.5 2-1.6.9 0-.9 2.2-4.7 4.8-8.5 6.3-8.9 8.5-13.2 7.9-15.4-.3-1.3.6-2.3 3.4-3.6 2.2-.9 3.8-1.9 3.6-2.1-.2-.2-2.9.8-6.1 2.2-8 3.5-8.3 3-.6-1 7-3.7 8.5-4.1 7.4-2.3zM51.7 75.5l6.7 4.4-9 .3-8.9.3-.5 7.3-.5 7.3-3.6-4.8c-2-2.7-4.4-6.3-5.3-8.1-1.6-3.1-1.6-3.2.6-3.2 1.3 0 4.6-1.8 7.3-4 2.8-2.1 5.4-3.9 5.8-3.9.4-.1 3.8 1.9 7.4 4.4zm111-.5c3.1 2.2 6.5 4 7.5 4s1.8.2 1.8.5c0 1.3-3.1 6.3-6.9 11.4l-4 5.3-.3-7.8-.3-7.9-8.8-.3-8.8-.3 6.3-4.3c3.5-2.4 6.7-4.4 7.1-4.5.5 0 3.4 1.7 6.4 3.9zm-3.7 67c0 64.3 0 64.3-4.9 67-1.2.6-10 1-21.3 1-20.5 0-25.2.7-29.5 4.4l-2.8 2.4-2.8-2.4c-4.4-3.7-9-4.4-30-4.4H47.8l-2.9-2.9-2.9-2.9V82h117v60zm10.7-13.4c4.1.8 4.1.9-.1 14.9-3.1 10-3.1 12-.1 42.5 2.1 21.1 1.8 21.9-8 29.3-3.3 2.4-7.1 5.6-8.4 7.1-2.9 3.1-4.1 3.3-4.1.5 0-5.5-5.1-8.5-12.9-7.6-2.7.3-9 2.2-14.1 4.1-5.1 2-9.6 3.6-10.1 3.6s-.9-1.3-.9-2.9c0-2.2-.4-2.8-1.7-2.6l-4.5.9c-1.5.4-3 1.5-3.3 2.7-.7 2.1-.7 2.1-1.9-.2-.8-1.6-2.3-2.6-5-3-4-.6-5.4.6-4.2 3.6.9 2.3-1.6 1.8-11.1-2.2-7.1-3-10.1-3.7-15.4-3.7-7.5-.1-10.3 1.5-11.4 6.5l-.6 2.8L42 217c-5.4-4.4-10.1-8.7-10.4-9.6-1-2.7-.7-14.2.9-27.9 2.3-20.4 2-27.9-1.5-38.8-3.6-11.2-3.6-11.7-1-11.7 2.8 0 7.7-2.6 8.9-4.7.7-1.3 1 10.5 1.1 38.2 0 52.9-2.1 49.5 30.4 49.5 10.8 0 20.7.5 22.2 1 1.4.6 3.9 2.4 5.5 4.1 2.7 2.9 2.8 3 3.9.9.6-1.2 2.6-3 4.3-4 2.9-1.8 5.2-2 23.7-2 23.2 0 26.1-.7 29.2-7 1.6-3.2 1.8-7.4 1.8-43.3v-39.9l2.6 3.1c1.5 1.9 3.9 3.3 6.1 3.7zm-139 81.1c.7 1.1 3.6 3.8 6.5 5.9 2.9 2.1 7.3 5.7 9.8 7.9 4.3 3.9 4.8 4.1 9.8 3.7 2.8-.2 5.2-.9 5.2-1.4 0-.7-1.6-.8-4.2-.5-2.9.4-3.7.3-2.3-.3 1.1-.5 3.3-.9 4.9-.9 2.6-.1 2.8.1 2.3 2.8-.6 2.7-.4 2.9 3.1 3.6 2 .4 8.3 2.2 13.9 4.1 11.9 4 13.2 4.1 16.7 1.3 1.4-1.1 2.6-1.6 2.6-1 0 1.2-5.2 4.1-7.4 4.1-.8 0-7.2-1.8-14.2-4-7-2.3-13.5-3.9-14.3-3.7-1.9.5-2.5.2 12.4 4.7 12.7 3.9 18.3 4.7 21.6 3 2.3-1.1 2.3-1 .5.4-3 2.4-8.1 1.9-20.1-2-7.2-2.3-12.9-3.5-16.4-3.5-6.6 0-9.7-1.5-18.1-8.8-3.6-3.2-8-6.8-9.8-8.2-3.8-2.8-7.2-7.8-7.1-10.5 0-1.1.5-.6 1 1.2.5 1.7 1.6 3.7 2.4 4.4 1.9 1.6 1.9.1 0-2.4-1.1-1.5-1.5-4.5-1.3-12l.2-10.1.5 10c.3 5.5 1.2 11 1.8 12.2zm144.3-1.5c-.7 2.6-2.8 5.2-6.8 8.5-3.1 2.6-8.2 7-11.2 9.7-6.7 6-10.2 7.5-16.6 7.4-3.1-.1-8.9 1.2-16.1 3.6-10.8 3.5-16.3 4.3-19.7 3-.9-.3-1.6-1-1.6-1.5 0-.6.8-.5 1.9.1 3.3 1.7 7.7 1.2 18.9-2.4 5.9-1.9 12.1-3.7 13.7-4.2 2.6-.7 2.7-.8.8-1.1-1.2-.2-7.6 1.4-14.2 3.6-13.9 4.7-16 4.9-19.2 2l-2.4-2.1 2.5 1.6c3.5 2.3 5.3 2.1 18.8-2.4 6.6-2.2 12.7-4 13.6-4 1.2 0 1.6-.8 1.4-2.8-.3-2.3.1-2.7 2.2-2.8 2.2-.1 2.2 0 .3.3-4 .8-2.4 2.3 2.5 2.5l4.7.1-4.5.7c-3.5.5-4.1.8-2.7 1.4 1.4.7 1.6 1.1.6 1.7-1 .6-1 .9.4 1.5 2.5.9 7.6-1.5 12.7-6.1 2.5-2.2 7.1-6.3 10.4-9 8.4-7 9.6-9.3 9.8-19.5l.2-8.5.4 7.5c.2 4.1-.2 9.2-.8 11.2z"/><path d="M91.3 120.8c-5.9 2.1-11.2 5.9-14.3 10.1-4.4 6.3-5 10.1-5 33.7v22.3l-6 4.1c-6 4.1-6 4.1-6 9v5h83v-10.5l-5.4-3.5-5.4-3.4-.4-23.6c-.3-23.2-.3-23.6-3-28.5-1.4-2.8-4.1-6.4-6-8.2-7.5-7.3-21.4-10.1-31.5-6.5zm17.7.3c4.5 1 4.9 1.3 3.4 2.3-1.5 1.1-1.3 1.2 1.3.9 3.6-.6 10.4 4.4 8.1 5.8-.9.6-.7.9.9.9 1.7 0 2.9 1.3 4.8 5 1.7 3.4 2.1 5 1.3 5.1-1 0-1 .2 0 .6.6.2 1.2 1.3 1.2 2.2 0 1.3-1.2 2.1-4.2 2.8-2.7.7-3.4 1.1-2 1.2 3.8.2 2 2.4-2.9 3.7-2.9.8-3.5 1.2-1.9 1.2 1.4 0 3.4-.3 4.5-.7 1.1-.5 2.5-.4 3.2.1.9.7 1.1.4.8-1.1-.2-1.2-.7-2.6-1-3.1-.3-.6.1-1 1-1 1.1 0 1.5.5 1.1 1.5-.3.8-.1 1.5.4 1.5.6 0 1 .8 1 1.9 0 1.1-1.2 2.2-3.2 2.9-1.8.7-2.3 1-1 .8 1.2-.2 2.2.1 2.2.7 0 .7.5.5 1-.3.8-1.3 1-1.2 1 .2 0 1-.6 1.8-1.2 1.8-.9 0-.9.3.1.9 2 1.3-.1 3.8-4.3 5-2.5.7-2.6.9-.8 1 2.3.1 3 2.6 1 3.5-.7.3.4.3 2.6-.1 3-.4 3.8-.3 3.4.8-.3.8-1.2 1.3-2.1 1.3-.9-.1-1.4.2-1.1.7.3.5-.2.9-1.1.9-1.3 0-1.4.2-.3 1.4 1.1 1.2 1.3 1.2 1.6-.1.4-1.7 2.4-1.3 3 .7.3.7 0 1-.6.6-.6-.3-1.2-.2-1.4.3-.1.4-3 1.5-6.3 2.4-3.3.9-5 1.6-3.8 1.6 1.2.1 3.3-.3 4.7-.8 1.8-.7 2.8-.6 3.6.4 1.3 1.6 1.3 1.6-5 3.4l-3.5 1 4.5-.2c2.5-.1 4.8-.7 5.2-1.2.5-.6.8-.5.8.3 0 .7.5 1 1 .7.6-.3 1-.2 1 .3s-1.4 1.2-3.2 1.6c-2.9.6-3 .7-1.3 2 2 1.5.9 2.7-2.1 2.1-1-.2-2.1-.4-2.4-.4-.3-.1.2-.6 1-1.2 1.1-.8.7-.9-1.9-.5-1.8.3-4 .6-4.8.6-.8 0-1.2.4-.8 1 .3.5 1.2.7 2 .3 1-.3 1.5.1 1.5 1.3 0 1.4-.2 1.6-.9.6-1-1.7-2.2-1.7-3.2-.1-1 1.8-3.6 2-3.6.3 0-.8.5-1.4 1.1-1.4.7 0 .7-.3 0-.8-.7-.4-1.4-2.3-1.5-4.2-.4-3.2-.1-3.5 2.6-4.1l3-.7-3.1-.1c-1.7 0-3.7-.8-4.4-1.6-1.1-1.3-.8-1.5 2-1.5 1.9 0 3.1-.3 2.8-.6-.4-.3-6.9-.7-14.5-.9-13.9-.3-14.9-.2-8 1 3.9.6 4.1 2 .3 3.5-1.7.7-1.7.9-.3.9 2 .1 2.3 3.1.2 3.1-.7 0-3.7-.5-6.5-1.1-2.8-.6-5.4-.9-5.6-.6-.3.3 2.6 1.1 6.5 1.8 7 1.2 7 1.2 6.9 4.4-.1 1.9-.6 3.2-1.5 3.2-.7 0-1.3-.5-1.3-1.1 0-.6-.4-.5-.9.3-.8 1.2-1.3 1.2-2.4.3-.8-.7-2.2-1-3.1-.6-.9.3-1.6.1-1.6-.5s-.5-1-1.1-.9c-.6.2-1.4-.3-1.6-.9-.3-.9.5-1.1 2.9-.8l3.3.5-3.5-1.1c-7.2-2.3-9-3.2-9-4.6 0-1.1.7-1.4 2.8-.9l2.7.5-2.5-1.1c-3.6-1.7-3.7-1.8-1.7-3.3 1.5-1.1 1.6-1.3.2-1.9-.8-.3-1.5-1.2-1.5-2 0-1.3.6-1.3 5.1 0 2.8.8 5.6 1.3 6.2 1.1.7-.2-1.4-1-4.6-1.7-3.2-.7-6-1.7-6.3-2.2-1.3-2.1 1.1-2.3 7.8-.5 11.1 3 41.8 2.8 41.8-.3 0-.5-1.5-.4-3.2.1-6 1.7-20.2 2.2-28.6 1-11.1-1.6-18.2-3.8-18.2-5.6 0-1.9.5-1.9 6.6 0 7.6 2.3 23.1 3.7 30.4 2.7 6-.8 5.6-.9-5.5-.9-8.4 0-14.8-.7-21.4-2.2-5.2-1.1-9.6-2.2-9.8-2.4-.2-.2-.1-1.1.3-2 .4-1.2 1.1-1.4 2.3-.8.9.6 5.7 1.7 10.7 2.6 9.6 1.9 28.1 1.6 33.9-.4l3-1.1-3 .5c-8.1 1.3-23.7 1.7-30 .7-10.2-1.7-17.5-4-17.5-5.7 0-1.8.3-1.8 6.4 0 2.7.8 5.6 1.5 6.5 1.4.9 0-1.5-.9-5.4-2-7.8-2.2-8.3-2.5-6.9-3.9.6-.6 2.9-.4 6.4.5 3 .8 6.4 1.5 7.5 1.4 1.1 0-1.3-.9-5.3-1.9-4-1.1-7.7-2.2-8.2-2.5-1.6-1-1.1-2.5.7-2.5 1.5 0 1.5-.1.1-1.3-2.2-1.7-.5-7.9 2-7.1 1.4.5 1.5.4.2-.5-1.1-.7-1.2-1.3-.4-2.1.8-.8 2.6-.7 6.5.3 3 .8 9.7 1.7 14.9 2l9.5.6-11-1.4c-11.2-1.4-18.5-3.1-18.5-4.2 0-1.3 4.4-5.3 5.7-5.3.8 0 1.2-.4.9-.9-.7-1.1 1.7-2.1 5.7-2.2 3-.1 3.1-.1.7-.8-2.3-.7-2.1-.9 2-1.8 6.1-1.5 10-1.5 16-.2zm-30.2 68.8c13.9 4.7 31.4 4.8 46.2.2l5.8-1.8 4.8 3.1 4.8 3.1-19.2.3c-10.6.1-27.9.1-38.5 0l-19.2-.3 4.5-3.2c2.5-1.8 4.6-3.2 4.8-3.3.1 0 2.8.9 6 1.9zm63 9.8l-.3 3.8-39.7.3-39.8.2v-8h80.1l-.3 3.7z"/><path d="M97.1 140.7c-1.4.3-2 .8-1.3 1.2.6.3.7 1.2.3 1.9-.6 1-2.4.9-8.7-.3-4.3-.8-8.3-1.5-8.9-1.4-1.7.1 4.7 1.8 11.2 3 3.9.7 6.4 1.7 6.7 2.6.6 1.3-.1 1.5-4.5.9-2.9-.4-6.6-1-8.3-1.3-1.7-.3-2.8-.3-2.5.1 1.3 1.4 20 3.4 27.3 2.9 4.2-.3 7.6-.9 7.6-1.2 0-.3-2-.5-4.5-.3-3.8.3-4.4.1-3.9-1.2.3-.9 2.4-1.8 5.2-2.1 2.6-.4 6.1-1.1 7.7-1.6 2.4-.7 2.1-.7-1.5-.3-2.5.3-5.9.8-7.6 1.1-2.3.3-3.3 0-3.7-1.1-.5-1.2 0-1.6 1.6-1.7 1.2-.1.4-.5-1.8-1-4.3-.8-6.6-.9-10.4-.2z"/></g></svg>