<svg version="1.0" xmlns="http://www.w3.org/2000/svg" width="2122.667" height="1958.667" viewBox="0 0 1592 1469"><path d="M792.4 130.9c-2.2 1-5.4 3.6-7 5.7-2.9 3.7-4.6 6.4-14.2 22.6-2.2 3.7-6.4 12.3-9.5 19-36 80.4-32 149.1 11.4 193l7.9 8v119.1l-2.7-3.6c-1.6-2-5.7-7.5-9.3-12.3-7.8-10.5-24.7-28.7-37.9-40.7-47.8-43.7-115.4-77.2-194.3-96.1-26.1-6.3-45.9-9.9-55-10-8.2-.1-8.8 0-12.4 3-5.9 4.7-7.1 8.2-8.9 24.9-3 28.8-1.6 77.4 3.1 110 11.1 76.7 41.9 143 88.8 191.4 34.1 35 75.8 60.7 126 77.6 31 10.5 53.1 15.2 98.4 21.1l4.2.5V1006H640.9l3.5-6.3c5.2-9.3 9.5-20.7 12.4-33.1 2.4-10.2 2.6-12.9 2.6-33.1 0-23.2-.8-30-5.9-50.5-6.9-27.4-21.2-60.6-35.8-83.1-8.1-12.4-11.7-15.2-20.2-15.2-5.7 0-9.8 1.8-13.6 6-6.5 7-28.6 48.9-37.7 71.3-20.2 50.2-23.5 92.6-9.8 126.5 2 4.9 4.7 10.6 6.1 12.7 1.4 2.1 2.5 4 2.5 4.3 0 .3-35.8.5-79.5.5h-79.4l5.5-7.6c15.4-21.5 25.7-48.4 29.9-78.5 1.9-13.6 2.2-41.8.5-56.9-3.2-29.7-11.5-62.6-23.7-94-10.5-27.1-37.3-76.9-45.9-85.5-4.4-4.4-10.5-5.9-17.3-4.1-6.8 1.7-9 4-16.5 16.6-59.3 99.1-82.7 183.4-68.6 247.5 1.8 8.6 7.1 23.6 11.2 32.3 4.1 8.7 13.1 22.6 17.6 27.5l2.6 2.7h-92.5c-57.4 0-93.7.4-95.9 1-4 1.1-10.4 7.1-11.9 11.3-3.7 9.8 2.6 21.9 12.7 24.6 5.2 1.4 1407.3 1.4 1412.5 0 5.1-1.4 11.1-6.9 12.7-11.8 2.7-8.3-.9-18.2-8.2-22.6-3.2-2-5.7-2-97-2.3-51.6-.1-93.8-.5-93.8-.7 0-.3 2-3.1 4.4-6.2 43.1-56.9 39.1-140.4-11.6-245.3-13.5-28.1-35.2-66.2-40.2-70.9-6.4-6-18.8-5.8-25 .4-8.7 8.7-35.3 58.2-45.9 85.5-35.4 91.1-33 174 6.7 229.4l5.5 7.6h-79.4c-43.7 0-79.5-.2-79.5-.6 0-.3 1.1-2.2 2.5-4.2 3.6-5.3 10.1-22.3 12-31.7 2.2-10.9 3-30.9 1.6-42.5-2.7-22.2-9.4-46.8-19.1-69.5-9.4-22.1-30.2-60.9-35.8-66.8-7.1-7.5-17.7-8.3-25.3-2-7.9 6.7-25.5 39.2-35.1 64.8-11.7 31.3-16.4 57.1-15.5 85 .8 24.4 4.5 40 13.8 58.2l4.7 9.3H819V689.2l9.8-.6c56.5-3.6 98.6-11.2 141.2-25.5 56.3-18.9 101-46.9 137.8-86.4 42.6-45.7 69.5-102.8 79.3-168.2 2.6-17.2 3.6-41.8 2-46.8-1.5-4.5-5.4-9.3-9-11.1-4.3-2.3-22.8-2.8-53.7-1.7-33.2 1.3-47.5 2.3-72.9 5.2-65 7.4-120.9 22.6-165.7 45-24.5 12.2-40.7 23.2-60.5 40.7l-8.3 7.3v-32.8l.1-32.8 6.2-4c8.4-5.4 21.5-18.5 26.9-27 29.4-46.3 21.1-110.7-24.7-192.9-9.8-17.5-13.2-22.4-17.3-25.1-5.1-3.3-12.4-4-17.8-1.6zm14.9 69.8c25.7 53.6 31.2 95.6 16.2 124.1-4.1 7.9-10.6 15.6-16.5 19.7l-4.3 3-5.6-6.2c-25.6-28-29-74-9.2-126.6 4.7-12.5 11.4-27.7 12.2-27.7.3 0 3.5 6.2 7.2 13.7zM509.6 378c37.4 7.5 79.9 21.4 112.7 36.9 77.5 36.6 133.3 94.1 154.8 159.4 3.9 11.6 3.9 12 3.9 27.2V617l-5.7-2.1c-20.4-7.2-56.4-28.2-79.8-46.4s-56.5-49.4-71.8-67.7c-5.3-6.2-10.2-8.8-16.9-8.8-12 0-21.1 11.9-17.8 23.4 1.4 5.2 10.2 15.7 29.6 35.2 49.3 49.7 102.1 85.5 150.1 101.7l12.3 4.2v34.7c0 28-.3 34.8-1.3 34.8-2.9 0-29.9-4-40.2-6-52.6-10.1-99.7-30.8-136.7-60.2-57-45.3-93-116.4-103.3-204.3-3.5-30.1-4.1-79.5-1-79.5.7 0 5.7.9 11.1 2zm641.8 12.7c-8.3 69.5-35.1 125.9-80.7 170-20.2 19.4-36 30.9-62 45-46.5 25-110.8 41.4-176.4 44.9l-13.3.7v-42.8l13.3-3.4c46.2-11.8 92.1-31.7 128.2-55.6 26.5-17.6 52.7-42 66.5-61.9.8-1.2 2.7-3.7 4.2-5.6 5.2-6.8 5.9-16 1.8-22.7-5.1-8.5-17.7-11.4-25.7-6.1-2.1 1.4-5.2 4.5-6.8 6.9-7.7 11.3-15.7 20.4-30.6 34.4-23 21.8-59.7 43.3-100.1 58.8-14.2 5.5-46.3 15.7-49.3 15.7-1.3 0-1.5-4.2-1.5-28.4v-28.4l3.6-6.9c7.6-14.3 22.3-31.5 37.9-44.3 50.1-41 131-66.2 234-73 22.3-1.4 24-1.5 41.7-1.8l15.8-.3-.6 4.8zM347.8 750.2c13.6 27.7 23.5 54.1 29.7 78.8 4.4 17.8 5.2 22.1 7 37.5 4.1 35.3-.5 66.3-13.6 92.8-6.7 13.6-13.8 23.5-24.5 34.6l-9.2 9.4-4.8-2.8c-2.7-1.6-8.1-5.5-12-8.7-47.5-39.1-48.6-114.9-3.2-213.2 8.6-18.7 21.9-43.7 22.9-43.1.4.3 3.9 6.9 7.7 14.7zm921.9 1.8c49.8 93.8 59.8 173.1 28 220-7.4 10.9-19.6 22.4-30.1 28.5l-4.8 2.8-8.8-9c-22.2-22.8-34-48-38.6-82.3-5.4-40.9 6.3-96.4 32.1-151.9 3.5-7.5 7.8-16.2 9.6-19.4l3.1-5.8 1.7 2.8c1 1.5 4.5 8 7.8 14.3zm-663 110.4c12.1 30.2 17.7 59.7 15.3 81.9-1.8 17.2-6 30-14.2 42.7-4.8 7.4-11.6 15-13.5 15-2.7 0-16.8-15.1-20-21.5-5.7-11.2-7.5-18.8-8-33.7-1-26.7 6-53.5 23.9-90.8l7-14.5 2.5 4.9c1.4 2.8 4.5 10 7 16zm400.7-11.6c16.8 33.4 25.3 61.6 26.3 87.2 1 26-4.2 41.7-18.6 56.1-4.3 4.3-8.5 7.9-9.4 7.9-3.5 0-14.6-15.2-20.2-27.5-12.4-27.2-10.3-64.8 5.8-107.1 3.7-9.5 10.7-25.4 11.3-25.4.2 0 2.4 4 4.8 8.8zM280.3 1149c-10.2 2.3-16.7 14.1-13.4 24.1 1.4 4.3 6.5 9.7 10.7 11.5 5 2.1 1039.8 2.1 1044.8 0 14.7-6.1 15.4-26.6 1.1-34.4-2.8-1.6-41-1.7-521.5-1.8-285.2-.1-520 .2-521.7.6zm257.9 144.1c-13.4 6.6-13.4 26.2-.1 32.9 3.8 2 6.6 2 261.9 2 255.4 0 258.1 0 261.9-2 13.3-6.8 13.2-26.4-.1-32.9l-4.4-2.1H542.5l-4.3 2.1zM691 1434.6c-13 5.6-15.7 22.7-5 31.8l3.2 2.6h221.6l3.2-2.6c10.6-8.9 8.2-25.8-4.5-31.5-3.8-1.8-9.3-1.9-109.5-1.8-92 0-105.9.2-109 1.5z" fill="#fff"/></svg>