<svg version="1.0" xmlns="http://www.w3.org/2000/svg" width="426.667" height="426.667" viewBox="0 0 320 320"><path d="M155 19c-16 1.9-31.7 6.4-48.2 13.9-7.5 3.3-9.5 5.2-2.4 2.1 7.9-3.3 22.8-7.9 31.6-9.7 13-2.6 39.5-2.3 52.2.6 18.8 4.2 34.9 10.7 47.1 18.9 15.7 10.7 25.4 19.7 35.5 33.4 12.4 16.6 19.7 32.8 23.8 52.3 2.7 12.7 2.7 41.3 0 54-11.2 53.3-52.7 93.6-108.1 105.1-6.6 1.4-13.3 1.8-25.5 1.8-17 .1-25-1-40.5-5.5-8.4-2.5-33.5-14.3-33.5-15.8 0-.7 2.8-1.1 7.4-1.1 16.6 0 34.5-6.8 51.6-19.6 20.3-15.3 28.4-30.9 29.7-57.9 1.2-24.4-5.4-41.6-22.1-57.3-3.1-2.9-5.6-5.5-5.6-5.7 0-1.3 8.1-1.6 14.7-.6 14.3 2.1 24.5 10 29.2 22.6 1.2 3.1 2.1 6.2 2.1 7 0 3.2 2.2 2.2 6.1-2.7 5.9-7.4 9.7-16 11-25 1.4-9.5.7-14.6-3.1-22.5-5.9-12.6-14.9-17.9-33-19.3-5.7-.4-11.7-.6-13.4-.4-30.9 3.7-42.8 7.3-58.1 17.1-3.3 2.2-9.4 5.8-13.5 8l-7.5 4.2-9.9-9.1c-9-8.4-10-9.1-12.4-8.2-1.7.6-2.8 1.8-3 3.2-.4 2.5 3.2 6.2 14.3 14.8 3.5 2.7 6.4 5.2 6.4 5.6.1.5-4.5.8-10.1.8-25 0-39.1 8.5-50.1 30.2-6.7 13.1-9 22.6-9.1 36.8 0 12.8 1.7 21.2 6.6 32 6.9 15.3 16.1 25.4 31.8 34.8 7.6 4.6 22.9 10.2 27.6 10.2 3.3 0 3.7.3 15.5 8.1 16.7 11.2 34.7 18.6 54.4 22.5 12.3 2.4 37.6 2.4 49.9 0 55.1-10.8 97-49.9 111.6-104.1 8.5-31.5 5.1-65.1-9.6-96.2-18.9-39.8-55.7-68.2-100-77.2-11.6-2.4-30.8-3.3-41.4-2.1zm-50.9 96.6c6.3 2.5 8.9 4.6 8.9 7.1 0 1-2.9 1.3-12.9 1.3-7.2 0-13.2-.4-13.5-.9-.8-1.3 3.6-7.4 6.4-8.8 3.4-1.7 3.7-1.7 11.1 1.3zm52.3 33.1c.7 1.8-1 4.3-3 4.3-.8 0-1.4.4-1.4 1 0 .5.5 1 1.1 1 .7 0 .9 1 .5 2.6-.6 2.3-.5 2.4 1.4 1.4 1.7-.9 2.1-.7 2.9 1.2 1.9 5.3 2.2 11.7.7 14.7-1.8 3.3-.7 8.1 1.7 8.1 1.9 0 4.3 3 5 6 .3 1.4 1.1 3.9 1.8 5.7.7 1.8 1 3.5.7 3.8-.4.4-2.7-.5-5.2-2-4.8-2.8-5.5-4.2-7.6-14.7-1.1-5.6-3.2-8.9-4.4-6.9-.4.5-.2 1.2.4 1.6 1.7 1 1.1 3.2-1 3.8-2.2.6-2.6 3.6-1 6.7.9 1.6.2 2.8-3.9 7.1-4.4 4.6-4.9 5.6-5.3 10.8-.3 3.1-.9 6.4-1.3 7.3-.6 1.5-.2 1.8 2.4 1.8 1.7 0 3.1-.5 3.1-1 0-.6.9-1 1.9-1 1.2 0 3 1.7 4.8 4.7 2.5 4.3 2.8 5.7 2.8 13.5 0 9.6-.9 11.7-4.4 9.9-2.2-1.2-2.9-4.1-1-4.1.7 0 .9-1 .4-2.8-.4-1.5-.8-3.3-.8-4-.1-1.7-2.4-1.5-3.1.3-.9 2.4-8.4.8-12.4-2.7-2.6-2.2-3.9-2.7-6-2.2-4.1 1-4.2 1.2-4 5.7.3 5.1-.6 6.7-3.6 6.7-1.3 0-3.5.9-4.9 2-1.9 1.5-3.9 2-7.6 1.9-2.8-.1-5.4.1-5.7.4-.4.4-1.9-.2-3.4-1.3-3.8-2.7-5.9-2.5-7 .6-1 2.4-1.3 2.5-5.9 1.9-3.1-.4-5.1-.3-5.6.4-.9 1.6-6.1 1.3-7.5-.4-.7-.8-2-1.5-2.9-1.5-2.9 0-5.7-2.7-7.1-6.9-1-3.2-1.7-4-3.1-3.6-1.7.6-5.2-1.9-6-4.3-.5-1.2-13-1.9-14.8-.8-.7.5-1.6 1.9-2.1 3.2l-.9 2.4-4-2.1c-2.2-1.1-4.7-3.1-5.5-4.5-1.1-1.6-2.6-2.4-4.5-2.4-1.6 0-3.3-.6-3.8-1.3-1.8-2.3-3.4-9.2-4.8-20.7-1.4-11.4-1.4-11.5.8-13.2 1.2-1 3.1-1.8 4.2-1.8 2.6-.1 5.5-2.3 5.5-4.2 0-1.6 7.3-8.8 8.9-8.8 1.9 0 3.3 3.1 3.4 7.7.2 4.2-.1 4.8-1.8 4.8-1.1 0-2.5-1.1-3.2-2.5-.7-1.4-1.3-1.9-1.3-1.2s-.7 2-1.5 2.8c-2.1 2.1-1.9 3.3.5 2.7 1.3-.3 2 0 2 .8 0 1 .3 1 1.2.1.7-.7 2.1-1.2 3.2-1.2s2.8-.8 3.8-1.7c1.3-1.2 2.2-1.3 2.9-.6.8.8.8 1.3 0 1.7-2.2 1.4-1 2.5 1.3 1.4 2-.9 3.1-.7 6.1 1.1 4.3 2.5 4.5 2.5 4.5.6 0-2.4 1.8-1.8 4.2 1.5 2.8 3.9 3.8 3.8 3.8-.3 0-2.1.8-4.1 2-5.2 2.7-2.4 4.5-.8 3.1 2.6-.5 1.3-1.2 4.1-1.6 6.1-.3 2.2-1.5 4.4-2.8 5.3-1.7 1.2-1.8 1.5-.4 1.5.9 0 2.4-1.1 3.3-2.5 1.3-2 1.9-2.3 3-1.4 1.1.9 1.4.8 1.4-.1 0-.7-.7-1.8-1.6-2.5-1.2-.9-1.5-2-1-3.9.6-2.3.9-2.6 2.1-1.6 1.2 1 1.5.9 1.5-.4 0-.9.7-1.6 1.5-1.6s1.5-.7 1.5-1.5c0-.9.9-1.5 2.5-1.5s2.5-.6 2.5-1.5 1.8-2.4 4-3.4c2.3-1 4.6-2.5 5.3-3.4.9-1.3 2.1-1.5 4.9-1.1 4.4.8 5.3 2.5 3.3 6.5-.9 1.6-1.1 2.9-.5 2.9.5 0 1-.5 1-1 0-.6.3-.9.8-.9.4.1 2.4.1 4.5 0 2.6-.1 3.7-.6 3.7-1.6 0-.8.4-1.5.9-1.5s1.6-.2 2.3-.5c.9-.4 1.9.5 2.8 2.2.7 1.6 1.5 2.3 1.7 1.5.3-.6 1.1-1.2 1.8-1.2 2.1 0 4.4-2.8 3.8-4.8-.5-2 3.2-4.2 7.1-4.2 1.3 0 3.1-.9 4.1-2 1-1.1 2.8-2 4.1-2 1.2 0 3.1-1.1 4.2-2.5s2.5-2.5 3.1-2.5c1.4 0 1.4-1.3.1-2.6-1.5-1.5 2-5.6 6.9-7.9 2.2-1.1 4.1-2.5 4.1-3.2 0-2.6 4.4-2.3 5.4.4z" fill="#016725"/></svg>