<svg xmlns="http://www.w3.org/2000/svg" viewBox="0 0 191 193.7"><path fill="none" stroke="#000" stroke-width="7" stroke-miterlimit="10" d="M589.5 193.7H430.4l-79.6 127.7 79.6 127.8h159.1l79.6-127.8z"/><path d="M419.5 321.6c2.9-2.9 5.6-5.7 8.3-8.4l17.5-17.5c3.5-3.5 6.9-7 10.4-10.4.3-.3.9-.6 1.4-.6 1.3-.1 2.6-.1 3.9-.1h19.9c-9.4 9.4-18.7 18.6-28 27.9.1.1.1.2.2.2h127.6v17.4H452.9l28 28c0 .1-.1.2-.1.3h-22.9c-.9 0-1.6-.2-2.3-.9-4.4-4.5-8.9-8.9-13.3-13.3l-13.4-13.4-8.8-8.8c-.1-.1-.4-.3-.6-.4z"/></svg>