<svg version="1.0" xmlns="http://www.w3.org/2000/svg" width="1066.667" height="1066.667" viewBox="0 0 800 800"><g fill="#fff"><path d="M160.1 98.2c-20 2.1-36.9 18.5-40.3 39.3-4.2 25.1 14.3 49.8 39.8 53.3 23.6 3.2 45.9-11.5 51.9-34.3 5.6-21.7-4.7-44.1-24.9-54-8.3-4.1-16.1-5.4-26.5-4.3zm17.4 21.2c6 2.7 10.7 7.2 13.8 13 3.1 5.9 3.1 18.3 0 24.2-9.5 17.9-32.9 20.9-46.1 5.9-9.5-10.8-9.3-25.7.5-36.5 7.9-8.9 21.1-11.6 31.8-6.6zm449-21.2c-12.6 1.6-27.5 12-33.8 23.7-18.4 33.7 9.7 74.1 47.7 68.9 25.5-3.5 44-28.2 39.8-53.3-4.3-25.8-27.2-42.6-53.7-39.3zm19 21.2c16.9 7.8 21.5 29.2 9.3 43.1-13.2 15-36.6 12-46.1-5.9-1.7-3.2-2.2-5.8-2.2-12.1 0-9 1.9-13.7 7.7-19.5 7.9-8 21.2-10.4 31.3-5.6zm-362 4.1c-11.5 7.5-21.4 14-22.2 14.6-2.1 1.8-2.6 7.4-1 10.4.9 1.8 8.8 7.6 22.7 16.6 23.8 15.6 25.8 16.3 31.1 11 5.4-5.5 3.5-11.2-6-17.3l-6.5-4.3L418 154c64.1-.3 117.3-.9 118.3-1.4 4.9-2.4 5.8-11.4 1.6-15.2-2-1.8-6.2-1.9-119.2-2.4l-117.1-.5 6.8-4.4c9.3-6.1 11.2-11.7 5.7-17.2-5.3-5.2-7.3-4.5-30.6 10.6zm-166 79.9c-2.8.7-7.3 2.3-10 3.6-6.3 3-17.4 14.1-20.4 20.3-4.8 9.9-5.1 12.9-5.1 52 0 40.9.1 41.6 6.3 43.6 4.2 1.4 7.6.3 10.6-3.5 2.1-2.6 2.1-3.4 2.1-38.9 0-42.2.1-42.7 8.5-51.2 3.7-3.7 6.6-5.6 10.1-6.6l4.9-1.4 18.2 17.6c10.1 9.7 19.4 18 20.7 18.5 4.8 1.8 7.8-.2 25.8-18.1 17.2-17.2 17.7-17.5 21-16.9 4.7.9 12 5.6 15.3 10 5.2 6.9 5.4 8.3 5.5 47.1 0 26.6.4 36.7 1.3 38.5.7 1.4 2.9 3.3 4.9 4.3 3.3 1.6 4 1.7 7.1.3 2-.8 4-2.3 4.6-3.4.7-1.4 1.1-14.8 1.1-40 0-34-.2-38.6-1.8-43.9-4.3-13.6-15.2-25.1-28.2-29.9-5.8-2-14.8-3.3-18.5-2.6-2 .3-7.9 5.4-19 16.3l-16.1 15.8-3.9-3.6c-2.2-2-9.9-9.4-17.1-16.4L132.3 202l-4.9.1c-2.7 0-7.2.6-9.9 1.3zm466.6.2c-15.3 4.1-28.6 17.5-32.7 32.8-1.8 6.5-2 79.5-.3 82.8 1.4 2.6 6.7 4.8 10.1 4.1 1.4-.3 3.7-1.6 5-3l2.3-2.5.5-38.6c.5-37.5.6-38.8 2.7-42.8 3.9-7.3 10.1-12.3 17.7-14.5 3-.9 3.6-.4 21.1 17 17.9 17.9 20.8 20 25.8 18.8 1.2-.4 10.3-8.4 20.1-17.9 9.8-9.5 18.7-17.4 19.7-17.6 2.5-.4 9.7 2.9 13.7 6.3 1.8 1.5 4.5 5.1 6 7.9l2.7 5.1.5 38.1c.5 36.4.6 38.3 2.5 40.4 4.5 5 12.2 4.5 15-1 2.2-4.3 2.2-72.9 0-81.3-3.8-14.8-14.2-26.5-28.2-32-6.5-2.6-16.6-3.9-20-2.7-1.5.6-9.9 8.2-18.5 16.8L634 235.4l-16.8-16.7-16.8-16.7-5.5.1c-3 0-7.8.7-10.8 1.5z"/><path d="M119.6 262.1l-2.6 3.1v25.5c0 28.4.4 30.3 6.6 32.3 3.9 1.3 9.6-.7 11.3-3.8.7-1.3 1.1-11.4 1.1-28.1v-25.9l-2.6-3.1c-2.1-2.6-3.3-3.1-6.9-3.1-3.6 0-4.8.5-6.9 3.1zm81.7-2.1c-4.8 1.9-5.3 5-5.3 31.8 0 23.9.1 25 2.1 27.6 3 3.8 6.4 4.9 10.5 3.6 6.3-2.1 6.4-2.6 6.4-31.8v-26.4l-2.9-2.9c-3-3-6.5-3.6-10.8-1.9zm386.3 1.6l-2.6 2.7v26.6c0 29.5.1 30 6.4 32.1 4.1 1.3 7.5.2 10.5-3.6 2.1-2.7 2.2-3.4 1.9-29.2l-.3-26.4-2.8-2.4c-3.9-3.4-9.6-3.3-13.1.2zm79.3.3l-2.9 2.9V291c0 16.8.4 26.9 1.1 28.2 1.7 3.1 7.4 5.1 11.3 3.8 6.2-2 6.6-4 6.6-31.4 0-26.5-.4-28.7-5.1-31.2-4.3-2.2-7.7-1.7-11 1.5zM69.7 360.1c-1 .6-4.8 5.7-8.4 11.2-24 36.9-23.6 36.1-18.4 41.9 2.3 2.6 3.6 3.2 6.6 3.1 4.3-.1 7.1-2.4 11.8-9.7l3.2-5.1.5 61.5c.3 33.8.9 62.3 1.4 63.3 2.5 5.2 11.8 5.8 15.6 1 2-2.5 2-3.7 2-63.9 0-33.8.3-61.4.8-61.4.4 0 2.4 2.7 4.4 6.1 4.7 7.5 8.9 9.7 14.2 7.5 4-1.7 5.6-4.2 5.6-8.8 0-2.5-3.1-8.1-13.6-24.3C87.9 371 81 361 80.1 360.3c-2-1.5-7.9-1.6-10.4-.2zm649.5.9c-1.2 1.2-2.3 2.2-2.4 2.3-.2.1-.5 28.8-.8 63.7l-.5 63.5-4.4-6.8c-4.8-7.5-6.4-8.7-11.4-8.7s-8.7 3.8-8.7 8.9c0 3.5 1.8 6.9 13.5 24.8 9.8 15.2 14.4 21.3 16.7 22.5 3.3 1.8 7 1.5 9.7-.6 1.5-1.2 25-36.6 27.6-41.6 2.3-4.4 1.9-7.8-1.4-11.1-3.1-3.1-7.5-3.8-11.2-1.9-1 .6-3.9 4.1-6.4 7.7l-4.5 6.7-.2-63.3-.3-63.3-2.8-2.4c-3.6-3.1-9.4-3.2-12.5-.4zm-429.6 18.1c-13.4 3.3-24.6 15.4-27.7 29.9-3.3 15.6 6.1 33.6 21.3 40.6 5.6 2.6 7.4 2.9 15.8 2.9 8.2 0 10.3-.4 15.2-2.7 7.9-3.7 14.2-9.8 18.1-17.7 3-6.1 3.2-7.3 3.2-16.6 0-8.7-.3-10.7-2.7-15.7-5.7-12.2-18.7-20.9-32.2-21.4-3.9-.2-8.9.1-11 .7zm19.5 21.4c6.7 4.4 9.9 14.2 7.1 21.6-3.6 9.2-14.7 14.3-23.9 10.8-4.9-1.8-10.1-7.7-11.3-12.9-3.9-16.3 14.1-28.8 28.1-19.5zm80.9-20.9c-22.9 6.2-34.1 32.3-22.9 53.4 3.9 7.3 10.2 13.3 17.7 16.8 4.9 2.3 7 2.7 15.2 2.7s10.3-.4 15.1-2.6c14.3-6.7 22-18.9 22.1-35 0-6.6-.4-8.8-2.9-14.1-5.3-11.3-13.5-18.3-24.8-21.3-7.2-1.8-12.3-1.8-19.5.1zm17.6 19.3c10.8 4.9 14.1 20.4 6.2 28.8-9 9.6-24.4 7.6-30.5-4.1-1.5-3-1.9-9.9-.8-13.8 2.1-6.8 10.3-12.8 17.5-12.8 1.9 0 5.4.9 7.6 1.9zm82.9-19.2c-12.2 4.4-20 11.8-24.5 23.3-1.8 4.6-2.1 7-1.8 14.5.3 7.9.8 9.8 3.7 15.3 4.1 7.5 10.3 13.5 17.9 17 4.9 2.3 7 2.7 15.2 2.7 8.4 0 10.2-.3 15.8-2.9 15.1-7 24.2-24.2 21.3-40.1-3.3-17.6-17.3-30.1-34.7-31.1-6-.4-9.1 0-12.9 1.3zm18 19.2c14.9 6.8 14.7 27-.4 33.6-7.3 3.2-16.6.7-21.4-5.7-11.4-15.3 4.6-35.7 21.8-27.9zm-353 53.5c-7.4 1.9-10.1 3.2-16.5 7.7-23.7 16.6-26.6 50.6-6.1 70.9 14.8 14.6 35.2 18.1 54 9.3 6.9-3.3 17.8-14 21-20.6 6.9-14.3 6.7-29.7-.5-44-3.2-6.3-12.2-15.2-19-18.9-9.8-5.3-22.6-7-32.9-4.4zm21.7 20.4c9.5 4.2 15.6 12.7 16.5 23.2 1.8 19.5-17.7 34.8-36.4 28.6-15.8-5.3-23.4-23.7-16-38.8 6.5-13.3 22.4-19 35.9-13zM622 452.7c-29 7.9-42.9 39-29.9 66.8 3.1 6.8 14 17.5 21 20.8 18.8 8.8 39.2 5.3 54-9.3 20.5-20.3 17.6-54.3-6.3-71-11.4-8.1-25.9-10.8-38.8-7.3zm19.7 18.8c21 6.3 26.9 33.6 10.2 47.9-18.6 15.9-47.8.9-45.6-23.5 1-11.2 8.2-20.3 18.9-24 6.5-2.3 10-2.3 16.5-.4zm-525.1 85.6c-10.5 2.5-23.4 12.6-28.8 22.6-5.4 9.9-5.8 13.4-5.8 54.1v37.4l2.9 2.9c3.8 3.7 8.8 3.9 12.8.5l2.8-2.4.5-38.9.5-38.8 3.1-5.5c3.4-6 9.9-11.2 16.6-13.2l3.9-1.2 17.7 17.6c9.7 9.7 18.7 18.1 19.9 18.7 4.6 2.3 7.5.4 26.1-17.5 11.8-11.4 18.8-17.4 20.1-17.4 6.4 0 16.1 7.6 19.7 15.5 2.4 4.9 2.4 5.4 2.4 41.3 0 38.6.2 40.6 4.9 43.2 3.6 1.9 8.6 1.2 11.5-1.6l2.6-2.7v-38.2c0-35.3-.2-38.8-2-44.7-2.4-8-6.6-14.3-13.4-20.5-8.2-7.5-20.1-12.3-30.4-12.3-4.2 0-4.6.3-20.8 16.1-9.1 8.8-16.9 15.9-17.4 15.7-.5-.2-8.1-7.4-16.9-16.1l-16-15.7-6.3.1c-3.5.1-8 .5-10.2 1zm466.9.3c-13.2 4.2-23.4 13-29.3 25.3l-3.7 7.8-.3 40.6-.3 40.5 2.7 2.7c2.9 2.9 7.8 3.6 11.5 1.7 4.7-2.5 4.9-4.6 4.9-42.8 0-41 .2-42.5 7.5-49.8 4.9-4.9 9.1-7.3 13.4-7.6 2.6-.3 5 1.7 21.2 17.2 18.7 18.1 21.9 20.2 26.3 17.8 1.3-.7 10.1-8.7 19.5-17.8 10.5-10 18.1-16.6 19.5-16.8 3.8-.5 11.3 3.6 15.6 8.6 6.7 7.5 7 9.7 7 50.5v35.9l2.9 2.9c4.1 4 9.1 4 13.2 0l2.9-2.9v-37.4c0-28.3-.4-38.5-1.4-42.4-4.7-17.7-19.6-31.4-37.5-34.5-10.2-1.8-10.9-1.5-28.6 15.7-8.8 8.4-16.2 15.4-16.5 15.4-.4 0-2.9-2.2-5.6-4.8-2.7-2.7-10.1-9.9-16.6-16L600.2 556l-6.4.1c-3.4 0-8.1.6-10.3 1.3z"/><path d="M121.9 613.5c-4.7 2.5-5 5.1-4.7 32.9l.3 25.8 2.8 2.4c4 3.4 9 3.2 12.8-.5l2.9-2.9V645c0-16-.4-26.9-1-28.1-1.2-2.2-6.1-4.9-8.7-4.9-1 .1-3 .7-4.4 1.5zm467.9 0c-1.5.9-3.2 2.4-3.8 3.5-.6 1.1-1 12.1-1 28v26.2l2.9 2.9c3.8 3.7 8.8 3.9 12.8.5l2.8-2.4.3-26.5.3-26.6-2.8-3c-3.3-3.7-7.8-4.7-11.5-2.6zm-390.5 1.9l-2.8 2.4v54.4l2.8 2.4c4 3.4 9 3.2 12.8-.5l2.9-2.9v-52.4l-2.9-2.9c-3.8-3.7-8.8-3.9-12.8-.5zm467.6.5l-2.9 2.9v52.4l2.9 2.9c3.8 3.7 8.8 3.9 12.8.5l2.8-2.4v-54.4l-2.8-2.4c-4-3.4-9-3.2-12.8.5zM472.4 634c-4.6 1.8-6.8 8.5-4.4 13.1.6 1 4.1 3.9 7.8 6.4l6.6 4.5-100.3.2-100.3.3-2.4 2.8c-3 3.5-3.2 9.4-.5 12.8l1.9 2.4 100.9.5 100.8.5-6.2 4.2c-9.9 6.8-11.7 11.3-6.7 17.2 2.1 2.5 3.3 3.1 6.5 3.1 3.4 0 7-2 24.9-13.6 11.5-7.4 21.4-14.1 22-14.9.6-.7 1.4-2.9 1.7-4.8.4-3 0-4-2.8-7-5-5.1-42-28.7-45-28.6-1.3 0-3.4.4-4.5.9z"/></g></svg>