<svg version="1.0" xmlns="http://www.w3.org/2000/svg" width="1066.667" height="1066.667" viewBox="0 0 800 800"><g fill="#fff"><path d="M376 108.6c-39.6 4.4-66.2 11.4-97.5 25.6-26.3 12-53.8 30.2-73.9 48.9-4.8 4.5-5.9 6.1-5.9 8.7 0 4.4 2 7.8 5.4 9.2 3.8 1.6 7.2.6 11.7-3.3 2-1.9 5.3-4.4 7.2-5.7 1.9-1.4 6.2-4.6 9.5-7.3 20.3-16.4 51.2-33.1 78.5-42.5 20-6.9 19.9-6.9 9.2 3.7-14.7 14.8-29.2 35.2-39.6 55.9-2.5 5.1-4.6 10.6-4.6 12.3 0 4 4.7 8.9 8.7 8.9 4.4 0 7-2.5 11-10.3 10.3-20.5 22-37.3 36.7-52.4 15.2-15.7 30.7-25.5 47.8-30.3 12.7-3.5 11.3-8.5 11 40.6-.4 46.1-.3 47.3 4.9 49.9 3.5 1.9 5.3 1.9 8.8.1 5-2.6 5.1-3.5 5.1-49.6 0-34.1.3-43 1.3-43 .7 0 4.4.9 8.2 1.9 29.8 8.3 56.9 33.1 79.5 72.9 5.7 10 7.9 12.2 12.3 12.2 4.2 0 6.7-1.7 8.4-5.7 1.4-3.5 1.4-3.8-2.6-11.9-8.6-17.3-27.4-43-40.1-54.8-3.4-3.1-5.7-5.6-5.2-5.6 2.2 0 18.4 5.4 29 9.6 33.7 13.4 62.2 31.9 88.6 57.6l13.1 12.6-10.5 5c-10 4.7-32.4 13.3-38.3 14.8-3.8.9-6.7 4.9-6.7 9.4 0 3 .6 4.4 3.1 6.4 1.7 1.4 4.1 2.6 5.4 2.6 4.5 0 33-10.9 49.8-19 4.8-2.3 9.3-4 10.1-3.7 2 .8 19.6 27.7 26 39.7 17.6 33.4 29.4 75.7 30.8 111l.3 7.5-8.2.5c-10 .6-12.8 2.6-12.8 9s2.8 8.4 12.8 9l8.2.5-.4 8.8c-.4 10.1.8 12.8 6.2 14.6 4.3 1.5 7.9.2 10.4-3.6 1.6-2.5 1.8-5.4 1.8-30.8 0-30-.9-39-6.2-62.5-9.5-42.8-28.7-83.1-56.5-118.2-9.7-12.3-34-36.8-45.8-46.2-31.5-25.1-71-44.8-109.5-54.6-25.1-6.4-39.3-8.2-68-8.5-13.7-.2-26.6-.1-28.5.1z"/><path d="M174.9 176.3c-3 2-81.5 66.3-120.2 98.5-19.9 16.5-19.9 16.8 2.4 35 8.5 7 34.4 28.2 57.4 47.2 23.1 19 46.4 38.2 52 42.7 8.4 7 10.5 8.3 13.6 8.3 2.6 0 4.4-.8 6.3-2.6l2.6-2.7V352h324.8l3.1-2.6 3.1-2.6v-55.3c0-52.9-.1-55.4-1.9-57.6l-1.9-2.4-163.4-.5-163.3-.5-.5-26c-.3-14.3-.7-26.1-.8-26.3-.8-1.1-7-4.2-8.3-4.2-.9 0-3.1 1-5 2.3zm-3.9 47.3v19.6l2.9 2.9 2.9 2.9H502v84H341c-169.3 0-165.9-.1-168.6 4.1-.5.8-1.1 10.5-1.4 21.7l-.5 20.3-53.3-43.8-53.3-43.8 4.3-3.7c10.6-9.2 101.4-83.7 102.1-83.7.4-.1.7 8.7.7 19.5z"/><path d="M536 276.8c-5.7 2.8-5.8 4.8-1.7 25.4 5.3 26.5 9.7 64.9 9.7 84.4v4.4H409v-12.9c0-12.3-.1-13.1-2.4-15.8-3.4-3.9-9.8-3.9-13.2 0-2.3 2.7-2.4 3.5-2.4 15.8V391H255.7l.7-13 .7-13-3-3c-4.5-4.5-11.4-3.9-14.3 1.3-.8 1.3-1.5 7.4-1.8 14.7l-.5 12.5-14.6.3c-14.3.2-14.7.3-17.3 2.9-3.6 3.6-3.6 9 0 12.6 2.6 2.6 3 2.7 17.3 2.9l14.6.3.7 16.3c.8 20.3 2.2 34.3 5.4 54.2 2.8 17.6 7.1 38.6 8.6 41.3.5 1 2.5 2.5 4.5 3.3 3.1 1.4 3.8 1.3 7.1-.3 5.9-2.9 6-4.7 1.9-25.5-5.3-26.8-9.7-64.9-9.7-84.9V409h135v13.9c0 13.3.1 14.1 2.4 16.8 3.4 3.9 9.8 3.9 13.2 0 2.3-2.7 2.4-3.5 2.4-16.8V409h135.3l-.7 14-.7 14.1 3 2.9c4.5 4.5 11.4 3.9 14.3-1.3.8-1.3 1.5-7.5 1.8-15.7l.5-13.5 12.1-.3c11.3-.2 12.4-.4 14.8-2.7 2-1.8 2.6-3.4 2.6-6.5s-.6-4.7-2.6-6.5c-2.4-2.3-3.5-2.5-14.8-2.7l-12.1-.3-.2-7.5c-1.1-33.2-7.5-80.7-13.9-102.3-1.3-4.2-7.8-6.3-12.4-3.9z"/><path d="M115.3 367c-1.2.5-3 2.1-4 3.7-1.6 2.5-1.8 5.4-1.8 30.8 0 30 .9 39 6.2 62.5 11.6 52.7 37.6 100.7 75.3 139.3 24 24.6 47.7 42.2 76.8 57 28.6 14.5 57 23.7 89.2 28.9 12.7 2 18 2.3 43 2.3 30.2 0 38.4-.8 62.5-6 30.1-6.5 60.8-18.7 87.9-35 12.9-7.8 34.3-23.7 44-32.7 5.8-5.3 6.9-6.9 6.9-9.6 0-6.4-5.1-11.2-10.6-9.8-1.4.3-6.7 4.2-11.8 8.6-19.9 17-44.3 32.6-67.2 42.8-11.7 5.2-31.2 12.3-37.7 13.7-3.4.7-3.3.5 4.6-7.1 14.5-14.2 27.7-32.5 38.9-53.6 7.7-14.7 8.2-18.2 3.4-22.2-6.2-5.2-11.2-2.9-16.4 7.4-10.5 20.8-22.3 37.8-36.4 52.2-15.8 16.3-31 26-48.3 30.8-12.7 3.5-11.3 8.5-11-40.6.4-46.1.3-47.3-4.9-49.9-3.4-1.8-5-1.9-8.4-.3-5.4 2.5-5.5 3.1-5.5 49.8 0 34.1-.3 43-1.3 43-2.7 0-16.2-4.2-22.1-6.9-10.8-4.9-21.6-12.9-33.7-25-12.5-12.5-20.3-22.9-30-39.8-7.1-12.4-9.8-15.3-14-15.3-4.4 0-6.9 1.7-8.6 5.8-1.5 3.5-1.4 3.7 2.8 12.1 8.9 17.7 27.9 43.5 40.6 55.1 3 2.7 5.1 5 4.6 5-1.8 0-16.9-4.8-25.3-8-34.5-13.3-65.2-32.9-92.4-59-6.4-6.2-11.6-11.8-11.6-12.5 0-1.7 21.1-11.1 37-16.5 14.9-5.1 17-6.7 17-12.6 0-3.5-.5-4.7-3.1-6.8-1.7-1.4-4.1-2.6-5.4-2.6-4.7 0-33.8 11.1-48.7 18.6-4.8 2.4-9.2 4.4-9.7 4.4-1.4 0-13.7-17.4-20.6-29-21.1-35.6-34.4-77.9-37.4-118.5-.4-6.1-.6-11.3-.4-11.8.2-.4 4-.7 8.4-.7 7.6 0 8.2-.2 11-2.9 3.6-3.7 3.8-7.9.5-11.8-2.2-2.6-3.1-2.8-11.3-3.3l-8.8-.5.4-8.6c.4-9.7-.5-12.1-4.9-14.4-3.3-1.7-4.5-1.8-7.7-.5z"/><path d="M613.6 395.5l-2.6 2.4V449H286l-2.9 2.7c-1.7 1.6-3.1 3.9-3.2 5.3 0 1.4-.1 26.2 0 55.1.1 50.3.2 52.8 2 55l1.9 2.4 163.4.5 163.3.5.5 25.8c.5 25.8.5 25.9 2.9 27.8 3.4 2.8 6.5 3.3 9.7 1.5 1.6-.8 13.7-10.4 26.9-21.3 13.3-10.9 36.9-30.3 52.5-43.2 51.7-42.6 55.9-46.2 56.5-48.2.4-1.2.4-3.5.1-5.3-.5-2.6-2.9-5.1-12.8-13.2-6.7-5.4-37.2-30.5-67.7-55.7-50.7-41.7-55.8-45.7-59.2-45.7-2.4 0-4.5.8-6.3 2.5zm45.8 51.1c15.4 12.6 38.5 31.6 51.5 42.3 13 10.6 24 19.7 24.4 20.1.5.4-13 12.2-29.9 26.1-17 14-38.7 31.9-48.4 39.9-9.7 8-19.7 16.2-22.2 18.2-2.5 2.1-4.8 3.8-5.2 3.8-.3 0-.6-8.7-.6-19.4v-19.4l-2.6-3.1-2.6-3.1H298v-84h161c172.8 0 166.2.2 168.9-4.8.7-1.3 1.1-9.6 1.1-21.8 0-15.6.3-19.4 1.3-18.7.6.5 13.8 11.3 29.1 23.9z"/></g></svg>