<svg version="1.0" xmlns="http://www.w3.org/2000/svg" width="133.333" height="133.333" viewBox="0 0 100 100"><g fill="#fff"><path d="M37 4.4c0 4.2-.2 4.5-3.6 5.6-3.3 1.1-3.8 1-6.5-1.6l-3-2.8-9.1 9.2-9.2 9.1 2.8 3c2.6 2.7 2.7 3.2 1.6 6.5C8.9 36.8 8.6 37 4.4 37H0v26h4.4c4.2 0 4.5.2 5.6 3.6 1.1 3.3 1 3.8-1.6 6.5l-2.8 3 9.2 9.1 9.1 9.2 3-2.8c2.7-2.6 3.2-2.7 6.5-1.6 3.4 1.1 3.6 1.4 3.6 5.6v4.4h26v-4.4c0-4.2.2-4.5 3.6-5.6 3.3-1.1 3.8-1 6.5 1.6l3 2.8 9.1-9.2 9.2-9.1-2.8-3c-2.6-2.7-2.7-3.2-1.6-6.5 1.1-3.4 1.4-3.6 5.6-3.6h4.4V37h-4.4c-4.2 0-4.5-.2-5.6-3.6-1.1-3.3-1-3.8 1.6-6.5l2.8-3-9.2-9.1-9.1-9.2-3 2.8c-2.7 2.6-3.2 2.7-6.5 1.6C63.2 8.9 63 8.6 63 4.4V0H37v4.4zm23.2 2.7c.3 3.8.6 4.2 5.1 6.1l4.8 2.1 2.7-2.6 2.7-2.7 7.2 7.2 7.3 7.2-2.7 2.8-2.6 2.7 2.1 4.8c1.9 4.5 2.3 4.8 6.1 5.1l4.1.3v19.8l-4.1.3c-3.8.3-4.2.6-6.1 5.1l-2.1 4.8 2.6 2.7 2.7 2.8-7.3 7.2-7.2 7.2-2.7-2.7-2.7-2.6-4.8 2.1c-4.5 1.9-4.8 2.3-5.1 6.1l-.3 4.1H40.1l-.3-4.1c-.3-3.8-.6-4.2-5.1-6.1l-4.8-2.1-2.7 2.6-2.7 2.7-7.2-7.2-7.3-7.2 2.7-2.8 2.6-2.7-2.1-4.8c-1.9-4.5-2.3-4.8-6.1-5.1L3 59.9V40.1l4.1-.3c3.8-.3 4.2-.6 6.1-5.1l2.1-4.8-2.6-2.7-2.7-2.8 7.3-7.2 7.2-7.2 2.7 2.7 2.7 2.6 4.8-2.1c4.5-1.9 4.8-2.3 5.1-6.1l.3-4.1h19.8l.3 4.1z"/><path d="M38.5 24.4C28.1 29.2 22 38.7 22 50c.1 25.3 30.8 37.6 48.2 19.4 10.6-11.1 10.5-28.6-.3-39.3-8-8.1-21.3-10.5-31.4-5.7zm20 2.3C71.4 31 78.3 46.6 73 59.5l-1.2 3-1.6-2.5c-2.1-3.2-6-7.1-9-9-2.3-1.5-2.3-1.6-.6-4.9 1.4-2.7 1.5-4 .5-7-1.7-5.8-5.3-8.6-11.1-8.6s-9.4 2.8-11.1 8.6c-1 3-.9 4.3.5 7 1.7 3.3 1.7 3.4-.6 4.9-3 1.9-6.9 5.8-9 9l-1.6 2.5-1.2-3c-3.8-9.2-1.6-20 5.5-27 6.9-7 16.4-9.1 26-5.8zM53 34c.5 0 1.8 1 3 2.2 4.6 4.9.8 13.8-6 13.8-6.2 0-10.4-8.3-6.6-13.2 1.5-2.1 5.6-3.8 7.4-3.2.8.2 1.8.4 2.2.4zm6.7 20.3c3.5 1.9 7.8 6.7 8.9 9.9C69.9 68.5 58.7 75 50 75c-5.1 0-12-2.6-16-5.9-3.2-2.6-3.3-2.9-2.1-5.8 1.4-3.5 5.3-7.4 9.3-9.4 3.6-1.9 14.6-1.6 18.5.4z"/><path d="M48 58.5c0 .8.9 1.5 2 1.5s2-.7 2-1.5-.9-1.5-2-1.5-2 .7-2 1.5zm.4 5.6c-1 1.7 1.3 3.6 2.7 2.2 1.2-1.2.4-3.3-1.1-3.3-.5 0-1.2.5-1.6 1.1z"/></g></svg>