<svg version="1.0" xmlns="http://www.w3.org/2000/svg" width="1200" height="1200" viewBox="0 0 900 900"><path d="M687.5 1.9c-21.5 2.6-48.3 12.2-68.3 24.6-17 10.4-35.9 27-49.7 43.5-28 33.5-42.9 79.1-41.2 126 .7 17.7 2.4 28.4 6.6 42l3 9.5-39 39.1-39.1 39.2-4.7-1.3c-2.5-.6-6-1.9-7.7-2.8-4.8-2.5-26.2-22.8-66.7-63.4l-37.8-37.9 3.5-7.5c5.7-11.8 6.5-20.2 4-38.2-.6-4.3-.4-5.2 3-10.2 5.1-7.7 30.1-33.2 42.1-42.8 5.5-4.4 14.1-10.7 19-14C424.8 101 449 89 463.3 83.6c11.3-4.4 19.1-10.7 23.5-19 3.8-7.3 3.8-17.9 0-25.2-5.9-11.3-18.1-17.5-47.8-24.2-16.3-3.7-31.7-5.2-55-5.2-29.7 0-45.8 2.2-68.5 9.1-31.7 9.8-56.9 23.5-81.7 44.7C219.4 76 101.4 193.9 93.2 204.3c-7.2 9.1-9.3 15-9.5 27-.2 7.6-.4 8.2-2.7 9.4-1.4.7-4.9 1.3-7.8 1.3-9.7 0-18.6 2.7-25.4 7.7-8.8 6.4-39.1 36.9-41.6 41.8C.3 303.2-.6 318 4 327.3c3.2 6.4 21.2 25.8 52.1 56.2 34.6 34 41.3 39.8 48.7 41.9 3.2.9 9.2 1.6 13.3 1.6 12.3-.1 18.9-4 38.2-22.9 24.1-23.5 28.1-30 29.5-47.4.5-5.9 1.1-11 1.4-11.2.3-.3 5.2-1 11-1.5 10.5-.9 15.9-2.5 26-7.6l5.2-2.6 48.1 48.3c26.4 26.6 49.5 50.6 51.2 53.2 1.8 2.7 3.8 7.4 4.4 10.4l1.2 5.4-43.2 43.3-43.3 43.3-8.8-2.8c-17-5.3-26.1-6.4-53-6.3-21.6 0-25.7.3-34.8 2.2-39.3 8.6-69.7 25.5-98.3 54.8-23.8 24.5-39.5 52-47.5 83.5-2.4 9.5-2.7 12.5-3.1 34.9-.3 15.6-.1 28.4.7 35.5 3.3 30.2 13.1 50 28.3 57.5 11.1 5.4 21.7 5.9 32 1.6 5.1-2.1 18.2-14.2 54.5-50l32.3-32 16.9 16.9 16.9 17-37.3 38.1c-20.5 21-38.7 40.4-40.5 43-4.7 7.1-6.4 14.2-5.9 23.8 1.2 22.3 18.6 35.4 56.3 42.2 15.2 2.7 46.7 2.5 64-.5 42.4-7.3 79.7-29.4 109.3-64.6 24.1-28.7 38.3-62.5 42.2-100.4 2.5-25.6-.1-53.5-7-73.7l-1.8-5.1 40.2-40.2 40.2-40.2 16.5 16.8c9 9.2 38.5 40 65.4 68.3 94 98.7 135.1 141.8 174.8 182.8 38 39.2 40.3 41.4 47.1 44.6 10 4.8 16.1 5.9 27.5 5.4 11.8-.7 18-2.9 27.6-10 8.7-6.4 78-75.5 86.3-86 8.5-10.9 10.4-16.4 10.4-30.8.1-14-1.5-20.2-7.4-29.1-5.6-8.5-24.3-26.9-117.8-116.3-43.2-41.2-93.6-89.4-112-107-18.4-17.6-39.6-37.9-47-45.1-7.4-7.2-17.7-17.1-22.9-22.1-8.1-7.9-9.2-9.3-8.3-11 .6-1 16.5-17.3 35.4-36.1l34.3-34.3 7.5 2.4c24.5 7.8 60.7 9.7 87.3 4.6 74-14.3 134.4-73.5 148.9-146.2 1.9-9.6 2.2-14.5 2.2-32.8 0-46.4-9.3-75.6-27.8-86.4-10.3-6-23.3-7-33.3-2.6-6.5 2.9-13.3 9.1-52.3 47.7l-34.6 34.2-16.7-16.7c-9.2-9.2-16.7-17.1-16.7-17.6s16.3-17.3 36.3-37.5c20-20.1 38-39.1 40-42.1 14.3-21.8 7.1-45.3-17.6-57.3-9.9-4.9-16.7-6.8-32.2-9.2-11.7-1.8-46.8-2.7-57-1.6zM726 58c0 .5-11.3 12.5-25.1 26.6-30.5 31.2-37.3 39-41.3 47.4-2.9 6.1-3.1 7.2-3 17.5 0 14.4 1.8 19.1 12.3 31.6 8.6 10.3 41 42.5 53.4 53 9.7 8.3 13.1 9.4 29.7 9.4 18.3 0 17 .9 60.5-41.6 20.5-20 29.5-28 30.6-27.3 1.4.8 1 20.8-.6 31.4-2.9 19.7-10.9 39.3-22.6 56-11.1 15.9-32.1 33.7-49.4 42-7.9 3.8-22 8.4-32 10.6-11 2.3-35.9 2.4-47.7.1-12-2.4-30.5-8.9-41.4-14.6l-9.2-4.8-16.8 16.9c-26.9 27-83.3 81.8-84.3 81.8-.5 0-8.4-7.3-17.6-16.2l-16.6-16.1 50.2-50.3 50.3-50.3-5.6-11.8c-11.2-23.4-15.1-39.8-15.2-62.3 0-16.7 1.3-25.3 6-39.9 6.3-19.4 14.6-33.6 27.9-47.9 20.9-22.4 49.1-37.5 77-41.2 8.9-1.1 30.5-1.2 30.5 0zM369.4 70.3c-35.7 26.3-68 63.8-75.9 88.2-2.6 7.8-2.7 9.3-2.2 19.7l.5 11.3-14.6 14.8-14.7 14.7 82.1 82.1 82.1 82.1 7.4-1.9 7.4-1.8 20.5 19.6c24.6 23.4 80.4 76.7 193.5 184.4 46.2 44 104 99.1 128.5 122.5 24.5 23.4 47.9 45.8 52 49.7l7.5 7.2-30 30.1c-16.5 16.6-32.6 32.4-35.9 35.3l-5.8 5.1-11.7-12C742.8 803.7 667.2 724.7 574 627 454.6 501.8 404.7 449.5 396.2 440.8l-7.6-7.7 1.7-7.8 1.7-7.8-82-82-82-82-14.7 14.7c-8.7 8.6-15.8 14.9-17.3 15.2-1.4.2-6.2.7-10.7.9-13.7.8-23.5 6.8-41.1 25.1-13.7 14.3-18.1 23.1-18.2 36.1 0 7.5-1.6 11.7-5.8 15.8l-3.7 3.7-26.8-26.8-26.8-26.8 4-3.7c4.5-4 9.3-5.7 16.7-5.7 8 0 17-3.3 24.6-9 8.7-6.6 26.8-25.7 30.1-31.9 3.4-6.2 5.7-15.1 5.7-22.2 0-4.7.5-6.3 3.2-10 6.7-9.4 99.5-101.3 122.8-121.7 22.7-19.9 44.1-30.5 76-37.5 15-3.3 15.4-3.4 22.9-3.6l6.3-.1-5.8 4.3zm32.5 459l1.5 2.8-53.9 53.9-53.9 53.9 5.1 10.3c6.2 12.5 10.7 25.1 13.5 37.8 3 13.3 3 38.4.1 52-8.4 39.4-34.3 72.5-70.8 90.8-12.9 6.4-20.5 8.7-37.3 11.2-14.2 2.1-31.2 2.7-31.2 1.1 0-.5 14-15.4 31-33.2 34.5-35.9 36.1-38.1 38-51.9 1.2-8.8 0-19.9-2.9-26.4-2.3-5.4-16.2-20.6-40.7-44.6-25.2-24.8-27.4-26.5-35.5-28.6-9.8-2.5-27-1.6-34.1 1.9-6.5 3.2-21.1 16.3-51.1 45.7-12.5 12.2-22.9 22.1-23.1 21.9-.7-.9 1.4-29.1 3-38.4 2.1-13.1 4.6-21.1 10-31.9 6.8-13.4 13.8-23 25.4-34.6 41.7-41.8 99.8-50.5 154.8-23.2l11.3 5.6 54.7-54.8 54.7-54.7 15 15.3c8.3 8.5 15.7 16.6 16.4 18.1z" fill="#fff"/></svg>