<svg version="1.0" xmlns="http://www.w3.org/2000/svg" width="1066.667" height="1066.667" viewBox="0 0 800 800"><g fill="#fff"><path d="M381 50.9c-68.9 7.4-129.1 49.9-159.5 112.6-18.2 37.5-25.2 80.2-19 116.1 5.7 32.6 22.9 83.9 47 139.4 2 4.7 4.9 11.4 6.5 15 2.8 6.6 16.8 37.1 25.5 55.5 5.9 12.6 41.3 83.3 47 94 2.3 4.4 7.1 13.4 10.5 20 3.5 6.6 11.7 21.9 18.3 34 25.2 46.5 24.2 44.9 31.6 49.3 8.8 5.1 21.5 2.9 28.8-5 6.9-7.5 82-151.3 105.6-202.3 3.6-7.7 8.3-17.8 10.4-22.5 2.2-4.7 5.5-11.9 7.3-16 1.8-4.1 4.1-9.3 5-11.5 16.1-35.9 34.4-84.1 42.6-112.4 9.6-33.1 12.6-55.9 10.5-79.1-4.2-45.6-21.2-85.7-50.5-119.6-30.6-35.3-71.5-58.1-118.6-66-10.3-1.7-38.7-2.6-49-1.5zm42.7 25.7c57.7 8.5 105.6 43.7 132.2 97.1 12.2 24.6 17.7 46 18.8 73.8.9 23.4-3 43.5-16.1 82.6-8.6 25.9-26.8 71.6-39 98.3-1.8 3.9-7.5 16.3-12.7 27.6-11.2 24.4-45.2 93.2-60.4 122-18.5 35.3-45.7 85-46.5 85-.4 0-1.2-1-1.8-2.2-.6-1.3-2.6-5-4.5-8.3-37.4-66.8-86.2-163.4-112.9-223.5-3.8-8.5-7.3-16.4-7.8-17.5-5.1-10.9-19.7-47.7-27.1-68.4C231.5 302.9 225 275 225 253c.1-39 14-78.9 38.7-110.8 5.8-7.5 21.2-23.1 28.8-29.2 24.4-19.4 52.4-31.7 83-36.4 12.4-1.9 35.4-1.9 48.2 0z"/><path d="M336.7 151.5c-24.3 4.6-47.8 20.6-57.4 39.1-5.3 10.3-7.2 17.5-7.9 30.4-1.6 29.7 13.1 62.1 37.2 82 3.9 3.2 16.9 12.3 29 20.2 12 8 30.7 20.2 41.4 27.3 10.7 7.1 20.2 12.9 21 12.9.8 0 8.9-4.9 18-10.9s27.7-18.3 41.5-27.3c13.7-9 28.2-19.1 32.2-22.4 21.8-18.1 35.4-45.2 37-73.8 1.5-27.2-9.5-49.1-31.9-63.8-15.5-10.1-30.1-14.5-47.8-14.6-15.9-.1-31.9 4.3-44.2 12-2 1.3-4.2 2.4-4.8 2.4-.5 0-3.1-1.3-5.7-2.9-15.7-9.6-39.5-14-57.6-10.6zm28.7 25.5c10.1 2.6 17.9 6.8 26.8 14.6 4 3.5 7.5 6.4 7.8 6.4.3 0 3.9-3 8-6.7 20.2-17.8 44.2-21.1 67.8-9.5 14.6 7.2 23.2 16.6 26.9 29.2 2.2 7.5 1.3 24.9-1.7 34.5-4.5 14.4-13.3 28-24.1 37.4-2.6 2.2-14.9 10.9-27.5 19.2-12.6 8.4-28.6 18.9-35.5 23.5-6.9 4.6-13.1 8.4-13.7 8.4-1 0-35.1-22.1-65.9-42.8-13.8-9.2-23.6-19.8-30.1-32.7-5.9-11.9-7.7-19.6-7.7-34 0-12.8.1-13.1 3.4-20 4.9-10 11.8-16.3 24.4-22.5 15.1-7.3 26.7-8.7 41.1-5zM293 618.6c-45.7 14.1-68.9 33.7-69 58.2 0 18.9 12 33.5 38.5 46.7 25.2 12.5 54.3 19.8 98 24.7 14.2 1.5 64.8 1.5 79 0 43.8-4.9 73-12.2 98-24.7 26.4-13.2 38.5-27.8 38.5-46.4 0-23.5-21.7-42.9-63.5-56.7-17.1-5.7-22.2-6.1-26.5-1.9-3.9 3.8-5.3 8.6-3.7 13.2 1.7 5 4.6 6.8 16.7 10.4 27.8 8.2 48.4 20.6 52 31.4 6 18.1-36.5 39.5-95 47.9-26.8 3.8-72 4.6-99.5 1.6-59.3-6.4-108-27.1-108-45.9 0-12.4 25.3-28.2 59.1-37 8.9-2.3 12.9-9.3 9.9-16.8-3.5-8.5-8.9-9.5-24.5-4.7z"/></g></svg>