<svg version="1.0" xmlns="http://www.w3.org/2000/svg" width="90.667" height="90.667" viewBox="0 0 68 68"><g fill="#fff"><path d="M34 1.9c0 2.6 1.6 3.5 2.4 1.5 1-2.5.7-3.4-.9-3.4-.8 0-1.5.9-1.5 1.9zm21.1 4.8c-2.2 2.7-3.6 5-3.1 5.1 1.3.5 8.8-5.9 8.9-7.5.2-2.9-2-2-5.8 2.4zM9 3.8c0 1.4 7.8 8.4 9 8 1.4-.4-5.7-8.8-7.6-8.8-.8 0-1.4.4-1.4.8zm20.6 6.4c-5.6 1.5-11.1 7.4-12.5 13.5-1.6 6.4-.3 11.6 4.7 19.8 2 3.3 4.1 8.5 4.8 11.5l1.1 5.5 7.5.3 7.5.3 1.2-5.8c.6-3.3 2.9-8.6 5.3-12.6 5.3-8.7 6.2-16 3-22.4-2.6-5-7.1-8.9-12-10.3-4.3-1.2-5.4-1.1-10.6.2zm14 4.8c3.6 2.3 7.4 9.1 7.4 13.6 0 1.6-2.2 7.4-4.9 12.9-2.8 5.5-5.3 11.2-5.6 12.7-.5 2.6-.9 2.8-5.4 2.8-4.8 0-4.8 0-5.5-3.7-.3-2.1-2.4-7-4.7-10.8-7.2-12-6.3-22.2 2.3-27.5 4.4-2.7 12-2.7 16.4 0z"/><path d="M27.1 26.4c-1.5 1.8 0 5 2.9 6.6 1.7.9 2 2.2 2.1 7.3 0 3.4.4 8.2.9 10.7.5 2.9.6.6.2-6.3L32.7 34h5.2l-.4 10.2-.4 10.3 1-10.5c.5-5.8 1.4-10.7 1.9-10.8 3.7-1.3 5.3-6.5 2.4-7.6-2.4-.9-4.4 1.2-4.4 4.5 0 2.4-.4 2.9-2.5 2.9-1.9 0-2.6-.7-3.1-2.8-1-4.6-1.3-5.2-2.7-5.2-.8 0-2 .6-2.6 1.4zm4 2.9c.5 2 .4 2.7-.7 2.7-1.6 0-3.3-3-2.7-4.8.8-2 2.6-.9 3.4 2.1zm11.5-1.8c.6 1.6-1.2 4.5-2.7 4.5-1 0-1.2-4.4-.2-5.3 1.1-1.1 2.3-.8 2.9.8zM0 28.5C0 29.7 1.3 30 6 30c7.1 0 8-1.5 1.4-2.4-6.6-.9-7.4-.8-7.4.9zm61.8-.8c-4.5.7-3.2 2.3 1.7 2.3 3.3 0 4.5-.4 4.5-1.5 0-1.5-.9-1.6-6.2-.8zM13.1 49.1c-3.4 3.1-4.2 4.2-3.2 5.2.9.9 2 .1 5.1-3.3 6.3-7.2 5.1-8.3-1.9-1.9zM51 45.5c0 1 8.2 9.5 9.1 9.5 2.1 0 .6-3-3.1-6.4-3.6-3.3-6-4.5-6-3.1zM27.9 63.2c-.1.2-.3 1.3-.4 2.6-.2 2.1.1 2.2 7.7 2.2 7.7 0 7.9-.1 7.6-2.3-.3-2-.9-2.2-7.5-2.5-4-.2-7.4-.2-7.4 0z"/></g></svg>