<svg version="1.0" xmlns="http://www.w3.org/2000/svg" width="538.667" height="354.667" viewBox="0 0 404 266"><g fill="#0a51a1"><path d="M285 .7C242 5.2 187.1 31 140.5 68.4c-19.6 15.8-52.6 49.9-50.4 52.1.6.6 4.1-2.5 10.2-9C141 67.8 201.1 32.1 255.5 19.4c14.4-3.4 37.4-4.4 48.2-2.1 25.5 5.5 34.5 21.9 28.3 51.7-2.3 11.5-6.9 24.5-13.6 38.9-4.5 9.5-5.3 12.6-3.3 11.9 1.9-.6 15.4-25.2 20.3-36.6 8.2-19.5 10-26.9 10-41.7.1-12-.1-13.4-2.6-18.7C335 6 313.3-2.3 285 .7zm27.5 3.8c31.2 6.6 38.6 30.5 22.3 72.8-1.6 4.3-3.1 7.7-3.3 7.5-.2-.2.7-4.5 2.1-9.7 8.5-33 .1-52.5-25.7-59.7-3-.8-11-1.8-17.9-2.1-20.5-.9-44.9 4.2-73 15.4-18.3 7.3-43.7 20.6-60.2 31.7-1.6 1-2.8 1.6-2.8 1.3 0-1 27.1-18.8 38.5-25.2 29.1-16.6 63.6-29.3 87.4-32.4 10.6-1.4 25-1.2 32.6.4zM0 100.5v8.4l11.3.3 11.2.3.3 27.2.2 27.3h22v-55h23V92H0v8.5z"/><path d="M123 128v36h22v-55h35V92h-57v36zm98-27.5v8.5h23v55h22v-55h23V92h-68v8.5zm117-7.7c0 .4 5.2 12 11.5 25.6 6.3 13.7 11.5 25.4 11.5 26.2 0 .7-1.2 2.2-2.7 3.4-2.3 1.8-3.8 2.1-8.5 1.8l-5.8-.3v14.2l3.8.7c5.8.9 15.4.6 18.9-.7 4.4-1.7 7.9-4.9 10.4-9.9C380 148.2 403 94 403 92.9c0-.5-4.9-.9-10.9-.9h-10.9l-4.9 14.7-4.9 14.6-5-14.4-5.1-14.4-11.6-.3c-6.5-.1-11.7.1-11.7.6zM78.3 126.2c-1.2.6-2.7 2.4-3.4 4.1-1.5 3.6.1 7.3 4.2 9.6 2.2 1.2 3.1 1.2 5.7.2 6.1-2.5 6.5-11.3.6-14-3-1.3-4.2-1.3-7.1.1zm227.3.9c-5.9 4.7-1.5 14.9 5.9 13.5 6.3-1.3 8.6-8.6 4-13.1-3-3-6.4-3.2-9.9-.4z"/><path d="M293.9 152.1c-29.1 31.8-76.1 64-118.8 81.3-26.7 10.9-45.6 15.5-66.1 16.3-23.9.9-36.1-2.4-45.1-12.5-5.9-6.6-7.9-12.7-7.9-24.7 0-14.6 5-32 16.4-56.9 2.2-4.7 3.3-8.3 2.7-8.9-2.1-2.1-20.2 32.5-26.1 50.1-12.9 38.6-3.2 61.3 29 67.8 26.1 5.2 67.3-4.8 111-27.2 39.8-20.4 76.6-48.7 105.7-81.4 8.6-9.7 10.7-13 8.4-13-.5 0-4.6 4.1-9.2 9.1zM55.8 191.6c-1.8 6.4-2.3 10.4-2.3 20.9 0 12 .2 13.4 2.6 18.5 5.1 10.6 14.9 17.4 30 20.6 9.7 2.1 32.6 1.3 45.4-1.5 32.4-7.1 68.5-22.7 100.9-43.5 3.2-2.1 5.6-3.4 5.3-2.8-.4.5-6.4 4.8-13.4 9.5-44.4 29.6-91.3 48-125.8 49.5-15.2.6-24.5-.9-33.5-5.4-7.8-4-12.2-8.4-15.9-16.4-2.3-4.9-2.6-6.7-2.5-16 0-7.7.6-12.6 2.2-18.3 2.6-9.2 8.2-24 8.8-23.4.3.2-.6 4-1.8 8.3z"/></g></svg>