<svg version="1.0" xmlns="http://www.w3.org/2000/svg" width="641.333" height="264" viewBox="0 0 481 198"><g fill="#2f2c71"><path d="M134.5.6C95.6 6.3 68.6 31.8 57.9 72.7c-2 7.6-2.3 11.1-2.3 25.3.1 14.4.4 17.7 2.7 26.2 9.8 36.7 35.6 62.5 69.6 69.4 11.6 2.3 28.5 1.5 39.7-1.8 8-2.4 8.2-2.4 13.2-.7 8.7 3 19.5 4.2 31 3.6 13.4-.7 20-2.5 32.7-8.7 11.5-5.6 20.4-12.4 27.8-21.5 5.5-6.7 12.7-18.1 12.7-20.2 0-.9-2.1-1.3-7.7-1.3h-7.8l-4.9 6.6c-9.4 12.8-26.3 23.8-41.1 26.9-32.7 6.9-67.1-11.9-80.4-43.8-4.9-12-6.4-21.7-5.9-39.1.4-12.9.9-16.4 3.2-23.6 3.4-10.4 7.2-17.4 14.2-26.1C167.3 28 189.8 17 209.5 17c13.6 0 29.5 5.6 41.2 14.4 5.7 4.3 15.8 15.2 17 18.3.5 1.4 17.3 1.9 17.3.6 0-1.6-8.3-14.3-12.7-19.4-12.3-14.2-24.6-22.3-42-27.5C222.6 1 219.8.7 207.5.7c-11.5 0-15.4.4-22 2.3-9.7 2.7-9.2 2.7-19 .1-7.8-2.1-25.4-3.5-32-2.5zm10.3 26.3c-11.4 12.3-19.6 27.6-24.4 45.6-1.5 5.6-1.9 10.6-1.9 25 0 15.7.3 19.1 2.3 26.4 4.9 17.8 13 32.6 24.5 44.8l7 7.3h-9.5c-26.2 0-48.2-14.4-60.3-39.5-5.7-11.8-7.5-19.4-8.2-34-.9-18.7 2.6-35.1 10.4-48.5 5.5-9.4 20.1-23.7 28.5-27.8 9.5-4.7 19.7-7.1 30.1-7.1l8.9-.1-7.4 7.9zM30.4 11.1C25.2 22.1 13.8 30 3.4 30H0v9c0 6.5.3 9 1.3 9 3.7-.1 15-3.2 19.7-5.4 3-1.4 5.5-2.6 5.7-2.6.2 0 .3 35.5.3 79v79h21V5H33.4l-3 6.1z"/><path d="M161 46.3l-2.5 1.3-.3 49c-.2 39.6 0 49.4 1.1 50.2.9.8 16.5 1.2 50.2 1.2 45.8.2 49 .1 50.2-1.6 2-2.7 1.9-96.2-.1-99-1.4-1.8-3.2-1.9-48.8-2.2-36.9-.1-47.9.1-49.8 1.1zm94 6.6c1.4 2.7 1.4 85.5 0 88.2-1 1.8-2.6 1.9-45.9 1.9-40 0-45-.2-45.5-1.6-.8-2-.8-86.8 0-88.8.5-1.4 5.5-1.6 45.5-1.6 43.3 0 44.9.1 45.9 1.9z"/><path d="M200.3 58c-2.4 1-4.3 2.6-4.3 3.5 0 .8-.5 1.5-1 1.5-.6 0-2.1 1.1-3.3 2.4-2.5 2.7-14.4 6.6-20 6.6-2.3 0-3.7.6-4.1 1.6-1.3 3.3-.7 4 3.4 3.6 3.2-.3 4-.1 4 1.2 0 1.2-1 1.6-4 1.6-2.2 0-4 .3-4 .7 0 .5 5.4.7 12 .5l12-.3V132h-24v5.7l21.4.7c11.7.4 30.8.4 42.5 0l21.1-.7v-31.3c0-17.2-.3-31.9-.6-32.8-.4-1-1.8-1.6-3.8-1.6-4.9.1-19.6-4.3-19.6-5.8 0-.7-1.2-1.7-2.6-2.2-1.4-.6-2.8-1.9-3.1-2.9-1.2-4.7-14.5-6.6-22-3.1zm22 5.8l4.7 2.1V123h-35V65.4l5.8-2.2c7.3-2.8 17.5-2.5 24.5.6zm28.7 42.7V132h-23V81h23v25.5z"/><path d="M236.7 97.4c-1.5 1.2-1.7 2.8-1.5 12.2l.3 10.9h8l.3-10.4c.2-8.6 0-10.7-1.4-12.2-2-2.2-3.3-2.3-5.7-.5zm48.9 57.8c-.3 1.3-.6 7.3-.6 13.5 0 12-.4 14.3-2.6 14.3-.8 0-1.4 1-1.4 2.5 0 2.1.5 2.5 3 2.5 4.7 0 5.8-2.8 6.6-17.3.7-12.5.7-12.7 3-12.7h2.4v30h6v-35h-7.9c-7.3 0-7.9.2-8.5 2.2zm25.4 15.3V188h7.5c7.3 0 7.5-.1 7.5-2.5 0-2.3-.3-2.5-5-2.5h-5v-10h4c3.6 0 4-.3 4-2.4s-.5-2.5-3.7-2.8c-3.8-.3-3.8-.3-4.1-5.1l-.3-4.7h5c4.8 0 5.1-.2 5.1-2.5 0-2.4-.2-2.5-7.5-2.5H311v17.5zm22-15c0 2.1.5 2.5 3 2.5h3v30h5v-30h3c2.5 0 3-.4 3-2.5 0-2.5-.1-2.5-8.5-2.5s-8.5 0-8.5 2.5z"/></g></svg>