<?xml version="1.0" standalone="no"?>
<!DOCTYPE svg PUBLIC "-//W3C//DTD SVG 20010904//EN"
 "http://www.w3.org/TR/2001/REC-SVG-20010904/DTD/svg10.dtd">
<svg version="1.0" xmlns="http://www.w3.org/2000/svg"
 width="202.000000pt" height="251.000000pt" viewBox="0 0 202.000000 251.000000"
 preserveAspectRatio="xMidYMid meet">
<metadata>
Created by potrace 1.16, written by Peter Selinger 2001-2019
</metadata>
<g transform="translate(0.000000,251.000000) scale(0.100000,-0.100000)"
fill="#fff" stroke="none">
<path d="M980 2454 c-6 -15 -20 -34 -31 -41 -15 -11 -17 -18 -9 -34 6 -10 17
-19 25 -19 8 0 15 -7 15 -15 0 -17 -38 -217 -42 -221 -2 -1 -23 23 -48 53 -25
31 -67 72 -94 91 l-49 36 8 -29 c10 -39 33 -189 29 -194 -2 -2 -25 16 -51 39
-27 23 -73 55 -102 72 l-53 31 36 -72 c41 -81 78 -171 71 -171 -3 0 -20 16
-37 35 -17 20 -50 47 -74 61 -51 30 -170 69 -156 51 48 -59 111 -151 108 -155
-3 -2 -18 5 -34 17 -37 26 -57 26 -147 2 -148 -39 -185 -69 -146 -122 l21 -28
-55 -31 c-112 -64 -112 -110 1 -262 39 -54 44 -66 44 -114 l0 -54 -58 0 -59 0
-19 -62 c-26 -86 -23 -129 16 -228 31 -78 33 -94 34 -200 1 -63 -3 -198 -8
-300 -10 -215 -6 -236 57 -302 72 -74 235 -208 272 -223 74 -32 135 -12 162
52 13 33 16 35 51 28 20 -4 78 -20 128 -36 94 -30 161 -37 195 -19 14 8 19 23
21 53 l1 42 4 -39 c3 -22 12 -46 21 -53 28 -21 107 -15 204 16 51 17 109 33
129 36 33 6 37 5 43 -20 11 -44 50 -75 94 -75 72 0 151 55 331 230 82 80 86
97 71 339 -18 281 -12 386 28 484 37 91 39 131 11 215 l-21 62 -60 0 -60 0 4
54 c3 39 13 66 34 96 104 148 117 195 67 242 -16 14 -42 33 -60 42 -42 21 -48
33 -29 55 37 41 2 79 -99 110 -129 40 -162 39 -214 -5 -47 -39 -37 -14 30 77
l61 82 -33 -7 c-61 -12 -144 -57 -193 -104 -59 -57 -57 -44 12 100 l47 96 -30
-15 c-44 -23 -116 -72 -147 -101 -16 -14 -28 -21 -28 -15 0 19 30 180 37 198
17 45 -122 -75 -169 -145 -20 -31 -21 -29 -46 105 l-20 100 24 18 c28 22 31
42 8 55 -8 5 -21 19 -27 32 -17 34 -35 36 -47 4z m115 -533 l18 -63 34 70 c36
77 111 166 179 213 23 16 45 29 48 29 2 0 -8 -28 -24 -62 -32 -73 -70 -191
-70 -221 0 -14 12 -1 35 39 19 32 53 75 75 95 40 36 124 83 140 77 4 -2 -18
-43 -51 -92 -32 -48 -69 -115 -81 -147 -16 -41 -27 -58 -37 -54 -104 40 -451
52 -616 22 -49 -9 -95 -17 -102 -17 -6 0 -29 37 -51 83 -22 46 -61 111 -86
145 -51 69 -45 77 32 38 60 -31 123 -95 161 -166 17 -30 31 -50 31 -44 0 29
-42 168 -69 229 -17 37 -30 70 -28 71 2 2 26 -12 54 -31 69 -46 129 -117 166
-197 18 -37 35 -68 39 -68 8 0 60 217 82 345 9 50 19 101 22 115 5 17 19 -35
44 -160 21 -102 45 -214 55 -249z m-194 212 c20 -32 20 -35 4 -108 -9 -41 -18
-75 -20 -75 -1 0 -20 28 -41 63 -31 49 -42 79 -51 142 -7 44 -12 87 -13 95 0
18 94 -73 121 -117z m324 95 c-3 -13 -9 -53 -14 -89 -7 -50 -18 -80 -49 -128
l-41 -62 -10 38 c-26 96 -25 121 4 160 29 40 95 103 108 103 4 0 5 -10 2 -22z
m21 -414 c122 -21 125 -22 109 -60 l-13 -32 -49 11 c-62 14 -523 14 -586 0
-47 -10 -49 -10 -58 15 -5 14 -8 31 -5 38 4 11 166 39 276 48 70 5 237 -5 326
-20z m-975 -40 c41 -19 63 -33 49 -30 -14 3 -31 1 -39 -3 -20 -12 -2 -54 65
-152 l52 -75 -8 -80 c-5 -43 -16 -96 -25 -118 -9 -21 -14 -40 -12 -43 3 -2 14
20 26 49 11 29 20 44 20 33 0 -24 -48 -117 -49 -95 0 11 -4 10 -17 -5 -17 -22
-17 -20 23 74 38 94 32 148 -28 232 -56 80 -88 141 -88 172 0 17 -10 28 -35
40 -34 16 -36 16 -55 -3 -31 -31 -24 -63 34 -149 60 -87 76 -131 76 -203 0
-47 1 -48 30 -48 40 0 46 -19 26 -83 -15 -48 -15 -35 -2 38 4 17 -2 8 -13 -20
-10 -27 -16 -54 -13 -59 3 -5 0 -6 -6 -2 -7 4 -6 20 5 52 8 25 12 48 9 51 -12
12 -30 -16 -37 -59 -8 -40 -8 -39 -4 11 5 58 -2 62 -16 9 l-8 -33 5 35 c3 19
7 67 9 105 l3 70 -7 -60 -6 -60 -5 65 c-6 68 -20 99 -95 204 -48 66 -47 104 2
139 l36 26 48 -25 c27 -13 54 -24 61 -24 7 1 -12 14 -42 30 -77 41 -58 37 31
-6z m1543 24 c-5 -8 -2 -9 9 -5 27 10 19 -1 -12 -17 -21 -11 -31 -27 -40 -60
-6 -25 -39 -86 -73 -137 -59 -87 -63 -96 -62 -148 0 -39 9 -75 28 -118 33 -73
52 -84 29 -18 -18 54 -9 71 42 77 19 2 33 2 30 0 -2 -2 3 -19 11 -37 22 -53
17 -123 -16 -229 -16 -53 -34 -129 -39 -168 l-10 -73 4 70 c3 39 18 116 35
170 31 104 37 174 20 221 -16 41 -19 25 -8 -36 10 -51 7 -67 -27 -190 -36
-128 -37 -140 -33 -245 4 -72 3 -93 -2 -60 -17 106 -11 177 26 310 35 125 39
175 17 231 -10 26 -25 15 -20 -13 3 -16 8 -41 12 -58 4 -22 2 -20 -9 10 -9 22
-16 48 -16 58 0 9 -4 17 -10 17 -13 0 -13 -7 6 -59 16 -48 14 -57 -13 -46 -10
5 -22 7 -26 6 -9 -2 -57 98 -57 119 0 8 11 -11 24 -43 21 -50 50 -100 33 -57
-45 116 -52 173 -32 235 4 14 2 12 -9 -5 -10 -17 -15 -20 -16 -9 0 9 22 47 48
85 63 89 85 132 79 154 -3 13 6 23 34 36 22 9 38 19 36 21 -2 2 -29 -8 -61
-22 -80 -35 -83 -30 -6 10 70 37 85 41 74 23z m-1297 -43 l67 -44 -90 -3 -89
-3 -5 -73 -5 -73 -36 48 c-20 27 -44 63 -53 81 -16 31 -16 32 6 32 13 0 46 18
73 40 28 21 54 39 58 39 4 1 38 -19 74 -44z m1110 5 c31 -22 65 -40 75 -40 10
0 18 -2 18 -5 0 -13 -31 -63 -69 -114 l-40 -53 -3 78 -3 79 -88 3 -88 3 63 43
c35 24 67 44 71 45 5 0 34 -17 64 -39z m-37 -670 c0 -643 0 -643 -49 -670 -12
-6 -100 -10 -213 -10 -205 0 -252 -7 -295 -44 l-28 -24 -28 24 c-44 37 -90 44
-300 44 l-199 0 -29 29 -29 29 0 611 0 611 585 0 585 0 0 -600z m107 134 c41
-8 41 -9 -1 -149 -31 -100 -31 -120 -1 -425 21 -211 18 -219 -80 -293 -33 -24
-71 -56 -84 -71 -29 -31 -41 -33 -41 -5 0 55 -51 85 -129 76 -27 -3 -90 -22
-141 -41 -51 -20 -96 -36 -101 -36 -5 0 -9 13 -9 29 0 22 -4 28 -17 26 -10 -2
-30 -6 -45 -9 -15 -4 -30 -15 -33 -27 -7 -21 -7 -21 -19 2 -8 16 -23 26 -50
30 -40 6 -54 -6 -42 -36 9 -23 -16 -18 -111 22 -71 30 -101 37 -154 37 -75 1
-103 -15 -114 -65 l-6 -28 -99 79 c-54 44 -101 87 -104 96 -10 27 -7 142 9
279 23 204 20 279 -15 388 -36 112 -36 117 -10 117 28 0 77 26 89 47 7 13 10
-105 11 -382 0 -529 -21 -495 304 -495 108 0 207 -5 222 -10 14 -6 39 -24 55
-41 27 -29 28 -30 39 -9 6 12 26 30 43 40 29 18 52 20 237 20 232 0 261 7 292
70 16 32 18 74 18 433 l0 399 26 -31 c15 -19 39 -33 61 -37z m-1390 -811 c7
-11 36 -38 65 -59 29 -21 73 -57 98 -79 43 -39 48 -41 98 -37 28 2 52 9 52 14
0 7 -16 8 -42 5 -29 -4 -37 -3 -23 3 11 5 33 9 49 9 26 1 28 -1 23 -28 -6 -27
-4 -29 31 -36 20 -4 83 -22 139 -41 119 -40 132 -41 167 -13 14 11 26 16 26
10 0 -12 -52 -41 -74 -41 -8 0 -72 18 -142 40 -70 23 -135 39 -143 37 -19 -5
-25 -2 124 -47 127 -39 183 -47 216 -30 23 11 23 10 5 -4 -30 -24 -81 -19
-201 20 -72 23 -129 35 -164 35 -66 0 -97 15 -181 88 -36 32 -80 68 -98 82
-38 28 -72 78 -71 105 0 11 5 6 10 -12 5 -17 16 -37 24 -44 19 -16 19 -1 0 24
-11 15 -15 45 -13 120 l2 101 5 -100 c3 -55 12 -110 18 -122z m1443 15 c-7
-26 -28 -52 -68 -85 -31 -26 -82 -70 -112 -97 -67 -60 -102 -75 -166 -74 -31
1 -89 -12 -161 -36 -108 -35 -163 -43 -197 -30 -9 3 -16 10 -16 15 0 6 8 5 19
-1 33 -17 77 -12 189 24 59 19 121 37 137 42 26 7 27 8 8 11 -12 2 -76 -14
-142 -36 -139 -47 -160 -49 -192 -20 l-24 21 25 -16 c35 -23 53 -21 188 24 66
22 127 40 136 40 12 0 16 8 14 28 -3 23 1 27 22 28 22 1 22 0 3 -3 -40 -8 -24
-23 25 -25 l47 -1 -45 -7 c-35 -5 -41 -8 -27 -14 14 -7 16 -11 6 -17 -10 -6
-10 -9 4 -15 25 -9 76 15 127 61 25 22 71 63 104 90 84 70 96 93 98 195 l2 85
4 -75 c2 -41 -2 -92 -8 -112z"/>
<path d="M913 1302 c-59 -21 -112 -59 -143 -101 -44 -63 -50 -101 -50 -337 l0
-223 -60 -41 c-60 -41 -60 -41 -60 -90 l0 -50 415 0 415 0 0 53 0 52 -54 35
-54 34 -4 236 c-3 232 -3 236 -30 285 -14 28 -41 64 -60 82 -75 73 -214 101
-315 65z m177 -3 c45 -10 49 -13 34 -23 -15 -11 -13 -12 13 -9 36 6 104 -44
81 -58 -9 -6 -7 -9 9 -9 17 0 29 -13 48 -50 17 -34 21 -50 13 -51 -10 0 -10
-2 0 -6 6 -2 12 -13 12 -22 0 -13 -12 -21 -42 -28 -27 -7 -34 -11 -20 -12 38
-2 20 -24 -29 -37 -29 -8 -35 -12 -19 -12 14 0 34 3 45 7 11 5 25 4 32 -1 9
-7 11 -4 8 11 -2 12 -7 26 -10 31 -3 6 1 10 10 10 11 0 15 -5 11 -15 -3 -8 -1
-15 4 -15 6 0 10 -8 10 -19 0 -11 -12 -22 -32 -29 -18 -7 -23 -10 -10 -8 12 2
22 -1 22 -7 0 -7 5 -5 10 3 8 13 10 12 10 -2 0 -10 -6 -18 -12 -18 -9 0 -9 -3
1 -9 20 -13 -1 -38 -43 -50 -25 -7 -26 -9 -8 -10 23 -1 30 -26 10 -35 -7 -3 4
-3 26 1 30 4 38 3 34 -8 -3 -8 -12 -13 -21 -13 -9 1 -14 -2 -11 -7 3 -5 -2 -9
-11 -9 -13 0 -14 -2 -3 -14 11 -12 13 -12 16 1 4 17 24 13 30 -7 3 -7 0 -10
-6 -6 -6 3 -12 2 -14 -3 -1 -4 -30 -15 -63 -24 -33 -9 -50 -16 -38 -16 12 -1
33 3 47 8 18 7 28 6 36 -4 13 -16 13 -16 -50 -34 l-35 -10 45 2 c25 1 48 7 52
12 5 6 8 5 8 -3 0 -7 5 -10 10 -7 6 3 10 2 10 -3 0 -5 -14 -12 -32 -16 -29 -6
-30 -7 -13 -20 20 -15 9 -27 -21 -21 -10 2 -21 4 -24 4 -3 1 2 6 10 12 11 8 7
9 -19 5 -18 -3 -40 -6 -48 -6 -8 0 -12 -4 -8 -10 3 -5 12 -7 20 -3 10 3 15 -1
15 -13 0 -14 -2 -16 -9 -6 -10 17 -22 17 -32 1 -10 -18 -36 -20 -36 -3 0 8 5
14 11 14 7 0 7 3 0 8 -7 4 -14 23 -15 42 -4 32 -1 35 26 41 l30 7 -31 1 c-17
0 -37 8 -44 16 -11 13 -8 15 20 15 19 0 31 3 28 6 -4 3 -69 7 -145 9 -139 3
-149 2 -80 -10 39 -6 41 -20 3 -35 -17 -7 -17 -9 -3 -9 20 -1 23 -31 2 -31 -7
0 -37 5 -65 11 -28 6 -54 9 -56 6 -3 -3 26 -11 65 -18 70 -12 70 -12 69 -44
-1 -19 -6 -32 -15 -32 -7 0 -13 5 -13 11 0 6 -4 5 -9 -3 -8 -12 -13 -12 -24
-3 -8 7 -22 10 -31 6 -9 -3 -16 -1 -16 5 0 6 -5 10 -11 9 -6 -2 -14 3 -16 9
-3 9 5 11 29 8 l33 -5 -35 11 c-72 23 -90 32 -90 46 0 11 7 14 28 9 l27 -5
-25 11 c-36 17 -37 18 -17 33 15 11 16 13 2 19 -8 3 -15 12 -15 20 0 13 6 13
51 0 28 -8 56 -13 62 -11 7 2 -14 10 -46 17 -32 7 -60 17 -63 22 -13 21 11 23
78 5 111 -30 418 -28 418 3 0 5 -15 4 -32 -1 -60 -17 -202 -22 -286 -10 -111
16 -182 38 -182 56 0 19 5 19 66 0 76 -23 231 -37 304 -27 60 8 56 9 -55 9
-84 0 -148 7 -214 22 -52 11 -96 22 -98 24 -2 2 -1 11 3 20 4 12 11 14 23 8 9
-6 57 -17 107 -26 96 -19 281 -16 339 4 l30 11 -30 -5 c-81 -13 -237 -17 -300
-7 -102 17 -175 40 -175 57 0 18 3 18 64 0 27 -8 56 -15 65 -14 9 0 -15 9 -54
20 -78 22 -83 25 -69 39 6 6 29 4 64 -5 30 -8 64 -15 75 -14 11 0 -13 9 -53
19 -40 11 -77 22 -82 25 -16 10 -11 25 7 25 15 0 15 1 1 13 -22 17 -5 79 20
71 14 -5 15 -4 2 5 -11 7 -12 13 -4 21 8 8 26 7 65 -3 30 -8 97 -17 149 -20
l95 -6 -110 14 c-112 14 -185 31 -185 42 0 13 44 53 57 53 8 0 12 4 9 9 -7 11
17 21 57 22 30 1 31 1 7 8 -23 7 -21 9 20 18 61 15 100 15 160 2z m-302 -688
c139 -47 314 -48 462 -2 l58 18 48 -31 48 -31 -192 -3 c-106 -1 -279 -1 -385
0 l-192 3 45 32 c25 18 46 32 48 33 1 0 28 -9 60 -19z m630 -98 l-3 -38 -397
-3 -398 -2 0 40 0 40 401 0 400 0 -3 -37z"/>
<path d="M971 1103 c-14 -3 -20 -8 -13 -12 6 -3 7 -12 3 -19 -6 -10 -24 -9
-87 3 -43 8 -83 15 -89 14 -17 -1 47 -18 112 -30 39 -7 64 -17 67 -26 6 -13
-1 -15 -45 -9 -29 4 -66 10 -83 13 -17 3 -28 3 -25 -1 13 -14 200 -34 273 -29
42 3 76 9 76 12 0 3 -20 5 -45 3 -38 -3 -44 -1 -39 12 3 9 24 18 52 21 26 4
61 11 77 16 24 7 21 7 -15 3 -25 -3 -59 -8 -76 -11 -23 -3 -33 0 -37 11 -5 12
0 16 16 17 12 1 4 5 -18 10 -43 8 -66 9 -104 2z"/>
</g>
</svg>
