<?xml version="1.0" standalone="no"?>
<!DOCTYPE svg PUBLIC "-//W3C//DTD SVG 20010904//EN"
 "http://www.w3.org/TR/2001/REC-SVG-20010904/DTD/svg10.dtd">
<svg version="1.0" xmlns="http://www.w3.org/2000/svg"
 width="1592.000000pt" height="1469.000000pt" viewBox="0 0 1592.000000 1469.000000"
 preserveAspectRatio="xMidYMid meet">

<g transform="translate(0.000000,1469.000000) scale(0.100000,-0.100000)"
fill="#fff" stroke="none">
<path d="M7924 13381 c-22 -10 -54 -36 -70 -57 -29 -37 -46 -64 -142 -226 -22
-37 -64 -123 -95 -190 -360 -804 -320 -1491 114 -1930 l79 -80 0 -595 0 -596
-27 36 c-16 20 -57 75 -93 123 -78 105 -247 287 -379 407 -478 437 -1154 772
-1943 961 -261 63 -459 99 -550 100 -82 1 -88 0 -124 -30 -59 -47 -71 -82 -89
-249 -30 -288 -16 -774 31 -1100 111 -767 419 -1430 888 -1914 341 -350 758
-607 1260 -776 310 -105 531 -152 984 -211 l42 -5 0 -1210 0 -1209 -700 0
-701 0 35 63 c52 93 95 207 124 331 24 102 26 129 26 331 0 232 -8 300 -59
505 -69 274 -212 606 -358 831 -81 124 -117 152 -202 152 -57 0 -98 -18 -136
-60 -65 -70 -286 -489 -377 -713 -202 -502 -235 -926 -98 -1265 20 -49 47
-106 61 -127 14 -21 25 -40 25 -43 0 -3 -358 -5 -795 -5 l-794 0 55 76 c154
215 257 484 299 785 19 136 22 418 5 569 -32 297 -115 626 -237 940 -105 271
-373 769 -459 855 -44 44 -105 59 -173 41 -68 -17 -90 -40 -165 -166 -593
-991 -827 -1834 -686 -2475 18 -86 71 -236 112 -323 41 -87 131 -226 176 -275
l26 -27 -925 0 c-574 0 -937 -4 -959 -10 -40 -11 -104 -71 -119 -113 -37 -98
26 -219 127 -246 52 -14 14073 -14 14125 0 51 14 111 69 127 118 27 83 -9 182
-82 226 -32 20 -57 20 -970 23 -516 1 -938 5 -938 7 0 3 20 31 44 62 431 569
391 1404 -116 2453 -135 281 -352 662 -402 709 -64 60 -188 58 -250 -4 -87
-87 -353 -582 -459 -855 -354 -911 -330 -1740 67 -2294 l55 -76 -794 0 c-437
0 -795 2 -795 6 0 3 11 22 25 42 36 53 101 223 120 317 22 109 30 309 16 425
-27 222 -94 468 -191 695 -94 221 -302 609 -358 668 -71 75 -177 83 -253 20
-79 -67 -255 -392 -351 -648 -117 -313 -164 -571 -155 -850 8 -244 45 -400
138 -582 l47 -93 -699 0 -699 0 0 1584 0 1584 98 6 c565 36 986 112 1412 255
563 189 1010 469 1378 864 426 457 695 1028 793 1682 26 172 36 418 20 468
-15 45 -54 93 -90 111 -43 23 -228 28 -537 17 -332 -13 -475 -23 -729 -52
-650 -74 -1209 -226 -1657 -450 -245 -122 -407 -232 -605 -407 l-83 -73 0 328
1 328 62 40 c84 54 215 185 269 270 294 463 211 1107 -247 1929 -98 175 -132
224 -173 251 -51 33 -124 40 -178 16z m149 -698 c257 -536 312 -956 162 -1241
-41 -79 -106 -156 -165 -197 l-43 -30 -56 62 c-256 280 -290 740 -92 1266 47
125 114 277 122 277 3 0 35 -62 72 -137z m-2977 -1773 c374 -75 799 -214 1127
-369 775 -366 1333 -941 1548 -1594 39 -116 39 -120 39 -272 l0 -155 -57 21
c-204 72 -564 282 -798 464 -234 182 -565 494 -718 677 -53 62 -102 88 -169
88 -120 0 -211 -119 -178 -234 14 -52 102 -157 296 -352 493 -497 1021 -855
1501 -1017 l123 -42 0 -347 c0 -280 -3 -348 -13 -348 -29 0 -299 40 -402 60
-526 101 -997 308 -1367 602 -570 453 -930 1164 -1033 2043 -35 301 -41 795
-10 795 7 0 57 -9 111 -20z m6418 -127 c-83 -695 -351 -1259 -807 -1700 -202
-194 -360 -309 -620 -450 -465 -250 -1108 -414 -1764 -449 l-133 -7 0 214 0
214 133 34 c462 118 921 317 1282 556 265 176 527 420 665 619 8 12 27 37 42
56 52 68 59 160 18 227 -51 85 -177 114 -257 61 -21 -14 -52 -45 -68 -69 -77
-113 -157 -204 -306 -344 -230 -218 -597 -433 -1001 -588 -142 -55 -463 -157
-493 -157 -13 0 -15 42 -15 284 l0 284 36 69 c76 143 223 315 379 443 501 410
1310 662 2340 730 223 14 240 15 417 18 l158 3 -6 -48z m-8036 -3595 c136
-277 235 -541 297 -788 44 -178 52 -221 70 -375 41 -353 -5 -663 -136 -928
-67 -136 -138 -235 -245 -346 l-92 -94 -48 28 c-27 16 -81 55 -120 87 -475
391 -486 1149 -32 2132 86 187 219 437 229 431 4 -3 39 -69 77 -147z m9219
-18 c498 -938 598 -1731 280 -2200 -74 -109 -196 -224 -301 -285 l-48 -28 -88
90 c-222 228 -340 480 -386 823 -54 409 63 964 321 1519 35 75 78 162 96 194
l31 58 17 -28 c10 -15 45 -80 78 -143z m-6630 -1104 c121 -302 177 -597 153
-819 -18 -172 -60 -300 -142 -427 -48 -74 -116 -150 -135 -150 -27 0 -168 151
-200 215 -57 112 -75 188 -80 337 -10 267 60 535 239 908 l70 145 25 -49 c14
-28 45 -100 70 -160z m4007 116 c168 -334 253 -616 263 -872 10 -260 -42 -417
-186 -561 -43 -43 -85 -79 -94 -79 -35 0 -146 152 -202 275 -124 272 -103 648
58 1071 37 95 107 254 113 254 2 0 24 -40 48 -88z"/>
<path d="M2803 3200 c-102 -23 -167 -141 -134 -241 14 -43 65 -97 107 -115 50
-21 10398 -21 10448 0 147 61 154 266 11 344 -28 16 -410 17 -5215 18 -2852 1
-5200 -2 -5217 -6z"/>
<path d="M5382 1759 c-134 -66 -134 -262 -1 -329 38 -20 66 -20 2619 -20 2554
0 2581 0 2619 20 133 68 132 264 -1 329 l-44 21 -2575 0 -2574 0 -43 -21z"/>
<path d="M6910 344 c-130 -56 -157 -227 -50 -318 l32 -26 1108 0 1108 0 32 26
c106 89 82 258 -45 315 -38 18 -93 19 -1095 18 -920 0 -1059 -2 -1090 -15z"/>
</g>
</svg>
