<?xml version="1.0" standalone="no"?>
<!DOCTYPE svg PUBLIC "-//W3C//DTD SVG 20010904//EN"
 "http://www.w3.org/TR/2001/REC-SVG-20010904/DTD/svg10.dtd">
<svg version="1.0" xmlns="http://www.w3.org/2000/svg"
 width="320.000000pt" height="320.000000pt" viewBox="0 0 320.000000 320.000000"
 preserveAspectRatio="xMidYMid meet">
<metadata>
Created by potrace 1.16, written by Peter Selinger 2001-2019
</metadata>
<g transform="translate(0.000000,320.000000) scale(0.100000,-0.100000)"
fill="#016725" stroke="none">
<path d="M1550 3010 c-160 -19 -317 -64 -482 -139 -75 -33 -95 -52 -24 -21 79
33 228 79 316 97 130 26 395 23 522 -6 188 -42 349 -107 471 -189 157 -107
254 -197 355 -334 124 -166 197 -328 238 -523 27 -127 27 -413 0 -540 -112
-533 -527 -936 -1081 -1051 -66 -14 -133 -18 -255 -18 -170 -1 -250 10 -405
55 -84 25 -335 143 -335 158 0 7 28 11 74 11 166 0 345 68 516 196 203 153
284 309 297 579 12 244 -54 416 -221 573 -31 29 -56 55 -56 57 0 13 81 16 147
6 143 -21 245 -100 292 -226 12 -31 21 -62 21 -70 0 -32 22 -22 61 27 59 74
97 160 110 250 14 95 7 146 -31 225 -59 126 -149 179 -330 193 -57 4 -117 6
-134 4 -309 -37 -428 -73 -581 -171 -33 -22 -94 -58 -135 -80 l-75 -42 -99 91
c-90 84 -100 91 -124 82 -17 -6 -28 -18 -30 -32 -4 -25 32 -62 143 -148 35
-27 64 -52 64 -56 1 -5 -45 -8 -101 -8 -250 0 -391 -85 -501 -302 -67 -131
-90 -226 -91 -368 0 -128 17 -212 66 -320 69 -153 161 -254 318 -348 76 -46
229 -102 276 -102 33 0 37 -3 155 -81 167 -112 347 -186 544 -225 123 -24 376
-24 499 0 551 108 970 499 1116 1041 85 315 51 651 -96 962 -189 398 -557 682
-1000 772 -116 24 -308 33 -414 21z m-509 -966 c63 -25 89 -46 89 -71 0 -10
-29 -13 -129 -13 -72 0 -132 4 -135 9 -8 13 36 74 64 88 34 17 37 17 111 -13z
m523 -331 c7 -18 -10 -43 -30 -43 -8 0 -14 -4 -14 -10 0 -5 5 -10 11 -10 7 0
9 -10 5 -26 -6 -23 -5 -24 14 -14 17 9 21 7 29 -12 19 -53 22 -117 7 -147 -18
-33 -7 -81 17 -81 19 0 43 -30 50 -60 3 -14 11 -39 18 -57 7 -18 10 -35 7 -38
-4 -4 -27 5 -52 20 -48 28 -55 42 -76 147 -11 56 -32 89 -44 69 -4 -5 -2 -12
4 -16 17 -10 11 -32 -10 -38 -22 -6 -26 -36 -10 -67 9 -16 2 -28 -39 -71 -44
-46 -49 -56 -53 -108 -3 -31 -9 -64 -13 -73 -6 -15 -2 -18 24 -18 17 0 31 5
31 10 0 6 9 10 19 10 12 0 30 -17 48 -47 25 -43 28 -57 28 -135 0 -96 -9 -117
-44 -99 -22 12 -29 41 -10 41 7 0 9 10 4 28 -4 15 -8 33 -8 40 -1 17 -24 15
-31 -3 -9 -24 -84 -8 -124 27 -26 22 -39 27 -60 22 -41 -10 -42 -12 -40 -57 3
-51 -6 -67 -36 -67 -13 0 -35 -9 -49 -20 -19 -15 -39 -20 -76 -19 -28 1 -54
-1 -57 -4 -4 -4 -19 2 -34 13 -38 27 -59 25 -70 -6 -10 -24 -13 -25 -59 -19
-31 4 -51 3 -56 -4 -9 -16 -61 -13 -75 4 -7 8 -20 15 -29 15 -29 0 -57 27 -71
69 -10 32 -17 40 -31 36 -17 -6 -52 19 -60 43 -5 12 -130 19 -148 8 -7 -5 -16
-19 -21 -32 l-9 -24 -40 21 c-22 11 -47 31 -55 45 -11 16 -26 24 -45 24 -16 0
-33 6 -38 13 -18 23 -34 92 -48 207 -14 114 -14 115 8 132 12 10 31 18 42 18
26 1 55 23 55 42 0 16 73 88 89 88 19 0 33 -31 34 -77 2 -42 -1 -48 -18 -48
-11 0 -25 11 -32 25 -7 14 -13 19 -13 12 0 -7 -7 -20 -15 -28 -21 -21 -19 -33
5 -27 13 3 20 0 20 -8 0 -10 3 -10 12 -1 7 7 21 12 32 12 11 0 28 8 38 17 13
12 22 13 29 6 8 -8 8 -13 0 -17 -22 -14 -10 -25 13 -14 20 9 31 7 61 -11 43
-25 45 -25 45 -6 0 24 18 18 42 -15 28 -39 38 -38 38 3 0 21 8 41 20 52 27 24
45 8 31 -26 -5 -13 -12 -41 -16 -61 -3 -22 -15 -44 -28 -53 -17 -12 -18 -15
-4 -15 9 0 24 11 33 25 13 20 19 23 30 14 11 -9 14 -8 14 1 0 7 -7 18 -16 25
-12 9 -15 20 -10 39 6 23 9 26 21 16 12 -10 15 -9 15 4 0 9 7 16 15 16 8 0 15
7 15 15 0 9 9 15 25 15 16 0 25 6 25 15 0 9 18 24 40 34 23 10 46 25 53 34 9
13 21 15 49 11 44 -8 53 -25 33 -65 -9 -16 -11 -29 -5 -29 5 0 10 5 10 10 0 6
3 9 8 9 4 -1 24 -1 45 0 26 1 37 6 37 16 0 8 4 15 9 15 5 0 16 2 23 5 9 4 19
-5 28 -22 7 -16 15 -23 17 -15 3 6 11 12 18 12 21 0 44 28 38 48 -5 20 32 42
71 42 13 0 31 9 41 20 10 11 28 20 41 20 12 0 31 11 42 25 11 14 25 25 31 25
14 0 14 13 1 26 -15 15 20 56 69 79 22 11 41 25 41 32 0 26 44 23 54 -4z"/>
</g>
</svg>
