<?xml version="1.0" encoding="utf-8"?>
<!-- Generator: Adobe Illustrator 24.0.1, SVG Export Plug-In . SVG Version: 6.00 Build 0)  -->
<svg version="1.1" id="Слой_1" xmlns="http://www.w3.org/2000/svg" xmlns:xlink="http://www.w3.org/1999/xlink" x="0px" y="0px"
	 viewBox="0 0 191 193.7" style="enable-background:new 0 0 191 193.7;" xml:space="preserve">
<style type="text/css">
	.st0{fill:none;stroke:#000000;stroke-width:7;stroke-miterlimit:10;}
	.st1{fill:#000000;}
</style>
<polygon class="st0" points="589.5,193.7 430.4,193.7 350.8,321.4 430.4,449.2 589.5,449.2 669.1,321.4 "/>
<g>
	<path class="st1" d="M419.5,321.6c2.9-2.9,5.6-5.7,8.3-8.4c5.8-5.8,11.7-11.7,17.5-17.5c3.5-3.5,6.9-7,10.4-10.4
		c0.3-0.3,0.9-0.6,1.4-0.6c1.3-0.1,2.6-0.1,3.9-0.1c6.4,0,12.8,0,19.3,0c0.2,0,0.3,0,0.6,0c-9.4,9.4-18.7,18.6-28,27.9
		c0.1,0.1,0.1,0.2,0.2,0.2c42.5,0,85,0,127.6,0c0,5.8,0,11.6,0,17.4c-42.5,0-85.1,0-127.8,0c9.4,9.4,18.7,18.7,28,28
		c0,0.1-0.1,0.2-0.1,0.3c-1.4,0-2.8,0-4.2,0c-6.2,0-12.4,0-18.7,0c-0.9,0-1.6-0.2-2.3-0.9c-4.4-4.5-8.9-8.9-13.3-13.3
		c-4.5-4.5-8.9-8.9-13.4-13.4c-2.9-2.9-5.8-5.8-8.8-8.8C420,321.9,419.7,321.7,419.5,321.6z"/>
</g>
</svg>
