<?xml version="1.0" standalone="no"?>
<!DOCTYPE svg PUBLIC "-//W3C//DTD SVG 20010904//EN"
 "http://www.w3.org/TR/2001/REC-SVG-20010904/DTD/svg10.dtd">
<svg version="1.0" xmlns="http://www.w3.org/2000/svg"
 width="800.000000pt" height="800.000000pt" viewBox="0 0 800.000000 800.000000"
 preserveAspectRatio="xMidYMid meet">

<g transform="translate(0.000000,800.000000) scale(0.100000,-0.100000)"
fill="#fff" stroke="none">
<path d="M1601 7018 c-200 -21 -369 -185 -403 -393 -42 -251 143 -498 398
-533 236 -32 459 115 519 343 56 217 -47 441 -249 540 -83 41 -161 54 -265 43z
m174 -212 c60 -27 107 -72 138 -130 31 -59 31 -183 0 -242 -95 -179 -329 -209
-461 -59 -95 108 -93 257 5 365 79 89 211 116 318 66z"/>
<path d="M6265 7018 c-126 -16 -275 -120 -338 -237 -184 -337 97 -741 477
-689 255 35 440 282 398 533 -43 258 -272 426 -537 393z m190 -212 c169 -78
215 -292 93 -431 -132 -150 -366 -120 -461 59 -17 32 -22 58 -22 121 0 90 19
137 77 195 79 80 212 104 313 56z"/>
<path d="M2835 6765 c-115 -75 -214 -140 -222 -146 -21 -18 -26 -74 -10 -104
9 -18 88 -76 227 -166 238 -156 258 -163 311 -110 54 55 35 112 -60 173 l-65
43 1164 5 c641 3 1173 9 1183 14 49 24 58 114 16 152 -20 18 -62 19 -1192 24
l-1171 5 68 44 c93 61 112 117 57 172 -53 52 -73 45 -306 -106z"/>
<path d="M1175 5966 c-28 -7 -73 -23 -100 -36 -63 -30 -174 -141 -204 -203
-48 -99 -51 -129 -51 -520 0 -409 1 -416 63 -436 42 -14 76 -3 106 35 21 26
21 34 21 389 0 422 1 427 85 512 37 37 66 56 101 66 l49 14 182 -176 c101 -97
194 -180 207 -185 48 -18 78 2 258 181 172 172 177 175 210 169 47 -9 120 -56
153 -100 52 -69 54 -83 55 -471 0 -266 4 -367 13 -385 7 -14 29 -33 49 -43 33
-16 40 -17 71 -3 20 8 40 23 46 34 7 14 11 148 11 400 0 340 -2 386 -18 439
-43 136 -152 251 -282 299 -58 20 -148 33 -185 26 -20 -3 -79 -54 -190 -163
l-161 -158 -39 36 c-22 20 -99 94 -171 164 l-131 129 -49 -1 c-27 0 -72 -6
-99 -13z"/>
<path d="M5841 5964 c-153 -41 -286 -175 -327 -328 -18 -65 -20 -795 -3 -828
14 -26 67 -48 101 -41 14 3 37 16 50 30 l23 25 5 386 c5 375 6 388 27 428 39
73 101 123 177 145 30 9 36 4 211 -170 179 -179 208 -200 258 -188 12 4 103
84 201 179 98 95 187 174 197 176 25 4 97 -29 137 -63 18 -15 45 -51 60 -79
l27 -51 5 -381 c5 -364 6 -383 25 -404 45 -50 122 -45 150 10 22 43 22 729 0
813 -38 148 -142 265 -282 320 -65 26 -166 39 -200 27 -15 -6 -99 -82 -185
-168 l-158 -156 -168 167 -168 167 -55 -1 c-30 0 -78 -7 -108 -15z"/>
<path d="M1196 5379 l-26 -31 0 -255 c0 -284 4 -303 66 -323 39 -13 96 7 113
38 7 13 11 114 11 281 l0 259 -26 31 c-21 26 -33 31 -69 31 -36 0 -48 -5 -69
-31z"/>
<path d="M2013 5400 c-48 -19 -53 -50 -53 -318 0 -239 1 -250 21 -276 30 -38
64 -49 105 -36 63 21 64 26 64 318 l0 264 -29 29 c-30 30 -65 36 -108 19z"/>
<path d="M5876 5384 l-26 -27 0 -266 c0 -295 1 -300 64 -321 41 -13 75 -2 105
36 21 27 22 34 19 292 l-3 264 -28 24 c-39 34 -96 33 -131 -2z"/>
<path d="M6669 5381 l-29 -29 0 -262 c0 -168 4 -269 11 -282 17 -31 74 -51
113 -38 62 20 66 40 66 314 0 265 -4 287 -51 312 -43 22 -77 17 -110 -15z"/>
<path d="M697 4399 c-10 -6 -48 -57 -84 -112 -240 -369 -236 -361 -184 -419
23 -26 36 -32 66 -31 43 1 71 24 118 97 l32 51 5 -615 c3 -338 9 -623 14 -633
25 -52 118 -58 156 -10 20 25 20 37 20 639 0 338 3 614 8 614 4 0 24 -27 44
-61 47 -75 89 -97 142 -75 40 17 56 42 56 88 0 25 -31 81 -136 243 -75 115
-144 215 -153 222 -20 15 -79 16 -104 2z"/>
<path d="M7192 4390 c-12 -12 -23 -22 -24 -23 -2 -1 -5 -288 -8 -637 l-5 -635
-44 68 c-48 75 -64 87 -114 87 -50 0 -87 -38 -87 -89 0 -35 18 -69 135 -248
98 -152 144 -213 167 -225 33 -18 70 -15 97 6 15 12 250 366 276 416 23 44 19
78 -14 111 -31 31 -75 38 -112 19 -10 -6 -39 -41 -64 -77 l-45 -67 -2 633 -3
633 -28 24 c-36 31 -94 32 -125 4z"/>
<path d="M2896 4209 c-134 -33 -246 -154 -277 -299 -33 -156 61 -336 213 -406
56 -26 74 -29 158 -29 82 0 103 4 152 27 79 37 142 98 181 177 30 61 32 73 32
166 0 87 -3 107 -27 157 -57 122 -187 209 -322 214 -39 2 -89 -1 -110 -7z
m195 -214 c67 -44 99 -142 71 -216 -36 -92 -147 -143 -239 -108 -49 18 -101
77 -113 129 -39 163 141 288 281 195z"/>
<path d="M3900 4204 c-229 -62 -341 -323 -229 -534 39 -73 102 -133 177 -168
49 -23 70 -27 152 -27 82 0 103 4 151 26 143 67 220 189 221 350 0 66 -4 88
-29 141 -53 113 -135 183 -248 213 -72 18 -123 18 -195 -1z m176 -193 c108
-49 141 -204 62 -288 -90 -96 -244 -76 -305 41 -15 30 -19 99 -8 138 21 68
103 128 175 128 19 0 54 -9 76 -19z"/>
<path d="M4905 4203 c-122 -44 -200 -118 -245 -233 -18 -46 -21 -70 -18 -145
3 -79 8 -98 37 -153 41 -75 103 -135 179 -170 49 -23 70 -27 152 -27 84 0 102
3 158 29 151 70 242 242 213 401 -33 176 -173 301 -347 311 -60 4 -91 0 -129
-13z m180 -192 c149 -68 147 -270 -4 -336 -73 -32 -166 -7 -214 57 -114 153
46 357 218 279z"/>
<path d="M1555 3476 c-74 -19 -101 -32 -165 -77 -237 -166 -266 -506 -61 -709
148 -146 352 -181 540 -93 69 33 178 140 210 206 69 143 67 297 -5 440 -32 63
-122 152 -190 189 -98 53 -226 70 -329 44z m217 -204 c95 -42 156 -127 165
-232 18 -195 -177 -348 -364 -286 -158 53 -234 237 -160 388 65 133 224 190
359 130z"/>
<path d="M6220 3473 c-290 -79 -429 -390 -299 -668 31 -68 140 -175 210 -208
188 -88 392 -53 540 93 205 203 176 543 -63 710 -114 81 -259 108 -388 73z
m197 -188 c210 -63 269 -336 102 -479 -186 -159 -478 -9 -456 235 10 112 82
203 189 240 65 23 100 23 165 4z"/>
<path d="M1166 2429 c-105 -25 -234 -126 -288 -226 -54 -99 -58 -134 -58 -541
l0 -374 29 -29 c38 -37 88 -39 128 -5 l28 24 5 389 5 388 31 55 c34 60 99 112
166 132 l39 12 177 -176 c97 -97 187 -181 199 -187 46 -23 75 -4 261 175 118
114 188 174 201 174 64 0 161 -76 197 -155 24 -49 24 -54 24 -413 0 -386 2
-406 49 -432 36 -19 86 -12 115 16 l26 27 0 382 c0 353 -2 388 -20 447 -24 80
-66 143 -134 205 -82 75 -201 123 -304 123 -42 0 -46 -3 -208 -161 -91 -88
-169 -159 -174 -157 -5 2 -81 74 -169 161 l-160 157 -63 -1 c-35 -1 -80 -5
-102 -10z"/>
<path d="M5835 2426 c-132 -42 -234 -130 -293 -253 l-37 -78 -3 -406 -3 -405
27 -27 c29 -29 78 -36 115 -17 47 25 49 46 49 428 0 410 2 425 75 498 49 49
91 73 134 76 26 3 50 -17 212 -172 187 -181 219 -202 263 -178 13 7 101 87
195 178 105 100 181 166 195 168 38 5 113 -36 156 -86 67 -75 70 -97 70 -505
l0 -359 29 -29 c41 -40 91 -40 132 0 l29 29 0 374 c0 283 -4 385 -14 424 -47
177 -196 314 -375 345 -102 18 -109 15 -286 -157 -88 -84 -162 -154 -165 -154
-4 0 -29 22 -56 48 -27 27 -101 99 -166 160 l-116 112 -64 -1 c-34 0 -81 -6
-103 -13z"/>
<path d="M1219 1865 c-47 -25 -50 -51 -47 -329 l3 -258 28 -24 c40 -34 90 -32
128 5 l29 29 0 262 c0 160 -4 269 -10 281 -12 22 -61 49 -87 49 -10 -1 -30 -7
-44 -15z"/>
<path d="M5898 1865 c-15 -9 -32 -24 -38 -35 -6 -11 -10 -121 -10 -280 l0
-262 29 -29 c38 -37 88 -39 128 -5 l28 24 3 265 3 266 -28 30 c-33 37 -78 47
-115 26z"/>
<path d="M1993 1846 l-28 -24 0 -272 0 -272 28 -24 c40 -34 90 -32 128 5 l29
29 0 262 0 262 -29 29 c-38 37 -88 39 -128 5z"/>
<path d="M6669 1841 l-29 -29 0 -262 0 -262 29 -29 c38 -37 88 -39 128 -5 l28
24 0 272 0 272 -28 24 c-40 34 -90 32 -128 -5z"/>
<path d="M4724 1660 c-46 -18 -68 -85 -44 -131 6 -10 41 -39 78 -64 l66 -45
-1003 -2 -1003 -3 -24 -28 c-30 -35 -32 -94 -5 -128 l19 -24 1009 -5 1008 -5
-62 -42 c-99 -68 -117 -113 -67 -172 21 -25 33 -31 65 -31 34 0 70 20 249 136
115 74 214 141 220 149 6 7 14 29 17 48 4 30 0 40 -28 70 -50 51 -420 287
-450 286 -13 0 -34 -4 -45 -9z"/>
</g>
</svg>
