<?xml version="1.0" standalone="no"?>
<!DOCTYPE svg PUBLIC "-//W3C//DTD SVG 20010904//EN"
 "http://www.w3.org/TR/2001/REC-SVG-20010904/DTD/svg10.dtd">
<svg version="1.0" xmlns="http://www.w3.org/2000/svg"
 width="800.000000pt" height="800.000000pt" viewBox="0 0 800.000000 800.000000"
 preserveAspectRatio="xMidYMid meet">

<g transform="translate(0.000000,800.000000) scale(0.100000,-0.100000)"
fill="#fff" stroke="none">
<path d="M3760 6914 c-396 -44 -662 -114 -975 -256 -263 -120 -538 -302 -739
-489 -48 -45 -59 -61 -59 -87 0 -44 20 -78 54 -92 38 -16 72 -6 117 33 20 19
53 44 72 57 19 14 62 46 95 73 203 164 512 331 785 425 200 69 199 69 92 -37
-147 -148 -292 -352 -396 -559 -25 -51 -46 -106 -46 -123 0 -40 47 -89 87 -89
44 0 70 25 110 103 103 205 220 373 367 524 152 157 307 255 478 303 127 35
113 85 110 -406 -4 -461 -3 -473 49 -499 35 -19 53 -19 88 -1 50 26 51 35 51
496 0 341 3 430 13 430 7 0 44 -9 82 -19 298 -83 569 -331 795 -729 57 -100
79 -122 123 -122 42 0 67 17 84 57 14 35 14 38 -26 119 -86 173 -274 430 -401
548 -34 31 -57 56 -52 56 22 0 184 -54 290 -96 337 -134 622 -319 886 -576
l131 -126 -105 -50 c-100 -47 -324 -133 -383 -148 -38 -9 -67 -49 -67 -94 0
-30 6 -44 31 -64 17 -14 41 -26 54 -26 45 0 330 109 498 190 48 23 93 40 101
37 20 -8 196 -277 260 -397 176 -334 294 -757 308 -1110 l3 -75 -82 -5 c-100
-6 -128 -26 -128 -90 0 -64 28 -84 128 -90 l82 -5 -4 -88 c-4 -101 8 -128 62
-146 43 -15 79 -2 104 36 16 25 18 54 18 308 0 300 -9 390 -62 625 -95 428
-287 831 -565 1182 -97 123 -340 368 -458 462 -315 251 -710 448 -1095 546
-251 64 -393 82 -680 85 -137 2 -266 1 -285 -1z"/>
<path d="M1749 6237 c-30 -20 -815 -663 -1202 -985 -199 -165 -199 -168 24
-350 85 -70 344 -282 574 -472 231 -190 464 -382 520 -427 84 -70 105 -83 136
-83 26 0 44 8 63 26 l26 27 0 253 0 254 1624 0 1624 0 31 26 31 26 0 553 c0
529 -1 554 -19 576 l-19 24 -1634 5 -1633 5 -5 260 c-3 143 -7 261 -8 263 -8
11 -70 42 -83 42 -9 0 -31 -10 -50 -23z m-39 -473 l0 -196 29 -29 29 -29 1626
0 1626 0 0 -420 0 -420 -1610 0 c-1693 0 -1659 1 -1686 -41 -5 -8 -11 -105
-14 -217 l-5 -203 -533 438 -533 438 43 37 c106 92 1014 837 1021 837 4 1 7
-87 7 -195z"/>
<path d="M5360 5232 c-57 -28 -58 -48 -17 -254 53 -265 97 -649 97 -844 l0
-44 -675 0 -675 0 0 129 c0 123 -1 131 -24 158 -34 39 -98 39 -132 0 -23 -27
-24 -35 -24 -158 l0 -129 -676 0 -677 0 7 130 7 130 -30 30 c-45 45 -114 39
-143 -13 -8 -13 -15 -74 -18 -147 l-5 -125 -146 -3 c-143 -2 -147 -3 -173 -29
-36 -36 -36 -90 0 -126 26 -26 30 -27 173 -29 l146 -3 7 -163 c8 -203 22 -343
54 -542 28 -176 71 -386 86 -413 5 -10 25 -25 45 -33 31 -14 38 -13 71 3 59
29 60 47 19 255 -53 268 -97 649 -97 849 l0 49 675 0 675 0 0 -139 c0 -133 1
-141 24 -168 34 -39 98 -39 132 0 23 27 24 35 24 168 l0 139 676 0 677 0 -7
-140 -7 -141 30 -29 c45 -45 114 -39 143 13 8 13 15 75 18 157 l5 135 121 3
c113 2 124 4 148 27 20 18 26 34 26 65 0 31 -6 47 -26 65 -24 23 -35 25 -148
27 l-121 3 -2 75 c-11 332 -75 807 -139 1023 -13 42 -78 63 -124 39z"/>
<path d="M1153 4330 c-12 -5 -30 -21 -40 -37 -16 -25 -18 -54 -18 -308 0 -300
9 -390 62 -625 116 -527 376 -1007 753 -1393 240 -246 477 -422 768 -570 286
-145 570 -237 892 -289 127 -20 180 -23 430 -23 302 0 384 8 625 60 301 65
608 187 879 350 129 78 343 237 440 327 58 53 69 69 69 96 0 64 -51 112 -106
98 -14 -3 -67 -42 -118 -86 -199 -170 -443 -326 -672 -428 -117 -52 -312 -123
-377 -137 -34 -7 -33 -5 46 71 145 142 277 325 389 536 77 147 82 182 34 222
-62 52 -112 29 -164 -74 -105 -208 -223 -378 -364 -522 -158 -163 -310 -260
-483 -308 -127 -35 -113 -85 -110 406 4 461 3 473 -49 499 -34 18 -50 19 -84
3 -54 -25 -55 -31 -55 -498 0 -341 -3 -430 -13 -430 -27 0 -162 42 -221 69
-108 49 -216 129 -337 250 -125 125 -203 229 -300 398 -71 124 -98 153 -140
153 -44 0 -69 -17 -86 -58 -15 -35 -14 -37 28 -121 89 -177 279 -435 406 -551
30 -27 51 -50 46 -50 -18 0 -169 48 -253 80 -345 133 -652 329 -924 590 -64
62 -116 118 -116 125 0 17 211 111 370 165 149 51 170 67 170 126 0 35 -5 47
-31 68 -17 14 -41 26 -54 26 -47 0 -338 -111 -487 -186 -48 -24 -92 -44 -97
-44 -14 0 -137 174 -206 290 -211 356 -344 779 -374 1185 -4 61 -6 113 -4 118
2 4 40 7 84 7 76 0 82 2 110 29 36 37 38 79 5 118 -22 26 -31 28 -113 33 l-88
5 4 86 c4 97 -5 121 -49 144 -33 17 -45 18 -77 5z"/>
<path d="M6136 4045 l-26 -24 0 -256 0 -255 -1625 0 -1625 0 -29 -27 c-17 -16
-31 -39 -32 -53 0 -14 -1 -262 0 -551 1 -503 2 -528 20 -550 l19 -24 1634 -5
1633 -5 5 -258 c5 -258 5 -259 29 -278 34 -28 65 -33 97 -15 16 8 137 104 269
213 133 109 369 303 525 432 517 426 559 462 565 482 4 12 4 35 1 53 -5 26
-29 51 -128 132 -67 54 -372 305 -677 557 -507 417 -558 457 -592 457 -24 0
-45 -8 -63 -25z m458 -511 c154 -126 385 -316 515 -423 130 -106 240 -197 244
-201 5 -4 -130 -122 -299 -261 -170 -140 -387 -319 -484 -399 -97 -80 -197
-162 -222 -182 -25 -21 -48 -38 -52 -38 -3 0 -6 87 -6 194 l0 194 -26 31 -26
31 -1629 0 -1629 0 0 420 0 420 1610 0 c1728 0 1662 -2 1689 48 7 13 11 96 11
218 0 156 3 194 13 187 6 -5 138 -113 291 -239z"/>
</g>
</svg>
