<svg width="67" height="59" viewBox="0 0 67 59" fill="none" xmlns="http://www.w3.org/2000/svg">
<path d="M4.98815 15.0567L33.5 0.56091L62.0118 15.0567V43.9433L33.5 58.4391L4.98815 43.9433V15.0567Z" fill="#D9D9D9" fill-opacity="0.13" stroke="white"/>
<path d="M49.4142 30.4142C50.1953 29.6332 50.1953 28.3668 49.4142 27.5858L36.6863 14.8579C35.9052 14.0768 34.6389 14.0768 33.8579 14.8579C33.0768 15.6389 33.0768 16.9052 33.8579 17.6863L45.1716 29L33.8579 40.3137C33.0768 41.0948 33.0768 42.3611 33.8579 43.1421C34.6389 43.9232 35.9052 43.9232 36.6863 43.1421L49.4142 30.4142ZM19 31L48 31V27L19 27V31Z" fill="white"/>
</svg>
