<?xml version="1.0" encoding="utf-8"?>
<!-- Generator: Adobe Illustrator 24.0.1, SVG Export Plug-In . SVG Version: 6.00 Build 0)  -->
<svg version="1.1" id="Слой_1" xmlns="http://www.w3.org/2000/svg" xmlns:xlink="http://www.w3.org/1999/xlink" x="0px" y="0px"
	 viewBox="0 0 191 193.7" style="enable-background:new 0 0 191 193.7;" xml:space="preserve">
<style type="text/css">
	.st0{fill:#04121F;}
	.st1{fill:#04121F;stroke:#FFFFFF;stroke-width:2;stroke-miterlimit:10;}
	.st2{fill:#FFFFFF;}
</style>
<path class="st0" d="M0,193.7C63.7,129.1,127.3,64.6,191,0C127.3,0,63.7,0,0,0C0,64.6,0,129.1,0,193.7z"/>
<g>
	<polygon class="st1" points="73.4,20.4 37.6,20.4 19.7,49.1 37.6,77.9 73.4,77.9 91.4,49.1 	"/>
	<path class="st2" d="M35.2,49.2c0.7-0.7,1.3-1.3,1.9-1.9c1.3-1.3,2.6-2.6,3.9-3.9c0.8-0.8,1.6-1.6,2.3-2.3c0.1-0.1,0.2-0.1,0.3-0.1
		c0.3,0,0.6,0,0.9,0c1.4,0,2.9,0,4.3,0c0,0,0.1,0,0.1,0c-2.1,2.1-4.2,4.2-6.3,6.3c0,0,0,0,0,0c9.6,0,19.1,0,28.7,0
		c0,1.3,0,2.6,0,3.9c-9.6,0-19.2,0-28.8,0c2.1,2.1,4.2,4.2,6.3,6.3c0,0,0,0,0,0.1c-0.3,0-0.6,0-0.9,0c-1.4,0-2.8,0-4.2,0
		c-0.2,0-0.4,0-0.5-0.2c-1-1-2-2-3-3c-1-1-2-2-3-3c-0.7-0.7-1.3-1.3-2-2C35.3,49.3,35.2,49.2,35.2,49.2z"/>
</g>
</svg>
