<?xml version="1.0" standalone="no"?>
<!DOCTYPE svg PUBLIC "-//W3C//DTD SVG 20010904//EN"
 "http://www.w3.org/TR/2001/REC-SVG-20010904/DTD/svg10.dtd">
<svg version="1.0" xmlns="http://www.w3.org/2000/svg"
 width="100.000000pt" height="100.000000pt" viewBox="0 0 100.000000 100.000000"
 preserveAspectRatio="xMidYMid meet">

<g transform="translate(0.000000,100.000000) scale(0.100000,-0.100000)"
fill="#ffffff" stroke="none">
<path d="M370 956 c0 -42 -2 -45 -36 -56 -33 -11 -38 -10 -65 16 l-30 28 -91
-92 -92 -91 28 -30 c26 -27 27 -32 16 -65 -11 -34 -14 -36 -56 -36 l-44 0 0
-130 0 -130 44 0 c42 0 45 -2 56 -36 11 -33 10 -38 -16 -65 l-28 -30 92 -91
91 -92 30 28 c27 26 32 27 65 16 34 -11 36 -14 36 -56 l0 -44 130 0 130 0 0
44 c0 42 2 45 36 56 33 11 38 10 65 -16 l30 -28 91 92 92 91 -28 30 c-26 27
-27 32 -16 65 11 34 14 36 56 36 l44 0 0 130 0 130 -44 0 c-42 0 -45 2 -56 36
-11 33 -10 38 16 65 l28 30 -92 91 -91 92 -30 -28 c-27 -26 -32 -27 -65 -16
-34 11 -36 14 -36 56 l0 44 -130 0 -130 0 0 -44z m232 -27 c3 -38 6 -42 51
-61 l48 -21 27 26 27 27 72 -72 73 -72 -27 -28 -26 -27 21 -48 c19 -45 23 -48
61 -51 l41 -3 0 -99 0 -99 -41 -3 c-38 -3 -42 -6 -61 -51 l-21 -48 26 -27 27
-28 -73 -72 -72 -72 -27 27 -27 26 -48 -21 c-45 -19 -48 -23 -51 -61 l-3 -41
-99 0 -99 0 -3 41 c-3 38 -6 42 -51 61 l-48 21 -27 -26 -27 -27 -72 72 -73 72
27 28 26 27 -21 48 c-19 45 -23 48 -61 51 l-41 3 0 99 0 99 41 3 c38 3 42 6
61 51 l21 48 -26 27 -27 28 73 72 72 72 27 -27 27 -26 48 21 c45 19 48 23 51
61 l3 41 99 0 99 0 3 -41z"/>
<path d="M385 756 c-104 -48 -165 -143 -165 -256 1 -253 308 -376 482 -194
106 111 105 286 -3 393 -80 81 -213 105 -314 57z m200 -23 c129 -43 198 -199
145 -328 l-12 -30 -16 25 c-21 32 -60 71 -90 90 -23 15 -23 16 -6 49 14 27 15
40 5 70 -17 58 -53 86 -111 86 -58 0 -94 -28 -111 -86 -10 -30 -9 -43 5 -70
17 -33 17 -34 -6 -49 -30 -19 -69 -58 -90 -90 l-16 -25 -12 30 c-38 92 -16
200 55 270 69 70 164 91 260 58z m-55 -73 c5 0 18 -10 30 -22 46 -49 8 -138
-60 -138 -62 0 -104 83 -66 132 15 21 56 38 74 32 8 -2 18 -4 22 -4z m67 -203
c35 -19 78 -67 89 -99 13 -43 -99 -108 -186 -108 -51 0 -120 26 -160 59 -32
26 -33 29 -21 58 14 35 53 74 93 94 36 19 146 16 185 -4z"/>
<path d="M480 415 c0 -8 9 -15 20 -15 11 0 20 7 20 15 0 8 -9 15 -20 15 -11 0
-20 -7 -20 -15z"/>
<path d="M484 359 c-10 -17 13 -36 27 -22 12 12 4 33 -11 33 -5 0 -12 -5 -16
-11z"/>
</g>
</svg>
