<?xml version="1.0" standalone="no"?>
<!DOCTYPE svg PUBLIC "-//W3C//DTD SVG 20010904//EN"
 "http://www.w3.org/TR/2001/REC-SVG-20010904/DTD/svg10.dtd">
<svg version="1.0" xmlns="http://www.w3.org/2000/svg"
 width="900.000000pt" height="900.000000pt" viewBox="0 0 900.000000 900.000000"
 preserveAspectRatio="xMidYMid meet">

<g transform="translate(0.000000,900.000000) scale(0.100000,-0.100000)"
fill="#fff" stroke="none">
<path d="M6875 8981 c-215 -26 -483 -122 -683 -246 -170 -104 -359 -270 -497
-435 -280 -335 -429 -791 -412 -1260 7 -177 24 -284 66 -420 l30 -95 -390
-391 -391 -392 -47 13 c-25 6 -60 19 -77 28 -48 25 -262 228 -667 634 l-378
379 35 75 c57 118 65 202 40 382 -6 43 -4 52 30 102 51 77 301 332 421 428 55
44 141 107 190 140 103 67 345 187 488 241 113 44 191 107 235 190 38 73 38
179 0 252 -59 113 -181 175 -478 242 -163 37 -317 52 -550 52 -297 0 -458 -22
-685 -91 -317 -98 -569 -235 -817 -447 -144 -122 -1324 -1301 -1406 -1405 -72
-91 -93 -150 -95 -270 -2 -76 -4 -82 -27 -94 -14 -7 -49 -13 -78 -13 -97 0
-186 -27 -254 -77 -88 -64 -391 -369 -416 -418 -59 -117 -68 -265 -22 -358 32
-64 212 -258 521 -562 346 -340 413 -398 487 -419 32 -9 92 -16 133 -16 123 1
189 40 382 229 241 235 281 300 295 474 5 59 11 110 14 112 3 3 52 10 110 15
105 9 159 25 260 76 l52 26 481 -483 c264 -266 495 -506 512 -532 18 -27 38
-74 44 -104 l12 -54 -432 -433 -433 -433 -88 28 c-170 53 -261 64 -530 63
-216 0 -257 -3 -348 -22 -393 -86 -697 -255 -983 -548 -238 -245 -395 -520
-475 -835 -24 -95 -27 -125 -31 -349 -3 -156 -1 -284 7 -355 33 -302 131 -500
283 -575 111 -54 217 -59 320 -16 51 21 182 142 545 500 l323 320 169 -169
169 -170 -373 -381 c-205 -210 -387 -404 -405 -430 -47 -71 -64 -142 -59 -238
12 -223 186 -354 563 -422 152 -27 467 -25 640 5 424 73 797 294 1093 646 241
287 383 625 422 1004 25 256 -1 535 -70 737 l-18 51 402 402 402 402 165 -168
c90 -92 385 -400 654 -683 940 -987 1351 -1418 1748 -1828 380 -392 403 -414
471 -446 100 -48 161 -59 275 -54 118 7 180 29 276 100 87 64 780 755 863 860
85 109 104 164 104 308 1 140 -15 202 -74 291 -56 85 -243 269 -1178 1163
-432 412 -936 894 -1120 1070 -184 176 -396 379 -470 451 -74 72 -177 171
-229 221 -81 79 -92 93 -83 110 6 10 165 173 354 361 l343 343 75 -24 c245
-78 607 -97 873 -46 740 143 1344 735 1489 1462 19 96 22 145 22 328 0 464
-93 756 -278 864 -103 60 -233 70 -333 26 -65 -29 -133 -91 -523 -477 l-346
-342 -167 167 c-92 92 -167 171 -167 176 0 5 163 173 363 375 200 201 380 391
400 421 143 218 71 453 -176 573 -99 49 -167 68 -322 92 -117 18 -468 27 -570
16z m385 -561 c0 -5 -113 -125 -251 -266 -305 -312 -373 -390 -413 -474 -29
-61 -31 -72 -30 -175 0 -144 18 -191 123 -316 86 -103 410 -425 534 -530 97
-83 131 -94 297 -94 183 0 170 -9 605 416 205 200 295 280 306 273 14 -8 10
-208 -6 -314 -29 -197 -109 -393 -226 -560 -111 -159 -321 -337 -494 -420 -79
-38 -220 -84 -320 -106 -110 -23 -359 -24 -477 -1 -120 24 -305 89 -414 146
l-92 48 -168 -169 c-269 -270 -833 -818 -843 -818 -5 0 -84 73 -176 162 l-166
161 502 503 503 503 -56 118 c-112 234 -151 398 -152 623 0 167 13 253 60 399
63 194 146 336 279 479 209 224 491 375 770 412 89 11 305 12 305 0z m-3566
-123 c-357 -263 -680 -638 -759 -882 -26 -78 -27 -93 -22 -197 l5 -113 -146
-148 -147 -147 821 -821 821 -821 74 19 74 18 205 -196 c246 -234 804 -767
1935 -1844 462 -440 1040 -991 1285 -1225 245 -234 479 -458 520 -497 l75 -72
-300 -301 c-165 -166 -326 -324 -359 -353 l-58 -51 -117 120 c-173 177 -929
967 -1861 1944 -1194 1252 -1693 1775 -1778 1862 l-76 77 17 78 17 78 -820
820 -820 820 -147 -147 c-87 -86 -158 -149 -173 -152 -14 -2 -62 -7 -107 -9
-137 -8 -235 -68 -411 -251 -137 -143 -181 -231 -182 -361 0 -75 -16 -117 -58
-158 l-37 -37 -268 268 -268 268 40 37 c45 40 93 57 167 57 80 0 170 33 246
90 87 66 268 257 301 319 34 62 57 151 57 222 0 47 5 63 32 100 67 94 995
1013 1228 1217 227 199 441 305 760 375 150 33 154 34 229 36 l63 1 -58 -43z
m325 -4590 l15 -28 -539 -539 -539 -539 51 -103 c62 -125 107 -251 135 -378
30 -133 30 -384 1 -520 -84 -394 -343 -725 -708 -908 -129 -64 -205 -87 -373
-112 -142 -21 -312 -27 -312 -11 0 5 140 154 310 332 345 359 361 381 380 519
12 88 0 199 -29 264 -23 54 -162 206 -407 446 -252 248 -274 265 -355 286 -98
25 -270 16 -341 -19 -65 -32 -211 -163 -511 -457 -125 -122 -229 -221 -231
-219 -7 9 14 291 30 384 21 131 46 211 100 319 68 134 138 230 254 346 417
418 998 505 1548 232 l113 -56 547 548 547 547 150 -153 c83 -85 157 -166 164
-181z"/>
</g>
</svg>
