<?xml version="1.0" standalone="no"?>
<!DOCTYPE svg PUBLIC "-//W3C//DTD SVG 20010904//EN"
 "http://www.w3.org/TR/2001/REC-SVG-20010904/DTD/svg10.dtd">
<svg version="1.0" xmlns="http://www.w3.org/2000/svg"
 width="68.000000pt" height="68.000000pt" viewBox="0 0 68.000000 68.000000"
 preserveAspectRatio="xMidYMid meet">

<g transform="translate(0.000000,68.000000) scale(0.100000,-0.100000)"
fill="#fff" stroke="none">
<path d="M340 661 c0 -26 16 -35 24 -15 10 25 7 34 -9 34 -8 0 -15 -9 -15 -19z"/>
<path d="M551 613 c-22 -27 -36 -50 -31 -51 13 -5 88 59 89 75 2 29 -20 20
-58 -24z"/>
<path d="M90 642 c0 -14 78 -84 90 -80 14 4 -57 88 -76 88 -8 0 -14 -4 -14 -8z"/>
<path d="M296 578 c-56 -15 -111 -74 -125 -135 -16 -64 -3 -116 47 -198 20
-33 41 -85 48 -115 l11 -55 75 -3 75 -3 12 58 c6 33 29 86 53 126 53 87 62
160 30 224 -26 50 -71 89 -120 103 -43 12 -54 11 -106 -2z m140 -48 c36 -23
74 -91 74 -136 0 -16 -22 -74 -49 -129 -28 -55 -53 -112 -56 -127 -5 -26 -9
-28 -54 -28 -48 0 -48 0 -55 37 -3 21 -24 70 -47 108 -72 120 -63 222 23 275
44 27 120 27 164 0z"/>
<path d="M271 416 c-15 -18 0 -50 29 -66 17 -9 20 -22 21 -73 0 -34 4 -82 9
-107 5 -29 6 -6 2 63 l-5 107 26 0 26 0 -4 -102 -4 -103 10 105 c5 58 14 107
19 108 37 13 53 65 24 76 -24 9 -44 -12 -44 -45 0 -24 -4 -29 -25 -29 -19 0
-26 7 -31 28 -10 46 -13 52 -27 52 -8 0 -20 -6 -26 -14z m40 -29 c5 -20 4 -27
-7 -27 -16 0 -33 30 -27 48 8 20 26 9 34 -21z m115 18 c6 -16 -12 -45 -27 -45
-10 0 -12 44 -2 53 11 11 23 8 29 -8z"/>
<path d="M0 395 c0 -12 13 -15 60 -15 71 0 80 15 14 24 -66 9 -74 8 -74 -9z"/>
<path d="M618 403 c-45 -7 -32 -23 17 -23 33 0 45 4 45 15 0 15 -9 16 -62 8z"/>
<path d="M131 189 c-34 -31 -42 -42 -32 -52 9 -9 20 -1 51 33 63 72 51 83 -19
19z"/>
<path d="M510 225 c0 -10 82 -95 91 -95 21 0 6 30 -31 64 -36 33 -60 45 -60
31z"/>
<path d="M279 48 c-1 -2 -3 -13 -4 -26 -2 -21 1 -22 77 -22 77 0 79 1 76 23
-3 20 -9 22 -75 25 -40 2 -74 2 -74 0z"/>
</g>
</svg>
