<?xml version="1.0" standalone="no"?>
<!DOCTYPE svg PUBLIC "-//W3C//DTD SVG 20010904//EN"
 "http://www.w3.org/TR/2001/REC-SVG-20010904/DTD/svg10.dtd">
<svg version="1.0" xmlns="http://www.w3.org/2000/svg"
 width="800.000000pt" height="800.000000pt" viewBox="0 0 800.000000 800.000000"
 preserveAspectRatio="xMidYMid meet">
<metadata>
Created by potrace 1.16, written by Peter Selinger 2001-2019
</metadata>
<g transform="translate(0.000000,800.000000) scale(0.100000,-0.100000)"
fill="#fff" stroke="none">
<path d="M3810 7491 c-689 -74 -1291 -499 -1595 -1126 -182 -375 -252 -802
-190 -1161 57 -326 229 -839 470 -1394 20 -47 49 -114 65 -150 28 -66 168
-371 255 -555 59 -126 413 -833 470 -940 23 -44 71 -134 105 -200 35 -66 117
-219 183 -340 252 -465 242 -449 316 -493 88 -51 215 -29 288 50 69 75 820
1513 1056 2023 36 77 83 178 104 225 22 47 55 119 73 160 18 41 41 93 50 115
161 359 344 841 426 1124 96 331 126 559 105 791 -42 456 -212 857 -505 1196
-306 353 -715 581 -1186 660 -103 17 -387 26 -490 15z m427 -257 c577 -85
1056 -437 1322 -971 122 -246 177 -460 188 -738 9 -234 -30 -435 -161 -826
-86 -259 -268 -716 -390 -983 -18 -39 -75 -163 -127 -276 -112 -244 -452 -932
-604 -1220 -185 -353 -457 -850 -465 -850 -4 0 -12 10 -18 22 -6 13 -26 50
-45 83 -374 668 -862 1634 -1129 2235 -38 85 -73 164 -78 175 -51 109 -197
477 -271 684 -144 402 -209 681 -209 901 1 390 140 789 387 1108 58 75 212
231 288 292 244 194 524 317 830 364 124 19 354 19 482 0z"/>
<path d="M3367 6485 c-243 -46 -478 -206 -574 -391 -53 -103 -72 -175 -79
-304 -16 -297 131 -621 372 -820 39 -32 169 -123 290 -202 120 -80 307 -202
414 -273 107 -71 202 -129 210 -129 8 0 89 49 180 109 91 60 277 183 415 273
137 90 282 191 322 224 218 181 354 452 370 738 15 272 -95 491 -319 638 -155
101 -301 145 -478 146 -159 1 -319 -43 -442 -120 -20 -13 -42 -24 -48 -24 -5
0 -31 13 -57 29 -157 96 -395 140 -576 106z m287 -255 c101 -26 179 -68 268
-146 40 -35 75 -64 78 -64 3 0 39 30 80 67 202 178 442 211 678 95 146 -72
232 -166 269 -292 22 -75 13 -249 -17 -345 -45 -144 -133 -280 -241 -374 -26
-22 -149 -109 -275 -192 -126 -84 -286 -189 -355 -235 -69 -46 -131 -84 -137
-84 -10 0 -351 221 -659 428 -138 92 -236 198 -301 327 -59 119 -77 196 -77
340 0 128 1 131 34 200 49 100 118 163 244 225 151 73 267 87 411 50z"/>
<path d="M2930 1814 c-457 -141 -689 -337 -690 -582 0 -189 120 -335 385 -467
252 -125 543 -198 980 -247 142 -15 648 -15 790 0 438 49 730 122 980 247 264
132 385 278 385 464 0 235 -217 429 -635 567 -171 57 -222 61 -265 19 -39 -38
-53 -86 -37 -132 17 -50 46 -68 167 -104 278 -82 484 -206 520 -314 60 -181
-365 -395 -950 -479 -268 -38 -720 -46 -995 -16 -593 64 -1080 271 -1080 459
0 124 253 282 591 370 89 23 129 93 99 168 -35 85 -89 95 -245 47z"/>
</g>
</svg>
