<?xml version="1.0" standalone="no"?>
<!DOCTYPE svg PUBLIC "-//W3C//DTD SVG 20010904//EN"
 "http://www.w3.org/TR/2001/REC-SVG-20010904/DTD/svg10.dtd">
<svg version="1.0" xmlns="http://www.w3.org/2000/svg"
 width="200.000000pt" height="249.000000pt" viewBox="0 0 200.000000 249.000000"
 preserveAspectRatio="xMidYMid meet">

<g transform="translate(0.000000,249.000000) scale(0.100000,-0.100000)"
fill="#fff" stroke="none">
<path d="M970 2360 c0 -16 5 -30 10 -30 6 0 8 11 4 25 -5 21 -3 25 16 25 19 0
21 -4 15 -32 -9 -41 10 -27 20 15 7 26 5 27 -29 27 -33 0 -36 -2 -36 -30z"/>
<path d="M940 2326 c0 -28 4 -36 19 -36 14 0 18 -6 15 -27 -1 -15 2 -36 8 -47
10 -19 10 -20 -6 -7 -23 19 -33 5 -13 -17 10 -10 17 -34 16 -53 -1 -31 -1 -32
-8 -9 -13 43 -41 90 -54 91 -34 3 -94 -4 -107 -12 -12 -7 -11 -8 5 -9 16 0 17
-2 5 -10 -9 -6 -18 -6 -24 0 -15 15 -26 12 -19 -6 5 -13 2 -15 -13 -10 -23 7
-49 -8 -40 -22 3 -6 2 -13 -4 -17 -6 -4 -7 -11 -4 -17 5 -7 11 -2 16 13 6 17
11 20 17 11 6 -10 10 -10 21 2 8 10 21 14 36 10 18 -5 24 -2 24 10 0 9 5 16
10 16 15 0 12 -27 -6 -44 -20 -20 -34 -20 -34 -1 0 8 -4 15 -10 15 -5 0 -9 -6
-7 -12 1 -7 -7 -13 -18 -13 -11 0 -28 -8 -37 -17 -10 -10 -24 -18 -30 -18 -10
0 -9 3 1 9 8 5 9 11 3 15 -15 9 -26 -34 -13 -47 6 -6 11 -18 11 -26 0 -14 -1
-14 -10 -1 -8 12 -10 9 -10 -12 0 -18 5 -28 15 -28 12 0 14 -7 9 -26 -5 -19
-4 -25 5 -20 6 4 11 3 11 -3 0 -5 -6 -11 -12 -13 -8 -3 -4 -10 11 -17 14 -8
21 -9 17 -2 -4 7 -1 9 7 5 8 -3 17 -14 20 -25 6 -21 -8 -27 -16 -6 -3 6 -6 3
-6 -9 -1 -11 4 -25 11 -32 9 -9 9 -18 0 -37 -10 -22 -15 -24 -32 -15 -15 8
-20 8 -20 -1 0 -6 9 -13 20 -16 11 -3 18 -9 15 -13 -6 -10 -51 -7 -62 3 -3 4
-17 4 -30 1 -18 -5 -22 -3 -17 9 3 9 12 13 20 10 16 -6 19 12 4 22 -5 3 -10
11 -10 16 0 18 20 -2 35 -34 l14 -32 -5 40 c-4 30 -3 36 5 25 9 -13 11 -12 11
5 0 11 -7 31 -16 43 l-15 22 -21 -20 c-15 -14 -25 -17 -32 -10 -16 16 -46 12
-46 -7 0 -13 -3 -14 -12 -5 -7 7 -19 12 -28 11 -10 0 -11 -2 -2 -6 6 -2 12 -9
12 -14 0 -5 -10 -5 -22 0 -13 5 -22 15 -20 22 4 16 -17 29 -45 29 -19 0 -23 5
-23 34 0 19 -5 38 -12 42 -8 5 -9 -7 -5 -46 4 -29 4 -50 0 -46 -3 3 -12 1 -20
-6 -19 -15 -27 -4 -14 21 7 13 8 22 1 26 -5 3 -10 -3 -10 -15 0 -13 -4 -19
-11 -14 -8 5 -10 -1 -5 -19 3 -14 1 -29 -4 -32 -6 -4 -7 -12 -3 -18 9 -13 11
-27 16 -105 2 -29 9 -58 15 -64 7 -7 12 -21 12 -31 0 -15 -5 -18 -25 -13 -27
7 -50 -20 -39 -48 5 -14 3 -14 -29 -1 -23 9 -38 11 -42 5 -3 -6 -14 -10 -23
-10 -10 0 -26 -9 -35 -21 -24 -27 -16 -34 10 -10 25 24 88 37 98 21 4 -6 15
-8 26 -5 13 5 19 2 17 -7 -2 -7 3 -12 11 -10 13 3 30 -14 31 -30 0 -3 -14 -11
-32 -17 -23 -8 -34 -8 -39 0 -5 8 -12 8 -28 0 -15 -8 -27 -9 -40 -1 -30 16
-28 20 -33 -53 l-3 -39 43 -3 c30 -2 45 1 49 11 3 8 11 14 19 14 7 0 21 12 30
26 11 16 24 24 35 21 23 -6 49 21 30 32 -6 4 -15 21 -20 37 -5 21 -15 30 -36
34 -16 3 -30 11 -33 18 -3 11 0 12 15 4 12 -7 25 -7 34 -1 23 14 29 11 29 -18
1 -36 34 -100 44 -84 4 6 4 16 1 21 -3 6 -2 10 4 10 12 0 19 -20 13 -42 -2
-11 -10 -14 -20 -10 -16 5 -16 4 0 -11 9 -9 24 -17 33 -17 12 0 15 -5 11 -16
-3 -9 -6 -18 -6 -21 0 -3 -7 0 -16 7 -12 11 -18 10 -32 -4 -16 -17 -16 -18 5
-12 12 4 24 2 28 -4 3 -5 2 -10 -4 -10 -5 0 -13 -9 -16 -20 -4 -11 -10 -18
-15 -15 -5 3 -7 12 -3 20 3 9 -1 15 -11 15 -9 0 -16 5 -16 11 0 5 -4 8 -9 4
-6 -3 -8 9 -6 27 l4 33 -14 -25 c-7 -14 -16 -24 -19 -22 -17 7 -26 0 -26 -19
0 -14 5 -19 14 -16 11 5 13 0 6 -24 -5 -16 -6 -29 -2 -29 4 0 7 -14 8 -30 1
-17 -3 -30 -7 -30 -5 0 -9 9 -9 20 0 14 -5 18 -17 13 -14 -5 -15 -1 -9 28 4
19 3 29 -2 24 -5 -6 -12 -25 -16 -44 -5 -30 -4 -33 14 -28 16 4 20 0 20 -21 0
-15 -5 -34 -11 -42 -8 -12 -9 -10 -4 7 4 15 0 25 -13 32 -16 8 -21 7 -25 -8
-2 -10 0 -27 6 -37 25 -43 13 -59 -18 -24 -10 11 -26 20 -35 20 -9 0 -21 5
-27 11 -8 8 -10 -3 -9 -38 l1 -48 43 -1 c27 -1 50 -8 60 -18 16 -16 14 -17
-31 -13 -31 2 -47 0 -47 -8 0 -7 16 -11 45 -10 30 2 45 -2 45 -10 0 -17 -102
-14 -108 3 -2 6 -15 12 -28 12 -15 0 -23 -4 -19 -10 4 -6 11 -8 16 -5 5 4 12
-1 15 -9 4 -10 18 -16 35 -16 16 0 29 -5 29 -10 0 -7 6 -7 19 0 12 6 22 6 26
1 7 -13 -43 -47 -82 -56 -18 -3 -35 -11 -38 -16 -9 -13 29 -11 43 3 9 9 15 9
24 0 7 -7 20 -12 29 -12 10 0 27 -14 39 -31 23 -31 23 -51 0 -24 -7 8 -17 15
-23 15 -6 0 -22 10 -35 23 -21 18 -24 19 -19 4 4 -10 3 -16 -2 -12 -5 3 -13 0
-17 -6 -4 -7 4 -20 20 -31 14 -11 23 -24 20 -30 -4 -7 9 -8 37 -5 24 3 38 3
32 0 -7 -2 -13 -9 -13 -14 0 -14 28 -11 33 4 2 6 8 9 12 5 11 -11 -24 -48 -40
-42 -7 3 -15 -2 -19 -11 -3 -10 -12 -15 -21 -11 -8 3 -20 -3 -27 -13 -14 -20
-58 -38 -58 -24 0 5 6 15 12 22 11 11 9 11 -8 1 -14 -8 -20 -20 -16 -32 5 -19
27 -24 37 -8 9 15 25 12 25 -4 0 -8 6 -16 13 -19 9 -3 9 -8 1 -17 -8 -8 -14
-9 -18 -1 -11 18 -26 13 -26 -8 0 -11 -5 -23 -11 -27 -8 -4 -3 -12 12 -21 l24
-14 -27 5 c-26 6 -49 -9 -26 -16 6 -2 8 -9 5 -15 -10 -15 -63 -26 -79 -17 -7
5 -23 7 -35 6 -11 -2 -24 2 -28 7 -3 6 -16 11 -28 11 -18 0 -17 -3 10 -16 31
-15 32 -19 27 -55 l-6 -38 51 1 c29 1 56 7 62 15 6 7 18 13 26 13 8 0 20 15
28 33 7 18 22 40 33 50 19 17 20 17 26 -13 4 -23 10 -31 23 -28 13 3 18 12 17
36 -1 18 2 32 7 32 5 0 9 -6 9 -13 0 -7 6 -21 13 -30 11 -15 16 -15 56 -1 31
10 47 12 55 4 7 -7 3 -10 -14 -11 -23 0 -23 -1 -5 -8 14 -6 24 -3 33 10 8 11
25 19 42 19 22 0 28 4 24 15 -4 8 -10 15 -16 15 -5 0 -7 -4 -4 -9 8 -12 -39
-20 -56 -9 -10 6 -10 10 2 18 13 9 13 10 0 10 -13 0 -13 2 -1 9 10 7 19 4 28
-7 12 -15 12 -15 6 2 -5 16 -3 18 11 13 10 -4 22 -7 27 -7 5 0 9 -7 9 -15 0
-8 5 -15 10 -15 6 0 10 5 10 11 0 6 7 8 16 5 10 -4 14 -2 10 6 -3 7 -9 21 -12
31 -4 9 -20 21 -37 25 -44 11 -54 33 -31 65 10 15 21 27 24 27 3 0 17 -21 30
-48 14 -26 29 -50 34 -53 5 -4 6 -11 2 -17 -3 -6 -1 -14 5 -18 8 -4 9 -3 5 4
-4 7 -4 12 1 12 17 0 38 -20 53 -52 9 -18 22 -32 30 -30 7 2 17 -3 22 -10 6
-10 10 -10 17 2 6 8 13 11 18 7 12 -13 -20 -28 -47 -22 -14 3 -36 8 -49 10
-13 2 -27 8 -30 14 -4 6 -21 14 -39 17 -25 5 -32 3 -32 -9 0 -8 -7 -20 -16
-28 -13 -10 -17 -10 -24 1 -10 16 -40 6 -40 -14 0 -7 -8 -16 -17 -18 -26 -6
-60 14 -55 32 4 12 1 11 -15 -3 -11 -9 -23 -14 -27 -10 -4 4 -4 -1 0 -11 5
-14 4 -17 -4 -12 -7 4 -12 2 -12 -3 0 -16 20 -13 26 4 4 8 10 15 15 15 5 0 9
-7 9 -15 0 -8 -6 -15 -14 -15 -7 0 -19 -6 -25 -14 -9 -10 -6 -17 13 -29 13 -9
27 -25 31 -36 5 -18 15 -19 116 -18 95 1 112 -2 121 -16 5 -10 7 -21 4 -26
-12 -19 5 -38 30 -33 19 3 24 0 24 -17 0 -27 26 -27 42 -1 7 11 21 20 30 20
10 0 20 10 24 25 4 16 13 25 25 25 10 0 19 5 19 10 0 6 5 10 11 10 6 0 9 -9 6
-20 -4 -17 -2 -18 16 -9 44 23 1 -10 -48 -36 -60 -33 -81 -50 -42 -36 17 7 27
7 27 1 0 -18 21 -10 63 24 23 19 54 37 70 41 27 7 43 22 34 31 -3 3 -16 -2
-29 -10 -24 -16 -38 -13 -38 7 0 5 7 6 16 3 11 -4 22 1 31 14 15 21 43 27 43
10 0 -5 18 -10 40 -10 28 0 40 -4 40 -14 0 -8 4 -18 10 -21 6 -3 7 1 4 9 -3 9
-1 16 5 16 14 0 79 -59 65 -60 -6 0 -17 7 -24 15 -7 8 -17 15 -23 15 -5 0 -2
-9 8 -20 10 -11 24 -20 31 -20 7 0 18 -9 24 -19 8 -16 18 -19 47 -15 21 3 57
6 81 7 25 1 47 8 53 17 8 12 9 10 4 -7 -4 -15 -2 -23 5 -23 7 0 14 9 17 20 3
11 14 20 24 20 18 0 23 10 20 38 -1 8 12 12 38 12 22 0 64 5 93 12 29 6 57 11
62 10 5 -2 6 4 2 13 -4 13 -2 14 14 5 14 -8 20 -8 20 0 0 6 5 8 10 5 6 -4 10
7 10 24 0 36 -15 41 -26 9 -7 -22 -7 -22 -15 -3 -4 11 -8 23 -8 26 -1 4 24 5
55 3 53 -4 55 -3 52 18 -2 16 2 23 14 23 10 0 23 9 31 19 12 17 15 17 29 2 9
-9 26 -16 37 -16 12 0 21 -4 21 -10 0 -5 10 -10 21 -10 12 0 27 -7 34 -17 17
-23 31 -10 40 34 4 21 12 44 18 52 9 11 9 15 -1 19 -9 3 -10 8 -2 17 8 10 0
12 -40 10 -40 -2 -50 1 -46 11 8 20 -11 17 -23 -3 -10 -17 -10 -17 -11 0 0 9
-4 17 -9 17 -5 0 -8 -11 -8 -24 -1 -18 4 -23 15 -19 10 4 13 2 8 -5 -4 -7 -1
-12 9 -12 9 0 14 4 11 9 -12 18 35 19 57 0 12 -10 17 -18 10 -19 -6 0 -15 4
-18 10 -10 16 -25 12 -19 -5 5 -12 -2 -15 -29 -15 -20 0 -39 5 -42 10 -4 6
-14 10 -23 8 -10 -1 -23 1 -29 5 -7 4 -22 3 -33 -3 -14 -8 -20 -8 -20 0 0 6
-6 10 -12 8 -22 -5 -18 10 13 43 26 27 29 29 29 11 0 -12 -5 -24 -10 -27 -12
-8 -13 -25 -1 -25 19 0 71 65 71 89 l0 26 -25 -30 c-18 -22 -24 -25 -25 -13 0
9 6 19 13 21 8 4 7 6 -3 6 -9 1 -21 -4 -27 -10 -7 -7 -9 -2 -5 18 5 25 4 27
-12 14 -24 -20 -30 -7 -12 26 8 15 15 22 16 15 0 -7 4 -11 8 -8 4 2 19 -4 32
-15 l25 -20 -25 6 c-20 5 -22 4 -8 -5 18 -11 48 -4 48 12 0 5 -4 6 -10 3 -5
-3 -10 1 -10 9 0 10 6 13 15 10 8 -4 15 -10 15 -15 0 -5 5 -9 12 -9 6 0 4 7
-5 18 -21 23 -22 36 -2 28 9 -3 15 -1 14 7 -3 27 2 35 31 40 17 4 30 13 30 21
0 7 7 16 15 20 8 3 15 13 15 23 -1 14 -8 10 -32 -16 -17 -19 -40 -36 -52 -37
-12 -1 -21 -3 -21 -4 0 -1 -31 -4 -70 -7 -38 -3 -74 -10 -78 -16 -4 -7 -6 4
-5 23 3 32 6 34 37 35 24 0 39 8 55 28 22 27 46 36 46 17 0 -5 8 -3 19 6 16
14 17 21 8 50 -5 18 -14 31 -18 28 -5 -2 -5 -12 -2 -22 3 -9 3 -14 -2 -10 -4
4 -15 2 -23 -5 -13 -10 -15 -9 -9 5 3 10 2 18 -2 18 -5 0 -11 -6 -14 -12 -3
-10 -9 -8 -24 4 -15 14 -22 15 -31 6 -9 -9 -12 -8 -12 7 0 18 -2 18 -19 -4
-13 -17 -20 -20 -26 -12 -8 14 31 61 52 61 8 0 16 7 19 15 4 8 11 15 17 15 22
0 82 77 85 109 2 26 -1 31 -20 31 -13 0 -18 -4 -13 -8 16 -10 17 -62 2 -62 -6
0 -13 12 -14 28 -7 83 -1 94 53 85 26 -4 39 0 59 18 32 31 32 41 -2 34 -18 -3
-22 -2 -11 2 12 6 15 12 8 23 -5 8 -12 11 -16 8 -3 -4 -13 0 -22 8 -11 11 -12
18 -3 27 20 20 12 31 -9 12 -11 -10 -20 -24 -20 -32 0 -12 -13 -18 -33 -14 -5
1 -11 -7 -14 -18 -3 -12 -13 -19 -24 -18 -16 1 -17 4 -5 22 7 11 23 21 35 23
29 5 26 20 -4 18 -14 0 -27 -8 -30 -16 -5 -13 -7 -13 -16 0 -8 11 -9 9 -4 -10
4 -17 3 -21 -3 -11 -5 7 -14 11 -19 8 -5 -3 -7 9 -5 27 3 29 0 34 -21 40 -14
3 -27 13 -31 21 -4 12 0 14 22 9 15 -4 29 -11 30 -16 5 -12 76 -10 90 4 17 17
15 28 -4 28 -8 0 -13 -4 -10 -9 8 -13 -47 -21 -61 -9 -18 14 -16 28 3 28 8 0
12 5 9 10 -4 6 -10 8 -15 5 -12 -7 -63 5 -55 13 3 4 23 7 43 8 37 1 62 -10 62
-28 0 -5 -6 -6 -12 -2 -10 5 -10 4 -2 -5 13 -14 84 12 84 31 0 9 -3 9 -12 0
-14 -14 -52 -16 -44 -3 14 21 -7 41 -43 41 l-36 0 32 16 c18 9 30 20 27 25 -3
5 3 9 12 9 10 0 15 2 12 5 -3 3 -24 1 -47 -4 -30 -7 -41 -6 -38 2 4 14 40 25
84 26 24 1 31 5 27 16 -4 10 0 15 15 15 33 0 25 30 -10 37 -21 4 -28 10 -25
20 14 36 18 68 8 58 -6 -5 -12 -20 -14 -33 -2 -13 -16 -31 -33 -40 -16 -9 -33
-21 -37 -27 -4 -5 -10 -6 -14 -2 -4 4 -13 2 -21 -4 -10 -9 -13 -8 -13 4 0 18
32 39 52 34 7 -2 9 -2 5 1 -4 2 -2 11 4 19 20 23 -42 -6 -64 -30 -19 -21 -37
-16 -19 5 5 7 12 26 14 43 2 21 9 31 27 35 33 8 36 24 11 48 -14 13 -21 30
-19 48 1 16 1 36 1 46 -2 16 -63 58 -85 58 -7 0 -4 -5 6 -11 9 -6 15 -15 11
-20 -3 -5 2 -34 12 -65 9 -30 15 -57 12 -60 -9 -9 -48 66 -48 93 0 21 -4 24
-21 20 -15 -4 -19 -2 -15 9 3 8 0 14 -5 14 -6 0 -9 -8 -6 -19 2 -10 0 -25 -4
-34 -6 -10 -5 -18 1 -22 5 -3 10 -13 10 -21 0 -9 7 -22 15 -30 8 -9 15 -13 15
-10 0 3 12 -6 26 -19 32 -30 41 -31 47 -7 4 14 5 13 6 -3 1 -26 -17 -45 -36
-38 -12 5 -14 1 -9 -18 7 -23 6 -23 -14 4 -12 15 -28 27 -36 27 -22 0 -16 -17
8 -23 12 -4 19 -9 15 -13 -4 -4 -2 -13 4 -21 9 -10 8 -13 -2 -14 -8 -1 -3 -4
11 -8 l25 -7 -27 -18 c-21 -14 -31 -15 -48 -6 -30 16 -39 9 -27 -20 5 -14 9
-33 8 -42 -1 -10 3 -18 8 -18 6 0 11 11 11 24 0 14 5 28 11 32 9 5 10 -7 7
-44 -3 -28 -1 -55 4 -60 11 -11 -1 -64 -12 -57 -5 3 -12 0 -16 -6 -4 -8 -3 -9
4 -5 8 5 12 0 12 -13 0 -28 14 -26 34 4 22 33 43 32 48 -4 4 -26 2 -28 -15
-17 -15 9 -21 7 -33 -8 -22 -30 -17 -41 7 -15 11 13 17 17 13 9 -13 -24 -15
-48 -4 -55 13 -8 13 -25 0 -25 -5 0 -10 6 -10 14 0 8 -11 23 -25 34 -14 11
-25 26 -25 33 0 11 -3 11 -10 -1 -9 -13 -11 -13 -20 0 -8 13 -10 12 -10 -2 0
-10 -4 -18 -9 -18 -5 0 -9 21 -9 47 0 41 1 46 12 30 20 -26 26 -21 13 12 -8
22 -8 36 1 55 10 23 1 39 -11 19 -2 -5 -2 -1 1 7 4 13 3 46 -2 90 -1 9 -5 20
-8 25 -14 22 -10 121 6 157 17 40 14 63 -11 72 -18 7 -36 -2 -28 -14 3 -5 1
-11 -5 -15 -5 -3 -10 -2 -10 3 0 6 -18 17 -40 26 -38 15 -42 15 -68 -1 -30
-19 -42 -33 -42 -48 0 -5 5 -3 11 5 8 11 9 7 5 -19 -5 -29 -4 -32 9 -21 22 18
29 6 8 -12 -18 -16 -35 -21 -64 -19 -24 2 -23 74 2 114 10 18 22 39 25 47 18
45 28 58 40 53 8 -3 14 0 14 6 0 6 -8 11 -17 11 -13 0 -18 9 -19 28 -4 75 -9
93 -27 113 -19 21 -21 21 -33 4 -7 -10 -15 -23 -18 -29 -3 -7 -9 -5 -18 5 -7
9 -24 16 -37 15 -13 -1 -26 6 -29 14 -4 12 -2 13 9 3 19 -19 26 -16 38 17 7
22 7 29 -1 24 -6 -4 -22 -8 -35 -10 -17 -2 -23 3 -23 17 0 10 -4 19 -10 19 -5
0 -10 -7 -10 -15 0 -20 -16 -19 -24 1 -4 11 -14 14 -35 9 -28 -6 -30 -4 -29
24 1 17 4 31 8 31 4 0 10 16 12 35 3 24 0 35 -9 35 -9 0 -11 -8 -7 -27 6 -22
4 -25 -9 -20 -10 4 -20 -1 -26 -11 -9 -15 -10 -14 -11 6 0 19 -4 21 -27 16
-23 -6 -25 -4 -20 15 3 11 1 24 -4 27 -5 3 -9 -11 -9 -30z m85 -93 c4 -15 2
-23 -5 -23 -6 0 -9 4 -5 9 3 5 1 12 -5 16 -5 3 -10 14 -10 23 0 21 15 5 25
-25z m18 -43 c-3 -12 -8 -19 -11 -16 -5 6 5 36 12 36 2 0 2 -9 -1 -20z m-156
-12 c-3 -8 -6 -5 -6 6 -1 11 2 17 5 13 3 -3 4 -12 1 -19z m209 -74 c-6 -63
-16 -48 -15 22 1 55 2 63 9 40 5 -15 7 -44 6 -62z m-79 36 c0 -22 -2 -40 -6
-40 -4 0 -8 18 -9 40 -1 22 1 40 6 40 4 0 8 -18 9 -40z m278 -10 c-3 -5 -13
-10 -21 -10 -8 0 -14 5 -14 10 0 6 9 10 21 10 11 0 17 -4 14 -10z m-155 -4 c0
-3 -4 -8 -10 -11 -5 -3 -10 -1 -10 4 0 6 5 11 10 11 6 0 10 -2 10 -4z m-290
-15 c0 -13 -18 -24 -46 -27 -16 -1 -21 2 -17 13 5 12 7 12 15 1 7 -10 11 -10
21 5 13 18 27 23 27 8z m335 -9 c0 -18 -20 -15 -23 4 -3 10 1 15 10 12 7 -3
13 -10 13 -16z m38 -6 c4 -10 1 -13 -9 -9 -15 6 -19 23 -5 23 5 0 11 -7 14
-14z m-463 -11 c11 -13 10 -14 -4 -9 -9 3 -16 10 -16 15 0 13 6 11 20 -6z
m370 5 c0 -5 -4 -10 -10 -10 -5 0 -10 5 -10 10 0 6 5 10 10 10 6 0 10 -4 10
-10z m-240 -20 c-7 -4 -9 -13 -6 -19 4 -6 2 -11 -3 -11 -12 0 -14 11 -5 34 3
9 11 13 16 10 6 -4 6 -9 -2 -14z m404 5 c-4 -8 -10 -12 -15 -9 -14 8 -10 24 6
24 9 0 12 -6 9 -15z m-564 -10 c0 -8 -4 -15 -10 -15 -5 0 -10 7 -10 15 0 8 5
15 10 15 6 0 10 -7 10 -15z m292 -23 c-4 -11 -6 -11 -14 0 -7 9 -8 3 -4 -17 4
-16 3 -25 -1 -18 -5 7 -14 9 -21 4 -10 -6 -10 -10 2 -20 17 -15 61 3 50 20 -4
7 1 9 12 7 11 -2 18 -10 17 -16 -2 -7 4 -12 12 -12 8 0 15 -6 15 -13 0 -25
-12 -26 -30 -5 -9 12 -22 18 -28 14 -33 -20 14 -51 64 -41 35 6 46 28 19 39
-17 6 -19 15 -5 36 8 13 11 13 19 1 12 -19 34 -3 28 20 -3 10 -1 22 4 25 5 3
9 -1 9 -10 0 -8 6 -17 13 -20 9 -3 7 -8 -5 -16 -9 -6 -15 -17 -12 -25 4 -8 1
-15 -6 -15 -6 0 -8 5 -5 10 3 6 -1 10 -10 10 -13 0 -14 -4 -5 -21 12 -22 -1
-49 -25 -49 -8 0 -15 -5 -17 -11 -2 -6 -14 -5 -33 5 -16 8 -38 14 -50 12 -11
-2 -14 -1 -7 1 14 5 16 19 4 27 -5 3 -18 -4 -30 -14 -12 -11 -28 -20 -37 -20
-8 0 -15 -6 -15 -13 0 -9 -12 -14 -32 -14 -18 0 -45 -4 -60 -8 -18 -5 -28 -3
-28 4 0 6 -10 11 -22 12 -15 0 -18 2 -8 6 8 3 25 15 38 26 18 17 22 18 22 4 0
-9 -5 -19 -10 -22 -6 -4 -7 -11 -4 -17 4 -6 16 2 30 18 13 16 21 21 18 12 -4
-13 -1 -18 11 -18 9 0 14 4 11 8 -3 5 15 14 40 20 49 13 58 36 19 46 -28 7
-33 21 -10 30 8 3 12 12 9 21 -3 8 -1 15 5 15 6 0 11 -9 11 -21 0 -11 5 -17
10 -14 6 4 8 11 5 16 -3 5 0 15 7 22 15 17 38 0 30 -21z m-253 -23 c-9 -5 -16
-3 -21 9 -13 33 -8 42 13 21 17 -17 19 -23 8 -30z m361 41 c0 -5 -4 -10 -10
-10 -5 0 -10 5 -10 10 0 6 5 10 10 10 6 0 10 -4 10 -10z m90 -20 c0 -11 -4
-20 -8 -20 -4 0 -8 9 -9 20 -1 11 2 20 8 20 5 0 9 -9 9 -20z m-410 0 c0 -5 -4
-10 -10 -10 -5 0 -10 5 -10 10 0 6 5 10 10 10 6 0 10 -4 10 -10z m50 -14 c5
-13 14 -27 19 -31 6 -3 11 -10 11 -15 0 -5 -13 5 -30 22 -31 30 -38 48 -20 48
6 0 15 -11 20 -24z m405 14 c3 -5 -1 -10 -9 -10 -9 0 -16 5 -16 10 0 6 4 10 9
10 6 0 13 -4 16 -10z m-525 -34 c0 -8 5 -16 12 -18 14 -5 3 -38 -13 -38 -6 0
-8 7 -5 16 3 8 1 24 -4 35 -7 13 -7 19 0 19 5 0 10 -6 10 -14z m466 -5 c11 9
14 7 14 -10 0 -11 -4 -21 -8 -21 -12 0 -32 22 -31 35 0 5 3 4 6 -3 4 -10 8
-10 19 -1z m-356 -22 c0 -6 -7 -8 -17 -5 -9 4 -20 1 -25 -6 -6 -10 -8 -8 -8 5
0 12 8 17 25 17 14 0 25 -5 25 -11z m444 -8 c3 -5 -8 -11 -24 -13 -29 -4 -37
1 -23 15 9 10 41 9 47 -2z m-110 -26 c3 -8 1 -15 -3 -15 -5 0 -11 7 -15 15 -3
8 -1 15 3 15 5 0 11 -7 15 -15z m-184 -35 c0 -5 -4 -10 -9 -10 -6 0 -13 5 -16
10 -3 6 1 10 9 10 9 0 16 -4 16 -10z m40 0 c0 -5 -2 -10 -4 -10 -3 0 -8 5 -11
10 -3 6 -1 10 4 10 6 0 11 -4 11 -10z m638 -53 c2 -33 7 -55 13 -52 10 7 13
-18 2 -28 -13 -14 -34 48 -28 83 4 23 3 30 -4 21 -7 -11 -11 -10 -20 7 -16 29
-14 34 12 30 19 -3 22 -10 25 -61z m-88 43 c0 -5 -5 -10 -11 -10 -5 0 -7 5 -4
10 3 6 8 10 11 10 2 0 4 -4 4 -10z m-790 -10 c0 -5 -2 -10 -4 -10 -3 0 -8 5
-11 10 -3 6 -1 10 4 10 6 0 11 -4 11 -10z m594 4 c14 -5 14 -7 0 -21 -17 -17
-42 -3 -30 16 8 13 9 13 30 5z m-274 -14 c0 -5 -5 -10 -11 -10 -5 0 -7 5 -4
10 3 6 8 10 11 10 2 0 4 -4 4 -10z m-237 -14 c3 -8 3 -16 0 -19 -7 -8 -32 16
-26 26 7 11 20 8 26 -7z m282 4 c3 -5 1 -10 -4 -10 -6 0 -11 5 -11 10 0 6 2
10 4 10 3 0 8 -4 11 -10z m-752 -14 c6 -15 -27 -66 -42 -66 -10 0 -1 51 12 68
13 16 24 15 30 -2z m383 -23 c-11 -11 -17 4 -9 23 7 18 8 18 11 1 2 -10 1 -21
-2 -24z m40 22 c11 -27 -2 -37 -14 -11 -7 16 -8 26 -1 26 5 0 12 -7 15 -15z
m114 5 c0 -5 -5 -10 -11 -10 -5 0 -7 5 -4 10 3 6 8 10 11 10 2 0 4 -4 4 -10z
m-431 -65 c16 -9 13 -42 -3 -48 -8 -3 -17 -2 -20 4 -2 5 -3 4 -2 -3 5 -20 -13
-48 -29 -48 -8 0 -15 -9 -15 -20 0 -22 -34 -28 -60 -9 -13 9 -12 10 2 5 11 -3
22 2 28 14 7 14 7 20 0 20 -5 0 -10 -4 -10 -10 0 -5 -7 -10 -15 -10 -9 0 -15
9 -15 25 0 26 63 95 87 95 7 0 16 7 20 17 6 14 7 14 14 -4 4 -12 12 -24 18
-28z m391 35 c0 -5 -5 -10 -11 -10 -5 0 -7 5 -4 10 3 6 8 10 11 10 2 0 4 -4 4
-10z m40 0 c0 -5 -7 -10 -15 -10 -8 0 -15 5 -15 10 0 6 7 10 15 10 8 0 15 -4
15 -10z m483 -12 c9 8 23 9 37 4 20 -7 20 -9 5 -22 -14 -12 -18 -12 -26 1 -7
11 -9 11 -9 0 0 -8 -7 -11 -20 -8 -10 3 -21 0 -22 -5 -2 -6 -11 -9 -20 -7 -12
3 -13 9 -7 27 7 19 11 21 28 10 15 -9 23 -9 34 0z m-628 -8 c-3 -5 -16 -10
-28 -9 -20 1 -20 2 3 9 14 4 26 8 28 9 2 1 0 -3 -3 -9z m430 -31 c11 -11 -9
-12 -54 -3 -17 4 -31 11 -31 16 0 11 71 0 85 -13z m-420 1 c3 -5 -1 -10 -9
-10 -9 0 -16 5 -16 10 0 6 4 10 9 10 6 0 13 -4 16 -10z m378 -24 c5 -12 -24
-15 -189 -16 -115 0 -194 3 -194 9 0 17 23 19 201 20 145 1 178 -2 182 -13z
m277 5 c0 -9 -110 -19 -130 -13 -6 2 -8 8 -4 13 7 12 134 12 134 0z m-800 -10
c0 -5 10 -12 23 -14 12 -2 -8 -4 -45 -5 -36 0 -71 -2 -76 -6 -5 -3 -8 -55 -6
-116 1 -60 -1 -110 -4 -110 -4 0 -7 -11 -7 -24 0 -13 3 -22 6 -20 4 2 10 -4
13 -13 4 -9 1 -20 -6 -25 -21 -13 -28 -9 -29 15 -1 19 -2 19 -6 3 -3 -12 3
-26 18 -39 13 -10 17 -16 9 -12 -10 4 -9 1 3 -8 20 -17 24 -72 4 -64 -8 3 -13
-3 -13 -14 0 -11 3 -19 6 -19 3 0 5 -48 4 -107 0 -60 3 -113 8 -119 5 -7 5
-22 0 -35 -12 -32 -14 -109 -3 -109 5 0 7 -25 5 -55 -2 -30 0 -55 5 -55 5 0
11 -9 14 -20 3 -11 2 -20 -3 -20 -12 0 -26 22 -41 62 -11 33 -11 40 5 57 13
14 14 20 4 23 -9 3 -13 26 -14 73 0 44 -4 70 -12 73 -7 2 -12 8 -12 13 0 6 5
7 10 4 6 -4 10 5 10 19 0 14 -4 26 -10 26 -15 0 -12 57 3 63 15 6 11 77 -4 77
-5 0 -9 5 -9 10 0 6 7 10 15 10 12 0 13 4 5 19 -6 12 -7 29 -1 43 7 20 6 24
-10 24 -12 0 -19 -7 -19 -18 0 -10 -5 -18 -11 -18 -6 0 -8 7 -5 16 5 14 4 15
-9 4 -17 -14 -20 -31 -4 -28 17 4 33 -27 24 -48 -4 -11 -7 -24 -6 -31 2 -13
-62 -83 -75 -83 -17 0 -38 19 -31 27 5 4 12 1 17 -7 8 -12 15 -9 40 18 17 19
28 38 24 43 -3 6 0 16 6 24 10 12 9 15 -4 15 -10 0 -16 -9 -16 -24 0 -13 -9
-34 -21 -47 l-21 -24 7 25 c4 14 9 43 12 65 3 27 18 55 44 87 34 41 39 53 40
100 1 41 3 48 9 28 7 -23 8 -21 9 12 1 20 4 44 7 52 5 12 -3 19 -25 27 -43 15
-59 46 -34 65 10 7 26 16 36 19 13 5 17 18 17 56 l0 49 65 0 c36 0 65 -4 65
-9z m650 -5 c0 -3 -4 -8 -10 -11 -5 -3 -10 -1 -10 4 0 6 5 11 10 11 6 0 10 -2
10 -4z m-594 -45 c-3 -5 -1 -33 5 -64 8 -39 8 -60 0 -73 -9 -17 -10 -17 -11
-1 0 9 -6 17 -12 18 -7 0 -4 4 7 9 19 8 19 9 -3 9 -21 1 -22 2 -8 17 9 8 16
20 16 25 0 12 -17 12 -25 -1 -3 -5 -10 -10 -16 -10 -5 0 -9 5 -9 10 0 6 7 10
15 10 8 0 16 6 16 13 1 6 2 17 4 22 1 6 3 13 3 18 1 4 7 7 13 7 5 0 8 -4 5 -9z
m591 -31 c2 -24 -2 -30 -17 -30 -23 0 -24 1 -8 35 15 33 23 32 25 -5z m-658
-5 c7 4 8 0 5 -10 -9 -21 -38 -15 -43 10 -3 17 -1 17 12 6 9 -7 21 -10 26 -6z
m732 -9 c-13 -14 -30 -22 -37 -19 -17 6 -14 11 18 29 37 20 43 16 19 -10z
m-916 -5 c-3 -6 -14 -11 -23 -11 -13 0 -13 2 4 14 21 15 30 14 19 -3z m338 -3
c-14 -16 -43 -25 -43 -14 0 2 -2 10 -5 18 -4 9 5 13 30 14 33 0 34 0 18 -18z
m127 11 c0 -5 4 -8 9 -4 5 3 13 0 16 -6 11 -17 -2 -21 -24 -7 -22 14 -28 28
-11 28 6 0 10 -5 10 -11z m190 1 c0 -5 -4 -10 -10 -10 -5 0 -10 -6 -10 -14 0
-9 -7 -12 -20 -9 -26 7 -25 16 3 29 29 15 37 16 37 4z m130 -2 c13 5 13 3 1
-12 -8 -9 -20 -15 -26 -12 -7 2 -17 0 -23 -6 -6 -6 -9 -1 -9 16 0 21 3 23 21
17 11 -5 28 -6 36 -3z m-210 -8 c0 -5 -11 -10 -25 -10 -14 0 -25 5 -25 10 0 6
11 10 25 10 14 0 25 -4 25 -10z m753 -10 c-6 -23 -33 -27 -33 -6 0 13 13 23
32 25 3 1 4 -8 1 -19z m-1043 0 c0 -5 -4 -10 -10 -10 -5 0 -10 5 -10 10 0 6 5
10 10 10 6 0 10 -4 10 -10z m997 -6 c-3 -3 -12 -4 -19 -1 -8 3 -5 6 6 6 11 1
17 -2 13 -5z m-1108 -36 c-8 -14 -14 -18 -17 -10 -4 13 17 46 25 38 3 -2 -1
-15 -8 -28z m671 22 c0 -5 -9 -14 -20 -20 -16 -9 -18 -8 -14 5 3 8 10 12 15 9
5 -3 9 0 9 5 0 6 2 11 5 11 3 0 5 -4 5 -10z m-277 -27 c-7 -2 -21 -2 -30 0
-10 3 -4 5 12 5 17 0 24 -2 18 -5z m284 -8 c0 -8 -6 -15 -14 -15 -17 0 -17 17
0 23 6 3 12 6 13 6 0 1 1 -6 1 -14z m348 5 c3 -5 1 -10 -4 -10 -6 0 -11 5 -11
10 0 6 2 10 4 10 3 0 8 -4 11 -10z m-630 -30 c-10 -11 -24 -20 -32 -20 -7 0
-13 9 -13 20 0 16 7 20 32 20 30 0 31 0 13 -20z m612 -27 c-3 -3 -10 -2 -16 2
-7 4 -7 10 2 20 10 11 13 11 15 -2 2 -8 1 -17 -1 -20z m-337 23 c0 -11 -19
-15 -25 -6 -3 5 1 10 9 10 9 0 16 -2 16 -4z m-630 -26 c0 -5 -2 -10 -4 -10 -3
0 -8 5 -11 10 -3 6 -1 10 4 10 6 0 11 -4 11 -10z m-190 -70 c0 -5 -4 -10 -10
-10 -5 0 -10 5 -10 10 0 6 5 10 10 10 6 0 10 -4 10 -10z m1194 4 c9 -3 16 -10
16 -14 0 -10 -38 -1 -46 11 -6 10 7 12 30 3z m-1444 -24 c0 -5 -4 -10 -10 -10
-5 0 -10 5 -10 10 0 6 5 10 10 10 6 0 10 -4 10 -10z m50 -12 c0 -21 -17 -41
-24 -30 -3 6 -2 13 4 17 6 4 8 11 5 16 -4 5 -1 9 4 9 6 0 11 -6 11 -12z m770
-40 c0 -6 -11 -8 -25 -6 -18 4 -25 1 -25 -10 0 -11 -3 -12 -14 -3 -7 6 -28 9
-47 5 -33 -5 -33 -5 -14 11 11 9 28 14 38 11 9 -2 17 -1 17 3 0 4 16 5 35 3
19 -2 35 -9 35 -14z m-72 -36 c2 -7 -7 -12 -23 -12 -15 0 -24 -4 -20 -10 4 -6
11 -8 16 -5 5 4 9 1 9 -4 0 -6 -5 -11 -11 -11 -5 0 -7 -5 -4 -11 5 -7 14 -4
28 8 l21 18 -17 -27 c-15 -24 -15 -28 -2 -28 8 0 15 7 15 15 0 8 4 15 8 15 4
0 8 -9 8 -19 0 -11 -4 -18 -7 -15 -12 7 -20 -12 -13 -30 8 -21 24 -20 25 2 1
11 4 8 8 -8 9 -30 2 -70 -11 -70 -5 0 -6 5 -2 12 5 8 2 9 -11 4 -11 -4 -22 -1
-27 6 -6 8 -7 -4 -3 -29 4 -26 3 -43 -3 -43 -6 0 -8 8 -5 19 6 22 -8 33 -27
21 -11 -7 -11 -11 -1 -24 12 -14 10 -16 -10 -17 -14 -1 -7 -5 16 -8 22 -4 48
-3 58 2 25 12 31 3 12 -17 -9 -9 -13 -16 -8 -17 4 -1 16 -2 27 -3 30 -2 43
-31 23 -51 -9 -9 -17 -12 -17 -6 0 5 5 13 10 16 17 10 11 25 -7 18 -12 -5 -14
-3 -8 7 6 9 4 11 -4 5 -7 -4 -11 -16 -8 -26 3 -11 1 -19 -4 -19 -5 0 -9 9 -9
20 0 11 -4 20 -10 20 -5 0 -10 -5 -10 -11 0 -8 -5 -8 -15 1 -12 10 -15 10 -15
-4 0 -9 7 -16 16 -16 9 0 14 -6 11 -12 -2 -8 -19 -12 -41 -11 -48 2 -47 -15 2
-19 24 -2 41 2 49 12 10 13 14 13 30 -5 10 -11 12 -14 4 -8 -12 10 -18 9 -34
-4 -13 -12 -34 -17 -70 -16 l-52 1 42 -10 c24 -5 55 -15 70 -23 23 -12 24 -15
10 -21 -10 -3 -29 -4 -42 -2 -14 3 -25 2 -25 -2 0 -12 45 -17 68 -9 13 5 24 4
28 -2 4 -7 12 -5 23 5 13 12 25 14 49 6 18 -5 35 -9 37 -9 3 -1 6 -4 8 -8 1
-3 -63 -8 -142 -11 -113 -3 -145 -1 -152 9 -6 10 -9 11 -9 2 0 -9 -16 -13 -47
-13 l-48 0 44 27 c38 22 47 24 65 13 20 -12 20 -11 -1 12 -13 13 -23 29 -23
35 0 6 10 9 23 7 l22 -5 -22 10 c-13 6 -23 15 -23 21 0 5 10 11 23 11 16 1 18
2 5 6 -17 4 -19 9 -17 31 0 4 8 6 17 5 10 -1 12 0 4 3 -7 3 -17 15 -23 26 -10
18 -8 19 13 13 20 -5 20 -4 6 5 -23 14 -23 34 -1 26 16 -6 16 -6 0 12 -23 25
-21 35 6 29 22 -6 22 -6 -2 12 -15 11 -20 21 -13 25 6 4 9 13 5 21 -3 8 0 15
6 15 6 0 8 7 4 16 -5 14 -1 15 28 10 l34 -7 -35 20 c-33 19 -34 20 -10 21 22
1 23 2 8 11 -22 12 -24 31 -3 22 9 -3 15 -2 14 3 -5 29 3 36 35 32 20 -2 32 0
29 5 -3 5 0 8 7 5 8 -2 16 -10 18 -16z m132 14 c0 -3 -4 -8 -10 -11 -5 -3 -10
-1 -10 4 0 6 5 11 10 11 6 0 10 -2 10 -4z m20 -20 c0 -2 -7 -7 -16 -10 -8 -3
-12 -2 -9 4 6 10 25 14 25 6z m394 -22 c3 -9 6 -24 6 -35 0 -10 7 -19 15 -19
8 0 15 -4 15 -10 0 -5 -8 -10 -18 -10 -16 0 -52 59 -52 83 0 14 28 6 34 -9z
m-487 -31 c-4 -3 -2 -12 4 -20 9 -9 8 -13 0 -13 -6 0 -11 2 -11 4 0 2 -3 11
-6 20 -4 10 -1 16 7 16 7 0 9 -3 6 -7z m33 3 c0 -3 -4 -8 -10 -11 -5 -3 -10
-1 -10 4 0 6 5 11 10 11 6 0 10 -2 10 -4z m70 -6 c0 -5 -5 -10 -11 -10 -5 0
-7 5 -4 10 3 6 8 10 11 10 2 0 4 -4 4 -10z m395 -60 c15 -8 24 -19 20 -28 -3
-7 -5 -18 -5 -24 0 -6 -9 -8 -20 -5 -11 3 -20 0 -21 -6 -3 -33 4 -74 15 -87
24 -29 28 -40 12 -40 -9 0 -16 5 -16 11 0 7 -6 17 -14 23 -14 11 -22 92 -17
186 3 44 3 44 12 14 5 -17 20 -37 34 -44z m80 59 c4 -5 18 -14 31 -19 31 -12
35 -60 4 -60 -10 0 -24 -8 -29 -17 -9 -15 -12 -16 -20 -3 -12 18 -5 31 14 24
22 -9 31 25 11 44 -10 10 -16 12 -16 4 0 -7 -4 -12 -9 -12 -5 0 -8 11 -8 25 0
26 11 33 22 14z m192 5 c-3 -3 -12 -4 -19 -1 -8 3 -5 6 6 6 11 1 17 -2 13 -5z
m63 -9 c11 -13 8 -15 -19 -15 -21 0 -31 5 -31 15 0 8 8 15 19 15 10 0 24 -7
31 -15z m-760 -15 c0 -5 -2 -10 -4 -10 -3 0 -8 5 -11 10 -3 6 -1 10 4 10 6 0
11 -4 11 -10z m649 -24 c-12 -13 -12 -53 1 -61 6 -3 10 -11 10 -16 0 -13 -20
9 -38 39 -14 24 -8 47 10 36 6 -4 8 1 3 16 -6 20 -5 21 8 9 9 -9 12 -18 6 -23z
m-40 5 c-7 -11 -9 -26 -4 -37 12 -28 6 -61 -17 -100 -25 -43 -34 -43 -43 2 -7
42 -2 52 20 34 12 -10 18 -11 28 -1 9 10 8 11 -8 5 -19 -8 -19 -7 -3 18 10 15
14 29 9 32 -5 3 -11 -3 -14 -14 -3 -13 -11 -18 -20 -14 -12 4 -10 10 9 29 13
13 24 33 24 45 0 11 7 20 15 20 12 0 13 -4 4 -19z m-1322 -13 c-2 -7 -10 -12
-16 -10 -6 1 -11 -3 -11 -10 0 -6 -2 -9 -5 -6 -10 9 7 38 22 38 8 0 13 -6 10
-12z m773 -6 c0 -15 -11 -21 -27 -15 -12 5 -12 7 -1 14 17 11 28 11 28 1z
m-121 -61 c-2 -25 -7 -37 -15 -34 -6 2 -18 -3 -27 -11 -9 -9 -18 -16 -21 -16
-10 0 -6 30 4 31 6 1 16 2 23 3 6 0 16 16 22 34 12 42 16 41 14 -7z m121 24
c-7 -8 -17 -12 -22 -9 -6 4 -5 10 3 15 22 14 33 10 19 -6z m439 -50 c0 -5 -9
1 -19 14 -11 13 -20 28 -20 35 0 6 9 0 20 -14 11 -14 20 -29 19 -35z m-534 25
c3 -5 1 -10 -4 -10 -6 0 -11 5 -11 10 0 6 2 10 4 10 3 0 8 -4 11 -10z m35 0
c0 -5 -5 -10 -11 -10 -5 0 -7 5 -4 10 3 6 8 10 11 10 2 0 4 -4 4 -10z m60 -21
c0 -5 -4 -8 -9 -5 -5 4 -12 0 -14 -6 -3 -8 -6 -6 -6 5 -1 9 6 17 14 17 8 0 15
-5 15 -11z m368 -17 c2 -12 8 -22 13 -22 9 0 18 -18 34 -70 l8 -25 -22 20
c-13 11 -20 27 -18 37 3 11 0 18 -9 18 -8 0 -14 5 -14 10 0 18 -2 25 -12 44
-8 14 -7 17 4 14 7 -3 14 -14 16 -26z m-1143 -2 c3 -5 1 -10 -4 -10 -6 0 -11
5 -11 10 0 6 2 10 4 10 3 0 8 -4 11 -10z m91 -25 c5 -30 2 -39 -21 -61 -20
-18 -30 -22 -35 -14 -4 7 -13 9 -19 6 -6 -4 -11 -2 -11 3 0 6 5 11 10 11 6 0
10 11 10 25 0 25 31 65 50 65 5 0 12 -16 16 -35z m694 15 c0 -5 -4 -10 -10
-10 -5 0 -10 5 -10 10 0 6 5 10 10 10 6 0 10 -4 10 -10z m580 -20 c-8 -5 -22
-9 -30 -9 -10 0 -8 3 5 9 27 12 43 12 25 0z m-700 -4 c0 -3 -4 -8 -10 -11 -5
-3 -10 -1 -10 4 0 6 5 11 10 11 6 0 10 -2 10 -4z m100 -26 c-8 -5 -17 -7 -19
-4 -3 3 1 9 9 14 8 5 17 7 19 4 3 -3 -1 -9 -9 -14z m-60 0 c0 -5 -4 -10 -10
-10 -5 0 -10 5 -10 10 0 6 5 10 10 10 6 0 10 -4 10 -10z m-755 -31 c12 -19 -5
-23 -22 -6 -16 16 -16 17 -1 17 9 0 20 -5 23 -11z m830 1 c3 -5 1 -10 -4 -10
-6 0 -11 5 -11 10 0 6 2 10 4 10 3 0 8 -4 11 -10z m343 -10 c7 -11 19 -20 28
-20 8 0 12 5 9 10 -9 14 2 12 30 -6 14 -9 21 -22 18 -30 -4 -10 3 -14 23 -15
16 0 23 -3 17 -6 -7 -2 -13 -9 -13 -15 0 -5 -7 -16 -16 -25 -12 -13 -18 -13
-27 -3 -8 9 -8 11 -1 7 7 -4 18 1 25 10 13 15 11 16 -9 11 -21 -6 -23 -4 -17
21 6 27 5 28 -40 27 -25 -1 -45 1 -45 4 0 3 -3 15 -6 28 -8 27 7 29 24 2z
m-1138 -21 c0 -10 6 -19 14 -19 28 0 76 -34 70 -50 -4 -8 -6 -23 -6 -32 1 -21
-14 -24 -21 -5 -4 7 -6 6 -6 -5 -1 -9 5 -19 12 -22 9 -5 9 -7 0 -12 -7 -3 -16
-6 -20 -6 -5 0 -13 -12 -20 -27 l-11 -26 -1 28 c-1 15 -5 27 -10 27 -5 0 -7
-8 -4 -19 3 -10 0 -22 -6 -25 -7 -5 -11 7 -11 33 0 22 -5 43 -10 46 -6 4 -8
10 -5 15 3 5 -3 15 -15 22 -25 16 -27 48 -1 48 13 0 20 10 25 31 6 32 26 31
26 -2z m788 -17 c2 -7 -2 -10 -12 -6 -9 3 -16 11 -16 16 0 13 23 5 28 -10z
m-88 -17 c0 -8 -2 -15 -4 -15 -2 0 -6 7 -10 15 -3 8 -1 15 4 15 6 0 10 -7 10
-15z m657 -15 c-3 -10 0 -21 7 -24 8 -3 8 -5 -1 -5 -16 -1 -26 17 -19 34 8 22
19 18 13 -5z m-573 -25 c-4 -22 -2 -41 6 -50 8 -10 9 -15 1 -15 -11 0 -27 46
-23 67 2 8 -3 10 -13 7 -8 -3 -15 -1 -15 4 0 6 10 13 23 15 12 2 23 5 25 6 2
0 0 -15 -4 -34z m394 -31 c-2 -19 -6 -23 -23 -18 -19 6 -19 6 -2 -13 21 -24
22 -37 2 -29 -8 3 -15 1 -15 -4 0 -6 5 -10 11 -10 5 0 7 -5 4 -10 -3 -6 0 -17
9 -25 19 -19 26 -19 26 0 0 9 9 15 25 15 25 0 25 1 10 30 -20 38 -20 37 15 45
17 4 30 12 30 18 0 7 4 7 13 -2 10 -10 9 -14 -5 -22 -11 -6 -18 -22 -18 -39 0
-22 -6 -31 -27 -38 -16 -6 -22 -11 -15 -11 6 -1 12 -6 12 -12 0 -6 -6 -9 -14
-6 -7 3 -26 -3 -41 -13 -15 -10 -34 -16 -40 -13 -18 6 -29 -15 -16 -31 8 -9 4
-22 -14 -49 -37 -54 -30 -57 11 -3 21 25 39 44 42 41 3 -3 0 -11 -6 -17 -17
-17 -15 -28 5 -28 22 0 11 -10 -18 -15 -13 -3 -31 -13 -39 -23 -21 -26 -76
-63 -83 -56 -3 4 -21 -3 -40 -15 -31 -19 -110 -31 -93 -14 4 4 15 8 24 8 9 0
18 6 18 13 1 6 2 19 3 28 0 8 6 12 12 9 6 -4 8 -13 5 -21 -3 -7 -1 -16 4 -19
6 -4 10 -1 10 4 0 6 7 11 15 11 22 0 84 34 85 45 0 6 9 28 20 49 13 27 16 44
10 56 -10 19 -2 92 10 85 5 -3 6 5 2 17 -4 17 -2 20 11 15 17 -6 31 18 20 36
-4 7 -10 3 -15 -9 -7 -15 -7 -14 -3 6 2 14 5 42 5 63 l0 38 30 -21 c21 -15 29
-29 28 -46z m-528 52 c0 -3 -4 -8 -10 -11 -5 -3 -10 -1 -10 4 0 6 5 11 10 11
6 0 10 -2 10 -4z m35 -16 c-3 -5 -14 -10 -23 -10 -15 0 -15 2 -2 10 20 13 33
13 25 0z m29 -14 c-3 -9 -10 -16 -15 -16 -6 0 -5 9 1 21 13 24 24 20 14 -5z
m606 -11 c0 -21 -17 -27 -24 -9 -10 25 -7 34 9 28 8 -4 15 -12 15 -19z m-1187
-20 c4 -8 2 -17 -3 -20 -6 -4 -10 3 -10 14 0 25 6 27 13 6z m717 -10 c0 -8 -4
-15 -10 -15 -5 0 -10 7 -10 15 0 8 5 15 10 15 6 0 10 -7 10 -15z m-725 -35
c-3 -5 -11 -10 -16 -10 -6 0 -7 5 -4 10 3 6 11 10 16 10 6 0 7 -4 4 -10z m299
-23 c-13 -35 -23 -13 -15 33 1 2 6 -1 11 -6 6 -6 8 -18 4 -27z m66 8 c0 -20
-5 -25 -25 -25 -18 0 -25 5 -25 20 0 25 17 26 23 3 4 -14 5 -12 6 5 1 30 21
28 21 -3z m41 -5 c5 0 9 4 9 10 0 5 7 7 15 4 8 -4 15 -1 15 5 0 9 44 11 163 8
158 -3 162 -4 165 -25 3 -20 -1 -22 -52 -22 -38 0 -56 4 -56 13 0 9 -2 9 -8 0
-5 -7 -52 -11 -144 -12 -127 0 -138 1 -138 18 0 24 14 37 18 17 2 -9 8 -16 13
-16z m-451 -1 c0 -5 -5 -9 -11 -9 -5 0 -8 -4 -5 -8 2 -4 1 -14 -3 -21 -7 -10
-13 -11 -27 -2 -18 10 -18 10 -1 11 10 0 16 4 13 9 -10 15 5 40 20 34 8 -3 14
-9 14 -14z m-95 -38 c3 -5 1 -12 -4 -15 -5 -3 -11 1 -15 9 -6 16 9 21 19 6z
m645 5 c0 -9 -30 -14 -35 -6 -4 6 3 10 14 10 12 0 21 -2 21 -4z m690 -26 c0
-24 -20 -37 -30 -19 -10 16 7 52 21 44 5 -4 9 -15 9 -25z m-1242 -12 c-7 -7
-20 -14 -28 -16 -8 -2 -20 -10 -27 -18 -10 -13 -12 -13 -18 5 -5 17 -9 18 -20
8 -8 -7 -10 -16 -4 -23 9 -11 2 -24 -13 -24 -17 0 -7 40 17 67 22 25 24 26 25
8 0 -16 2 -17 10 -5 5 8 12 11 16 8 4 -4 16 -1 28 8 24 16 35 1 14 -18z m-124
3 c3 -5 -8 -14 -24 -20 -21 -7 -30 -17 -30 -31 0 -23 -21 -23 -28 0 -3 7 0 10
7 6 7 -5 9 -1 5 9 -4 9 -13 14 -22 10 -12 -4 -13 -3 -3 9 7 8 18 13 26 10 7
-3 16 -1 20 5 8 13 42 14 49 2z m1240 -25 c-3 -8 -1 -17 5 -21 17 -10 13 -23
-10 -35 -27 -15 -34 -7 -13 14 12 13 13 20 4 31 -6 8 -9 19 -5 25 9 14 25 2
19 -14z m-1244 -11 c0 -8 -9 -15 -20 -15 -25 0 -26 17 -2 23 9 3 18 5 20 6 1
0 2 -6 2 -14z m1115 -29 c-3 -43 -31 -86 -59 -90 -6 -1 -16 -5 -22 -9 -22 -13
-24 39 -4 79 18 36 19 37 21 14 1 -14 1 -36 0 -50 -2 -23 0 -22 23 12 15 20
26 39 26 42 0 9 -24 2 -32 -9 -4 -5 -8 0 -8 13 0 15 6 22 20 22 11 0 20 5 20
10 0 6 4 10 9 10 6 0 8 -20 6 -44z m215 34 c0 -5 -9 -10 -20 -10 -11 0 -20 5
-20 10 0 6 9 10 20 10 11 0 20 -4 20 -10z m-1225 -10 c-3 -5 -12 -10 -18 -10
-7 0 -6 4 3 10 19 12 23 12 15 0z m210 -20 c3 -5 1 -10 -4 -10 -6 0 -11 5 -11
10 0 6 2 10 4 10 3 0 8 -4 11 -10z m251 -5 c11 -3 38 -16 59 -30 29 -20 36
-22 31 -9 -6 15 -4 15 10 3 10 -8 12 -15 5 -17 -6 -2 -11 -10 -11 -17 0 -24
24 -22 47 4 l22 26 1 -25 c0 -41 -13 -53 -51 -46 -30 6 -32 5 -14 -6 11 -6 29
-12 40 -13 17 0 20 -7 22 -45 1 -42 0 -40 -13 18 -2 12 -9 22 -14 22 -5 0 -7
-13 -3 -30 3 -20 1 -30 -6 -30 -7 0 -10 4 -7 9 10 16 -6 41 -26 41 -17 0 -20
-5 -14 -30 5 -28 -6 -41 -19 -20 -3 5 -12 7 -19 4 -7 -3 -19 2 -26 11 -11 13
-9 15 11 15 26 0 61 41 40 48 -6 2 -11 16 -11 32 0 22 -8 33 -37 50 -39 23
-65 21 -98 -5 -18 -14 -16 -14 13 0 33 16 69 14 58 -4 -3 -5 2 -7 13 -4 19 5
38 -13 26 -25 -3 -3 -10 -1 -14 6 -9 14 -31 13 -44 -3 -5 -6 -7 -3 -3 8 7 21
-1 22 -20 3 -10 -11 -11 -15 -1 -19 6 -2 9 -8 5 -12 -4 -4 -19 0 -33 9 -21 14
-29 15 -41 5 -11 -9 -14 -9 -14 2 0 11 -2 11 -10 -1 -15 -24 -25 -1 -13 30 7
18 7 32 2 36 -24 15 -2 21 64 17 39 -2 81 -6 93 -8z m397 -14 c6 -32 1 -41
-24 -41 -10 0 -19 -5 -19 -11 0 -5 5 -7 10 -4 12 7 13 -5 2 -22 -5 -8 -12 -2
-20 17 -14 31 -22 35 -94 45 -27 3 -48 10 -48 14 0 15 57 29 122 28 63 0 66
-1 71 -26z m-808 9 c3 -5 17 -10 29 -10 15 0 26 -7 29 -21 4 -14 2 -18 -6 -11
-7 5 -24 12 -39 16 -16 3 -28 11 -28 16 0 5 -8 7 -17 4 -15 -5 -16 -4 -3 5 19
13 27 14 35 1z m160 -21 c11 -17 0 -20 -21 -4 -17 13 -17 14 -2 15 9 0 20 -5
23 -11z m-362 -25 c-4 -10 -9 -12 -15 -6 -12 12 -1 35 12 27 5 -3 6 -13 3 -21z
m397 1 c0 -14 -4 -25 -10 -25 -5 0 -10 11 -10 25 0 14 5 25 10 25 6 0 10 -11
10 -25z m495 2 c15 -1 33 -10 39 -19 18 -30 -1 -31 -48 -3 -45 26 -60 40 -33
29 8 -3 27 -6 42 -7z m395 -16 c0 -5 -6 -12 -12 -14 -8 -4 -7 -6 4 -6 9 -1 18
-6 20 -11 2 -6 14 -7 34 -1 26 7 34 5 54 -16 18 -18 25 -21 31 -11 6 9 9 10 9
1 0 -7 -7 -16 -16 -21 -20 -11 -20 -21 3 -38 17 -13 17 -13 -5 -14 -27 0 -39
26 -23 51 10 17 8 19 -16 19 -19 0 -24 -3 -16 -11 12 -12 6 -49 -8 -49 -5 0
-16 11 -25 25 -18 27 -40 34 -30 10 9 -25 -30 -18 -51 9 -11 13 -30 26 -44 29
-23 4 -23 4 4 6 15 0 27 6 27 12 0 5 -5 7 -11 3 -7 -4 -10 -1 -7 7 4 12 28 21
71 28 4 0 7 -3 7 -8z m-673 -43 c-3 -8 -6 -5 -6 6 -1 11 2 17 5 13 3 -3 4 -12
1 -19z m303 3 c0 -5 -6 -16 -13 -23 -7 -7 -17 -22 -22 -33 -8 -19 -8 -19 -12
-2 -3 11 -11 16 -19 13 -8 -3 -14 1 -14 9 0 20 21 30 30 15 6 -10 11 -7 21 9
14 22 29 28 29 12z m-333 -8 c-4 -3 -1 -13 6 -22 11 -14 10 -14 -5 -2 -16 12
-16 31 -1 31 4 0 3 -3 0 -7z m433 3 c0 -2 -7 -7 -16 -10 -8 -3 -12 -2 -9 4 6
10 25 14 25 6z m-1112 -42 c-9 -9 -22 -14 -30 -11 -9 4 -6 8 10 12 12 4 22 12
22 18 0 6 3 7 7 3 4 -3 0 -14 -9 -22z m395 6 c-3 -12 0 -20 7 -20 10 0 10 -3
0 -15 -11 -13 -15 -13 -21 -3 -14 21 -10 58 5 58 9 0 12 -7 9 -20z m1167 10
c0 -5 -7 -10 -15 -10 -8 0 -15 5 -15 10 0 6 7 10 15 10 8 0 15 -4 15 -10z
m-266 -6 c23 -9 20 -27 -4 -21 -11 3 -22 1 -25 -3 -7 -11 -95 -9 -95 1 0 14
51 22 63 10 16 -16 30 -14 23 4 -6 16 10 20 38 9z m-344 -34 c0 -5 -9 -10 -21
-10 -11 0 -17 5 -14 10 3 6 13 10 21 10 8 0 14 -4 14 -10z m-1014 -9 c8 7 14
7 19 -1 3 -5 3 -10 -2 -11 -63 -8 -93 -7 -93 2 0 6 7 9 15 6 8 -4 17 -1 21 4
4 8 10 7 17 0 7 -7 14 -7 23 0z m1112 -9 c2 -7 -2 -10 -12 -6 -9 3 -16 11 -16
16 0 13 23 5 28 -10z m-819 -16 c10 -12 8 -13 -8 -9 -12 3 -18 9 -15 14 7 12
10 11 23 -5z m345 -2 c12 -30 6 -44 -16 -41 -16 1 -23 -3 -23 -18 0 -11 -6
-20 -13 -20 -7 0 -16 -6 -21 -13 -10 -17 -61 -44 -61 -32 0 4 5 10 11 12 9 3
9 9 0 25 -16 31 -14 43 9 43 12 0 17 -5 14 -14 -3 -8 -1 -17 5 -21 6 -3 11 1
11 9 0 9 7 16 15 16 9 0 18 7 21 15 4 8 12 15 20 15 8 0 14 5 14 10 0 6 -4 10
-10 10 -5 0 -10 5 -10 10 0 16 27 11 34 -6z m391 6 c3 -5 -1 -10 -9 -10 -8 0
-18 5 -21 10 -3 6 1 10 9 10 8 0 18 -4 21 -10z m144 -16 c6 4 11 0 11 -8 0 -9
9 -16 20 -16 11 0 20 -5 20 -11 0 -5 3 -8 8 -5 4 2 17 -13 29 -34 20 -34 21
-39 6 -44 -9 -4 -21 -2 -26 3 -5 5 -15 7 -22 4 -7 -2 -23 9 -35 25 -13 17 -28
28 -36 25 -9 -3 -14 2 -14 17 0 18 4 20 23 14 21 -6 21 -6 5 13 -10 11 -18 24
-18 29 0 5 4 3 9 -5 5 -7 14 -10 20 -7z m-589 -3 c0 -11 -31 -24 -39 -16 -3 3
1 10 9 15 19 12 30 12 30 1z m-300 -15 c0 -3 -4 -8 -10 -11 -5 -3 -10 -1 -10
4 0 6 5 11 10 11 6 0 10 -2 10 -4z m30 -16 c0 -5 -8 -10 -17 -10 -15 0 -16 2
-3 10 19 12 20 12 20 0z m690 -11 c0 -6 -4 -7 -10 -4 -5 3 -10 11 -10 16 0 6
5 7 10 4 6 -3 10 -11 10 -16z m102 -51 c2 -27 7 -32 24 -30 13 2 24 -4 28 -13
5 -13 1 -15 -17 -10 -12 4 -30 9 -39 11 -10 3 -18 10 -18 15 0 5 -11 14 -25
19 -29 11 -33 27 -7 33 42 11 51 7 54 -25z m-32 -39 c0 -11 -29 -19 -34 -10
-3 5 -3 10 -1 13 8 7 35 5 35 -3z"/>
<path d="M423 1768 c-6 -7 -13 -22 -16 -33 -7 -20 -7 -20 8 -1 8 11 15 23 15
27 0 4 8 10 18 12 14 4 14 5 1 6 -9 0 -21 -5 -26 -11z"/>
<path d="M450 1730 c0 -5 5 -10 10 -10 6 0 10 5 10 10 0 6 -4 10 -10 10 -5 0
-10 -4 -10 -10z"/>
<path d="M1010 1560 c0 -5 7 -7 15 -4 8 4 15 8 15 10 0 2 -7 4 -15 4 -8 0 -15
-4 -15 -10z"/>
<path d="M950 1250 c18 -12 30 -13 30 -2 0 4 -10 9 -22 9 -18 2 -20 0 -8 -7z"/>
<path d="M990 1230 c0 -5 -7 -10 -17 -10 -21 0 -9 -13 16 -17 15 -2 18 2 14
17 -6 21 -13 27 -13 10z"/>
<path d="M895 1190 c19 -8 73 -14 64 -6 -2 2 -22 6 -44 9 -28 5 -34 4 -20 -3z"/>
<path d="M895 1110 c3 -5 8 -10 11 -10 2 0 4 5 4 10 0 6 -5 10 -11 10 -5 0 -7
-4 -4 -10z"/>
<path d="M970 1076 c0 -2 7 -7 16 -10 8 -3 12 -2 9 4 -6 10 -25 14 -25 6z"/>
<path d="M910 1039 c-22 -6 -20 -7 13 -8 38 -1 47 3 25 11 -7 3 -24 1 -38 -3z"/>
<path d="M895 900 c3 -5 8 -10 11 -10 2 0 4 5 4 10 0 6 -5 10 -11 10 -5 0 -7
-4 -4 -10z"/>
<path d="M1530 1216 c0 -2 7 -9 15 -16 13 -11 14 -10 9 4 -5 14 -24 23 -24 12z"/>
<path d="M1685 1120 c3 -5 8 -10 11 -10 2 0 4 5 4 10 0 6 -5 10 -11 10 -5 0
-7 -4 -4 -10z"/>
<path d="M486 1095 c-5 -15 -9 -16 -15 -6 -6 9 -10 5 -15 -14 -4 -15 -5 -29
-3 -31 7 -8 49 45 45 57 -3 8 -7 6 -12 -6z"/>
<path d="M386 954 c-10 -25 -7 -54 5 -54 6 0 9 -7 5 -15 -3 -8 -2 -15 3 -15
16 0 21 44 6 53 -12 6 -13 13 -5 28 6 11 7 19 1 19 -5 0 -12 -7 -15 -16z"/>
<path d="M1524 772 c19 -22 32 -30 22 -13 -4 5 0 11 6 14 8 2 9 8 4 13 -5 5
-11 4 -13 -4 -4 -10 -8 -10 -21 0 -12 9 -11 6 2 -10z"/>
<path d="M1558 593 c-19 -5 -24 -18 -9 -27 4 -3 16 3 26 14 18 20 16 22 -17
13z"/>
<path d="M1620 580 c-17 -5 -19 -8 -7 -9 9 -1 17 -7 17 -15 0 -8 3 -17 8 -19
4 -3 7 8 7 24 0 16 0 29 0 28 0 -1 -11 -5 -25 -9z"/>
<path d="M1330 431 c0 -12 26 -32 33 -25 3 3 11 -4 17 -16 6 -12 14 -19 17
-17 8 8 -39 67 -54 67 -7 0 -13 -4 -13 -9z"/>
<path d="M1232 2178 c-17 -17 -15 -30 5 -26 9 2 17 11 19 21 3 20 -7 22 -24 5z"/>
<path d="M324 1865 c-3 -8 -4 -20 -2 -27 3 -7 7 -1 10 15 6 29 1 36 -8 12z"/>
<path d="M1550 1780 c34 -11 60 -11 35 0 -11 5 -29 8 -40 8 -16 0 -15 -2 5 -8z"/>
<path d="M1526 1753 c-4 -10 4 -26 24 -46 21 -21 28 -24 23 -11 -4 10 -13 24
-21 30 -8 6 -12 16 -8 22 3 6 2 13 -3 16 -5 3 -12 -2 -15 -11z"/>
<path d="M1605 1760 c-3 -5 -1 -10 4 -10 6 0 11 5 11 10 0 6 -2 10 -4 10 -3 0
-8 -4 -11 -10z"/>
<path d="M1766 1761 c-4 -5 3 -7 14 -4 23 6 26 13 6 13 -8 0 -17 -4 -20 -9z"/>
<path d="M190 1735 c0 -9 7 -18 15 -22 23 -8 24 0 3 20 -15 14 -18 15 -18 2z"/>
<path d="M1710 1740 c-9 -6 -10 -10 -3 -10 6 0 15 5 18 10 8 12 4 12 -15 0z"/>
<path d="M300 1731 c0 -5 5 -13 10 -16 6 -3 10 -2 10 4 0 5 -4 13 -10 16 -5 3
-10 2 -10 -4z"/>
<path d="M277 1700 c-4 -14 4 -27 26 -45 24 -18 27 -25 15 -25 -10 0 -26 8
-36 18 -9 9 -30 25 -46 36 -23 14 -30 15 -37 5 -8 -13 6 -49 24 -60 5 -4 -5
-6 -23 -5 -19 1 -35 7 -37 13 -3 7 5 10 19 7 13 -2 17 -2 10 2 -6 3 -10 10 -6
15 3 5 2 9 -3 9 -11 -1 -43 -26 -43 -33 0 -11 83 -47 107 -47 26 0 79 24 101
46 11 12 11 14 -3 14 -10 0 -15 5 -12 14 3 8 -1 13 -11 13 -35 0 -40 3 -35 23
3 11 3 20 0 20 -2 0 -7 -9 -10 -20z"/>
<path d="M1800 1565 c-7 -8 -20 -15 -29 -15 -9 0 -4 -6 13 -15 36 -19 42 -19
26 0 -7 9 -8 15 -2 15 5 0 12 7 16 15 3 8 2 15 -3 15 -5 0 -14 -7 -21 -15z"/>
<path d="M278 1531 c-21 -8 -10 -27 17 -28 11 -1 32 -5 48 -9 17 -4 27 -2 27
5 0 6 -9 12 -20 12 -36 3 -41 4 -48 15 -4 6 -15 9 -24 5z"/>
<path d="M1560 1500 c0 -5 5 -10 11 -10 5 0 7 5 4 10 -3 6 -8 10 -11 10 -2 0
-4 -4 -4 -10z"/>
<path d="M426 1425 c-9 -26 -7 -32 5 -12 6 10 9 21 6 23 -2 3 -7 -2 -11 -11z"/>
<path d="M1815 1410 c-3 -5 -15 -10 -26 -10 -10 0 -19 -4 -19 -8 0 -15 38 -7
49 10 6 10 9 18 7 18 -3 0 -8 -4 -11 -10z"/>
<path d="M209 1374 c-9 -27 13 -64 38 -64 7 0 13 -4 13 -10 0 -5 -16 -10 -35
-10 -19 0 -35 -5 -35 -11 0 -5 4 -8 9 -5 15 10 63 -13 55 -25 -4 -7 1 -10 12
-7 13 2 22 17 28 46 8 37 6 45 -10 61 -18 16 -72 34 -75 25z"/>
<path d="M1885 1360 c-3 -5 -1 -10 4 -10 6 0 11 5 11 10 0 6 -2 10 -4 10 -3 0
-8 -4 -11 -10z"/>
<path d="M100 1328 c0 -9 5 -20 10 -23 13 -8 13 5 0 25 -8 13 -10 13 -10 -2z"/>
<path d="M155 1300 c3 -5 11 -10 16 -10 6 0 7 5 4 10 -3 6 -11 10 -16 10 -6 0
-7 -4 -4 -10z"/>
<path d="M110 1279 c0 -5 7 -9 15 -9 9 0 18 -7 21 -15 9 -22 23 -18 17 4 -5
19 -53 36 -53 20z"/>
<path d="M160 917 c0 -16 64 -77 80 -77 6 0 10 7 10 15 0 8 -9 15 -19 15 -11
0 -31 14 -45 31 -16 18 -26 25 -26 16z"/>
<path d="M1841 896 c-16 -19 -1 -25 27 -11 20 11 21 13 7 19 -22 8 -21 8 -34
-8z"/>
<path d="M1758 865 c-20 -7 -39 -11 -42 -8 -3 4 -6 1 -6 -5 0 -17 73 -9 94 11
24 21 8 22 -46 2z"/>
<path d="M285 820 c-3 -5 -2 -10 4 -10 5 0 13 5 16 10 3 6 2 10 -4 10 -5 0
-13 -4 -16 -10z"/>
<path d="M230 816 c0 -2 9 -6 20 -9 11 -3 20 -1 20 4 0 5 -9 9 -20 9 -11 0
-20 -2 -20 -4z"/>
<path d="M1870 761 c0 -39 -4 -51 -17 -54 -14 -4 -12 -5 5 -6 12 0 22 5 23 12
5 62 5 89 -3 93 -4 3 -8 -17 -8 -45z"/>
<path d="M235 789 c-4 -6 -5 -12 -2 -15 2 -3 7 2 10 11 7 17 1 20 -8 4z"/>
<path d="M45 680 c-3 -5 1 -10 9 -10 8 0 18 5 21 10 3 6 -1 10 -9 10 -8 0 -18
-4 -21 -10z"/>
<path d="M58 662 c-10 -2 -18 -10 -18 -18 0 -18 8 -18 27 1 18 18 15 23 -9 17z"/>
<path d="M86 654 c-9 -22 -8 -24 9 -24 8 0 15 9 15 20 0 24 -15 27 -24 4z"/>
<path d="M128 663 c7 -3 16 -2 19 1 4 3 -2 6 -13 5 -11 0 -14 -3 -6 -6z"/>
<path d="M1928 663 c7 -3 16 -2 19 1 4 3 -2 6 -13 5 -11 0 -14 -3 -6 -6z"/>
<path d="M134 613 c3 -8 6 -19 6 -25 0 -5 7 -3 15 6 20 19 19 23 -6 29 -15 4
-19 2 -15 -10z"/>
<path d="M76 606 c3 -8 13 -12 27 -8 20 5 20 6 1 13 -29 11 -34 10 -28 -5z"/>
<path d="M1640 406 c0 -2 7 -6 15 -10 8 -3 15 -1 15 4 0 6 -7 10 -15 10 -8 0
-15 -2 -15 -4z"/>
<path d="M378 232 c-32 -4 -38 -22 -8 -22 18 0 20 -7 20 -70 0 -57 3 -70 16
-70 13 0 15 12 13 68 -2 63 -1 67 19 66 12 0 22 5 22 12 0 13 -40 21 -82 16z"/>
<path d="M853 200 c-40 -16 -53 -120 -16 -134 24 -10 62 4 68 25 10 32 -5 58
-38 68 l-32 9 33 13 c17 7 32 17 32 21 0 10 -19 9 -47 -2z m27 -88 c0 -24 -8
-32 -26 -25 -22 8 -17 43 6 43 13 0 20 -7 20 -18z"/>
<path d="M1390 140 c0 -56 3 -70 15 -70 8 0 15 7 15 15 0 19 29 19 36 0 4 -8
12 -15 20 -15 17 0 18 12 3 27 -8 8 -8 17 0 31 15 27 14 32 -4 32 -9 0 -18 -7
-21 -15 -4 -8 -15 -15 -26 -15 -18 0 -19 5 -13 40 6 33 4 40 -9 40 -13 0 -16
-13 -16 -70z"/>
<path d="M489 149 c-9 -17 -6 -18 22 -12 23 4 30 3 25 -5 -4 -7 -13 -12 -20
-12 -18 0 -35 -21 -29 -36 3 -9 20 -14 44 -14 39 0 39 0 39 39 0 43 -7 51 -46
56 -16 1 -28 -4 -35 -16z m51 -53 c0 -2 -7 -6 -15 -10 -8 -3 -15 -1 -15 4 0 6
7 10 15 10 8 0 15 -2 15 -4z"/>
<path d="M1257 158 c-22 -18 -32 -62 -15 -75 20 -16 54 -21 72 -11 29 16 18
29 -19 22 -31 -6 -35 -4 -35 15 0 23 31 42 38 23 5 -17 32 -15 32 3 0 14 -29
35 -47 35 -5 0 -17 -6 -26 -12z"/>
<path d="M646 138 c-10 -40 -7 -68 9 -68 9 0 15 9 16 23 l0 22 11 -22 c15 -30
24 -29 36 5 l10 27 1 -27 c1 -18 6 -28 16 -28 11 0 15 11 15 40 0 48 -21 62
-50 35 -18 -16 -20 -17 -20 -2 0 26 -37 21 -44 -5z"/>
<path d="M968 149 c-36 -21 -12 -89 32 -89 11 0 22 12 29 31 19 54 -15 85 -61
58z m46 -27 c9 -14 -12 -35 -28 -29 -23 9 -20 37 3 37 11 0 22 -4 25 -8z"/>
<path d="M1540 145 c-11 -13 -8 -15 16 -16 27 -2 28 -2 4 -6 -60 -11 -43 -53
21 -53 38 0 38 0 32 33 -7 37 -11 43 -39 51 -13 4 -26 1 -34 -9z m37 -51 c-3
-3 -12 -4 -19 -1 -8 3 -5 6 6 6 11 1 17 -2 13 -5z"/>
<path d="M1090 107 c0 -44 1 -45 36 -49 41 -5 47 3 42 54 -3 30 -6 33 -40 36
l-38 3 0 -44z m65 13 c-3 -5 -15 -10 -26 -10 -10 0 -19 5 -19 10 0 6 12 10 26
10 14 0 23 -4 19 -10z m-15 -35 c0 -8 -7 -15 -15 -15 -8 0 -15 7 -15 15 0 8 7
15 15 15 8 0 15 -7 15 -15z"/>
<path d="M1676 138 c-3 -7 -6 -25 -9 -40 -5 -32 16 -39 32 -10 9 16 10 16 16
0 13 -34 34 -20 32 20 -3 34 -6 37 -35 40 -20 2 -34 -2 -36 -10z"/>
</g>
</svg>
