<?xml version="1.0" standalone="no"?>
<!DOCTYPE svg PUBLIC "-//W3C//DTD SVG 20010904//EN"
 "http://www.w3.org/TR/2001/REC-SVG-20010904/DTD/svg10.dtd">
<svg version="1.0" xmlns="http://www.w3.org/2000/svg"
 width="404.000000pt" height="266.000000pt" viewBox="0 0 404.000000 266.000000"
 preserveAspectRatio="xMidYMid meet">
<metadata>
Created by potrace 1.16, written by Peter Selinger 2001-2019
</metadata>
<g transform="translate(0.000000,266.000000) scale(0.100000,-0.100000)"
fill="#0a51a1" stroke="none">
<path d="M2850 2653 c-430 -45 -979 -303 -1445 -677 -196 -158 -526 -499 -504
-521 6 -6 41 25 102 90 407 437 1008 794 1552 921 144 34 374 44 482 21 255
-55 345 -219 283 -517 -23 -115 -69 -245 -136 -389 -45 -95 -53 -126 -33 -119
19 6 154 252 203 366 82 195 100 269 100 417 1 120 -1 134 -26 187 -78 168
-295 251 -578 221z m275 -38 c312 -66 386 -305 223 -728 -16 -43 -31 -77 -33
-75 -2 2 7 45 21 97 85 330 1 525 -257 597 -30 8 -110 18 -179 21 -205 9 -449
-42 -730 -154 -183 -73 -437 -206 -602 -317 -16 -10 -28 -16 -28 -13 0 10 271
188 385 252 291 166 636 293 874 324 106 14 250 12 326 -4z"/>
<path d="M0 1655 l0 -84 113 -3 112 -3 3 -272 2 -273 110 0 110 0 0 275 0 275
115 0 115 0 0 85 0 85 -340 0 -340 0 0 -85z"/>
<path d="M1230 1380 l0 -360 110 0 110 0 0 275 0 275 175 0 175 0 0 85 0 85
-285 0 -285 0 0 -360z"/>
<path d="M2210 1655 l0 -85 115 0 115 0 0 -275 0 -275 110 0 110 0 0 275 0
275 115 0 115 0 0 85 0 85 -340 0 -340 0 0 -85z"/>
<path d="M3380 1732 c0 -4 52 -120 115 -256 63 -137 115 -254 115 -262 0 -7
-12 -22 -27 -34 -23 -18 -38 -21 -85 -18 l-58 3 0 -71 0 -71 38 -7 c58 -9 154
-6 189 7 44 17 79 49 104 99 29 56 259 598 259 609 0 5 -49 9 -109 9 l-109 0
-49 -147 -49 -146 -50 144 -51 144 -116 3 c-65 1 -117 -1 -117 -6z"/>
<path d="M783 1398 c-12 -6 -27 -24 -34 -41 -15 -36 1 -73 42 -96 22 -12 31
-12 57 -2 61 25 65 113 6 140 -30 13 -42 13 -71 -1z"/>
<path d="M3056 1389 c-59 -47 -15 -149 59 -135 63 13 86 86 40 131 -30 30 -64
32 -99 4z"/>
<path d="M2939 1139 c-291 -318 -761 -640 -1188 -813 -267 -109 -456 -155
-661 -163 -239 -9 -361 24 -451 125 -59 66 -79 127 -79 247 0 146 50 320 164
569 22 47 33 83 27 89 -21 21 -202 -325 -261 -501 -129 -386 -32 -613 290
-678 261 -52 673 48 1110 272 398 204 766 487 1057 814 86 97 107 130 84 130
-5 0 -46 -41 -92 -91z m-2381 -395 c-18 -64 -23 -104 -23 -209 0 -120 2 -134
26 -185 51 -106 149 -174 300 -206 97 -21 326 -13 454 15 324 71 685 227 1009
435 32 21 56 34 53 28 -4 -5 -64 -48 -134 -95 -444 -296 -913 -480 -1258 -495
-152 -6 -245 9 -335 54 -78 40 -122 84 -159 164 -23 49 -26 67 -25 160 0 77 6
126 22 183 26 92 82 240 88 234 3 -2 -6 -40 -18 -83z"/>
</g>
</svg>
