<?xml version="1.0" standalone="no"?>
<!DOCTYPE svg PUBLIC "-//W3C//DTD SVG 20010904//EN"
 "http://www.w3.org/TR/2001/REC-SVG-20010904/DTD/svg10.dtd">
<svg version="1.0" xmlns="http://www.w3.org/2000/svg"
 width="481.000000pt" height="198.000000pt" viewBox="0 0 481.000000 198.000000"
 preserveAspectRatio="xMidYMid meet">
<metadata>
Created by potrace 1.16, written by Peter Selinger 2001-2019
</metadata>
<g transform="translate(0.000000,198.000000) scale(0.100000,-0.100000)"
fill="#2f2c71" stroke="none">
<path d="M1345 1974 c-389 -57 -659 -312 -766 -721 -20 -76 -23 -111 -23 -253
1 -144 4 -177 27 -262 98 -367 356 -625 696 -694 116 -23 285 -15 397 18 80
24 82 24 132 7 87 -30 195 -42 310 -36 134 7 200 25 327 87 115 56 204 124
278 215 55 67 127 181 127 202 0 9 -21 13 -77 13 l-78 0 -49 -66 c-94 -128
-263 -238 -411 -269 -327 -69 -671 119 -804 438 -49 120 -64 217 -59 391 4
129 9 164 32 236 34 104 72 174 142 261 127 159 352 269 549 269 136 0 295
-56 412 -144 57 -43 158 -152 170 -183 5 -14 173 -19 173 -6 0 16 -83 143
-127 194 -123 142 -246 223 -420 275 -77 24 -105 27 -228 27 -115 0 -154 -4
-220 -23 -97 -27 -92 -27 -190 -1 -78 21 -254 35 -320 25z m103 -263 c-114
-123 -196 -276 -244 -456 -15 -56 -19 -106 -19 -250 0 -157 3 -191 23 -264 49
-178 130 -326 245 -448 l70 -73 -95 0 c-262 0 -482 144 -603 395 -57 118 -75
194 -82 340 -9 187 26 351 104 485 55 94 201 237 285 278 95 47 197 71 301 71
l89 1 -74 -79z"/>
<path d="M304 1869 c-52 -110 -166 -189 -270 -189 l-34 0 0 -90 c0 -65 3 -90
13 -90 37 1 150 32 197 54 30 14 55 26 57 26 2 0 3 -355 3 -790 l0 -790 105 0
105 0 0 965 0 965 -73 0 -73 0 -30 -61z"/>
<path d="M1610 1517 l-25 -13 -3 -490 c-2 -396 0 -494 11 -502 9 -8 165 -12
502 -12 458 -2 490 -1 502 16 20 27 19 962 -1 990 -14 18 -32 19 -488 22 -369
1 -479 -1 -498 -11z m940 -66 c14 -27 14 -855 0 -882 -10 -18 -26 -19 -459
-19 -400 0 -450 2 -455 16 -8 20 -8 868 0 888 5 14 55 16 455 16 433 0 449 -1
459 -19z"/>
<path d="M2003 1400 c-24 -10 -43 -26 -43 -35 0 -8 -5 -15 -10 -15 -6 0 -21
-11 -33 -24 -25 -27 -144 -66 -200 -66 -23 0 -37 -6 -41 -16 -13 -33 -7 -40
34 -36 32 3 40 1 40 -12 0 -12 -10 -16 -40 -16 -22 0 -40 -3 -40 -7 0 -5 54
-7 120 -5 l120 3 0 -255 0 -256 -120 0 -120 0 0 -29 0 -28 214 -7 c117 -4 308
-4 425 0 l211 7 0 313 c0 172 -3 319 -6 328 -4 10 -18 16 -38 16 -49 -1 -196
43 -196 58 0 7 -12 17 -26 22 -14 6 -28 19 -31 29 -12 47 -145 66 -220 31z
m220 -58 l47 -21 0 -286 0 -285 -175 0 -175 0 0 288 0 288 58 22 c73 28 175
25 245 -6z m287 -427 l0 -255 -115 0 -115 0 0 255 0 255 115 0 115 0 0 -255z"/>
<path d="M2367 1006 c-15 -12 -17 -28 -15 -122 l3 -109 40 0 40 0 3 104 c2 86
0 107 -14 122 -20 22 -33 23 -57 5z"/>
<path d="M2856 428 c-3 -13 -6 -73 -6 -135 0 -120 -4 -143 -26 -143 -8 0 -14
-10 -14 -25 0 -21 5 -25 30 -25 47 0 58 28 66 173 7 125 7 127 30 127 l24 0 0
-150 0 -150 30 0 30 0 0 175 0 175 -79 0 c-73 0 -79 -2 -85 -22z"/>
<path d="M3110 275 l0 -175 75 0 c73 0 75 1 75 25 0 23 -3 25 -50 25 l-50 0 0
50 0 50 40 0 c36 0 40 3 40 24 0 21 -5 25 -37 28 -38 3 -38 3 -41 51 l-3 47
50 0 c48 0 51 2 51 25 0 24 -2 25 -75 25 l-75 0 0 -175z"/>
<path d="M3330 425 c0 -21 5 -25 30 -25 l30 0 0 -150 0 -150 25 0 25 0 0 150
0 150 30 0 c25 0 30 4 30 25 0 25 -1 25 -85 25 -84 0 -85 0 -85 -25z"/>
</g>
</svg>
