<?xml version="1.0" standalone="no"?>
<!DOCTYPE svg PUBLIC "-//W3C//DTD SVG 20010904//EN"
 "http://www.w3.org/TR/2001/REC-SVG-20010904/DTD/svg10.dtd">
<svg version="1.0" xmlns="http://www.w3.org/2000/svg"
 width="236.000000pt" height="262.000000pt" viewBox="0 0 236.000000 262.000000"
 preserveAspectRatio="xMidYMid meet">
<metadata>
Created by potrace 1.16, written by Peter Selinger 2001-2019
</metadata>
<g transform="translate(0.000000,262.000000) scale(0.100000,-0.100000)"
fill="#fff" stroke="none">
<path d="M1320 2404 c0 -9 -3 -14 -7 -11 -3 4 -13 1 -20 -5 -8 -7 -31 -11 -51
-10 -23 1 -32 -1 -24 -6 10 -7 10 -11 -3 -22 -10 -8 -15 -9 -15 -1 0 6 -7 11
-16 11 -8 0 -12 5 -9 10 3 6 1 10 -4 10 -6 0 -11 -4 -11 -10 0 -5 -5 -10 -11
-10 -5 0 -8 4 -5 9 3 5 -1 11 -8 14 -8 3 -17 1 -19 -6 -3 -8 -13 -4 -30 12
-24 22 -32 23 -96 18 -71 -6 -137 -32 -178 -70 -12 -11 -20 -24 -17 -28 3 -5
-1 -9 -10 -9 -20 0 -57 -63 -58 -100 -1 -18 7 -40 20 -53 16 -17 19 -26 11
-34 -9 -9 -3 -22 20 -52 18 -23 39 -41 46 -41 7 0 16 -13 19 -30 3 -16 9 -43
12 -60 4 -22 2 -30 -9 -30 -18 0 -32 17 -42 50 -9 29 -22 40 -51 40 -11 0 -29
9 -38 19 -11 12 -31 19 -52 19 -29 0 -39 -6 -55 -31 -27 -44 -22 -101 9 -105
22 -3 28 9 22 47 -1 10 4 11 17 6 10 -5 32 -10 50 -13 21 -3 41 -15 57 -37
l25 -33 -82 -8 c-48 -5 -69 -10 -49 -12 17 -2 32 -7 32 -12 0 -4 -10 -6 -22
-4 -13 2 -16 1 -8 -2 8 -4 21 -12 29 -18 11 -8 13 -8 7 2 -9 15 -1 15 25 2 10
-6 19 -7 19 -2 0 5 -10 14 -22 20 -19 9 -13 11 38 11 33 1 63 3 66 6 3 3 172
6 377 6 205 0 379 3 387 6 8 3 14 10 14 15 0 6 -7 8 -15 5 -8 -4 -17 -2 -20 3
-4 6 -17 7 -31 4 -28 -7 -28 -4 -13 68 7 33 21 62 38 78 32 31 71 82 71 92 0
4 -8 12 -17 17 -16 9 -16 10 -2 11 14 0 35 28 27 36 -2 1 -21 -4 -43 -12 -22
-8 -63 -16 -92 -17 -28 -1 -55 -6 -60 -11 -4 -5 0 -6 9 -3 10 3 20 2 23 -3 5
-8 18 -8 85 4 28 5 31 5 13 -3 -24 -11 -32 -24 -10 -15 7 2 24 0 38 -5 22 -9
23 -10 3 -10 -14 -1 -21 -7 -20 -18 0 -10 -6 -18 -14 -18 -24 -1 -42 -16 -36
-30 5 -13 -14 -25 -37 -25 -7 0 -6 4 3 10 12 8 10 10 -8 10 -14 0 -21 4 -16
11 4 8 -1 9 -16 4 -15 -5 -20 -4 -16 4 5 8 0 8 -19 1 -34 -13 -86 -13 -66 -1
8 5 21 7 29 4 8 -3 18 0 23 8 9 16 59 23 59 8 0 -5 13 -9 29 -9 24 0 28 3 24
20 -3 11 0 20 6 20 6 0 11 5 11 10 0 6 -16 4 -37 -5 -23 -10 -51 -14 -70 -10
-23 4 -34 1 -40 -10 -9 -15 -94 -36 -142 -34 -18 1 -11 5 24 14 l50 14 -44 -6
c-28 -3 -41 -2 -37 5 3 6 0 13 -6 15 -7 3 15 3 48 0 40 -4 64 -2 68 6 4 6 1
11 -8 11 -9 0 -16 7 -16 16 0 9 -5 12 -12 8 -7 -4 -8 -3 -4 4 5 9 13 9 29 1
21 -11 21 -11 5 7 -12 14 -14 24 -7 37 6 9 14 15 19 12 5 -3 11 -1 15 5 3 5
18 10 33 9 27 0 27 0 5 -11 -23 -11 -32 -48 -13 -48 6 0 10 7 10 15 0 8 9 15
19 15 15 0 19 5 16 21 -3 17 0 20 15 16 11 -3 20 -2 20 2 0 4 8 7 18 7 9 1 42
5 72 9 44 6 53 5 43 -5 -6 -7 -23 -12 -37 -12 -15 0 -29 -4 -32 -9 -2 -4 -10
-6 -18 -3 -17 7 -66 -13 -66 -26 0 -6 5 -8 10 -5 6 3 10 -1 10 -9 0 -9 5 -16
11 -16 6 0 9 7 6 15 -5 12 2 13 35 9 27 -4 38 -3 34 4 -4 6 3 16 14 22 11 6
20 7 20 2 0 -5 11 -9 25 -9 21 0 25 3 19 21 -10 34 -37 72 -42 58 -2 -7 -8
-10 -12 -7 -5 3 -52 -6 -105 -20 -102 -26 -145 -31 -145 -16 0 5 9 7 20 4 12
-3 22 1 26 10 3 9 11 14 18 11 6 -2 31 2 54 10 27 10 42 11 42 4 0 -6 11 -3
25 6 13 9 36 16 50 16 14 0 25 4 25 9 0 17 -28 20 -72 6 -29 -8 -50 -10 -61
-3 -11 6 -17 5 -17 -1 0 -5 6 -12 13 -15 8 -4 7 -5 -3 -4 -8 1 -22 -1 -30 -5
-29 -10 -60 -15 -60 -9 1 15 98 52 142 55 54 2 61 12 22 29 -20 9 -27 9 -33
-1 -6 -8 -11 -9 -15 -3 -3 6 0 12 6 15 8 3 6 7 -7 12 -11 3 -27 10 -36 15 -9
4 -41 11 -72 15 -51 7 -57 5 -57 -11z m-180 -393 c0 -14 -26 -32 -35 -23 -5 4
-5 1 -1 -5 4 -8 1 -13 -9 -13 -9 0 -13 5 -9 11 4 7 0 9 -14 5 -11 -4 -23 -2
-27 4 -3 5 -11 10 -18 10 -6 0 -3 -6 8 -13 23 -18 12 -37 -18 -30 -20 4 -20 3
-4 -7 14 -9 22 -9 30 -1 6 6 25 11 42 11 22 0 35 8 48 28 13 19 27 27 48 27
16 0 29 -3 29 -7 0 -5 9 -8 20 -8 23 0 25 -10 8 -29 -10 -11 -10 -13 0 -7 6 4
12 3 12 -2 0 -5 -14 -9 -31 -9 -28 0 -30 2 -14 13 17 12 16 14 -9 24 -36 13
-43 13 -28 -2 18 -18 15 -25 -15 -33 -17 -4 -23 -9 -15 -14 6 -4 -46 -13 -116
-20 -70 -7 -129 -14 -132 -14 -3 -1 -7 2 -10 7 -5 9 16 18 73 30 15 4 27 11
27 17 0 6 -22 8 -62 3 -40 -4 -59 -3 -53 3 13 13 93 35 103 29 5 -3 26 1 48 9
44 16 124 20 124 6z"/>
<path d="M342 2253 c-18 -7 -34 -52 -26 -75 4 -15 9 -17 20 -7 11 9 18 8 32
-4 9 -9 22 -15 27 -14 6 0 12 -12 15 -28 3 -16 13 -31 24 -35 19 -6 19 -7 -1
-12 -11 -3 -27 -2 -34 3 -7 4 -27 6 -44 3 -25 -4 -27 -3 -10 6 16 8 13 9 -15
4 -19 -3 -44 -14 -55 -25 -18 -18 -18 -20 -2 -36 10 -10 17 -12 17 -5 0 14 28
4 54 -20 11 -10 25 -18 30 -18 14 0 15 63 1 72 -7 5 -6 8 1 8 6 0 19 -9 29
-20 14 -16 15 -24 7 -50 -7 -18 -7 -28 -2 -25 6 4 10 14 10 23 0 14 2 14 9 3
6 -9 4 -19 -5 -28 -8 -8 -14 -18 -14 -23 0 -4 -10 -6 -22 -3 -18 4 -20 3 -8
-6 12 -8 8 -10 -17 -8 -17 1 -29 5 -26 10 8 14 -53 7 -75 -9 -27 -18 -28 -37
-4 -55 15 -12 16 -12 4 2 -20 26 -5 50 27 43 42 -10 52 -27 11 -20 -28 5 -31
4 -12 -4 28 -12 84 -2 75 14 -4 7 -2 7 7 -1 15 -14 43 -6 33 11 -3 6 -2 8 2 3
15 -13 17 -49 3 -40 -33 20 -39 9 -10 -18 18 -17 32 -31 32 -32 0 -1 -15 -2
-33 -1 -38 0 -87 13 -104 27 -9 6 -13 6 -13 -1 0 -5 -9 -12 -20 -15 -28 -7
-36 -35 -16 -53 9 -8 11 -9 6 -2 -16 20 -11 32 17 46 19 8 30 9 37 1 7 -6 7
-10 1 -9 -5 2 -14 2 -20 1 -12 -1 66 -43 83 -44 16 0 35 -44 26 -59 -3 -5 -13
-7 -23 -4 -11 4 -11 2 4 -10 l20 -17 -20 8 c-70 27 -92 32 -115 29 -22 -4 -23
-3 -7 7 11 6 33 8 50 5 38 -8 30 2 -12 14 -17 5 -31 5 -31 0 0 -4 -16 -11 -35
-14 -19 -4 -37 -11 -40 -17 -4 -5 -3 -9 2 -7 18 4 139 -14 161 -24 14 -7 22
-20 22 -36 0 -23 -3 -24 -37 -18 -93 17 -109 18 -91 6 16 -10 17 -14 3 -40
-17 -33 -20 -54 -5 -45 6 4 10 -5 10 -21 0 -23 -2 -25 -17 -13 -15 13 -16 9
-10 -43 9 -74 23 -111 41 -105 8 3 16 -2 19 -14 6 -21 -8 -27 -16 -6 -4 9 -6
9 -6 -1 -1 -7 11 -31 26 -53 22 -34 24 -42 12 -50 -9 -6 -15 -4 -17 6 -2 8
-11 15 -20 15 -15 0 -15 2 -2 10 13 8 12 13 -6 37 -12 15 -31 30 -44 31 l-23
4 21 -29 c11 -16 24 -41 27 -55 4 -15 13 -29 20 -31 16 -7 7 -57 -11 -57 -7 0
-30 17 -50 38 -22 22 -32 28 -25 15 7 -15 8 -24 1 -28 -6 -4 -8 -11 -4 -16 4
-6 11 -6 19 1 16 13 24 3 31 -37 6 -33 12 -43 25 -43 6 0 7 4 4 10 -3 6 1 7 9
4 18 -7 30 -39 21 -54 -3 -5 -1 -10 4 -10 6 0 10 -10 9 -23 -2 -26 -36 -35
-45 -11 -3 8 -11 14 -19 14 -7 0 -18 9 -24 20 -6 11 -20 25 -33 31 -21 11 -21
11 -6 -7 15 -18 28 -57 32 -96 1 -10 7 -18 14 -18 16 0 16 5 3 33 -10 20 -9
20 2 3 7 -11 24 -31 38 -44 l25 -25 -24 13 c-22 11 -23 11 -17 -6 6 -16 5 -16
-16 2 -19 16 -20 16 -9 1 22 -27 -2 -46 -28 -23 -22 20 -52 18 -59 -4 -3 -12
-2 -12 8 -3 7 6 19 9 27 6 10 -4 11 -8 3 -13 -7 -5 -5 -21 10 -54 23 -54 24
-60 10 -51 -21 13 -9 -13 19 -39 16 -16 34 -25 40 -22 6 4 19 2 28 -4 17 -11
17 -11 1 -6 -19 6 -25 -9 -8 -19 14 -9 12 -25 -3 -25 -23 0 -78 -31 -72 -41
10 -15 31 -10 61 13 15 13 25 17 20 10 -9 -15 -1 -15 24 -2 20 11 50 4 50 -11
0 -5 -7 -9 -15 -9 -18 0 -20 -27 -3 -32 23 -8 -1 -38 -30 -38 -16 0 -35 -7
-42 -15 -16 -20 -1 -20 47 0 44 18 44 18 37 0 -4 -9 0 -15 9 -15 8 0 20 -6 26
-14 10 -12 8 -17 -8 -25 -11 -6 -24 -11 -28 -10 -16 2 -53 -14 -53 -23 0 -5 9
-4 20 2 22 12 29 -3 8 -17 -13 -8 -18 -9 -38 -12 -5 0 -10 -6 -10 -12 0 -8 6
-7 17 2 15 12 16 12 10 -4 -6 -16 -5 -16 24 -2 17 9 29 21 26 28 -5 15 17 37
43 42 25 5 25 0 0 -32 -21 -27 -28 -69 -10 -58 6 4 10 3 9 -2 -5 -30 5 -40 51
-52 27 -7 52 -16 55 -21 9 -15 -100 22 -114 39 -12 14 -13 13 -7 -11 6 -24 2
-29 -29 -42 -35 -15 -87 -56 -70 -56 5 0 18 9 29 19 12 11 33 22 48 26 21 5
29 2 39 -17 6 -12 17 -26 22 -30 6 -3 -18 -15 -53 -26 -62 -19 -71 -35 -14
-27 16 2 30 4 32 6 1 1 6 2 11 3 5 0 13 4 17 9 4 4 17 7 28 7 18 -1 18 -3 -6
-16 -30 -16 -38 -27 -13 -18 9 4 15 1 15 -7 0 -8 8 -4 20 9 24 25 36 27 67 9
l23 -13 -26 -27 c-23 -25 -23 -32 0 -28 5 1 12 -3 16 -9 5 -7 11 -6 20 5 11
13 10 15 -3 10 -8 -4 -18 -2 -21 3 -3 6 6 13 19 16 16 4 23 11 19 18 -4 7 -3
8 4 4 6 -4 9 -14 6 -24 -5 -16 -5 -16 9 1 19 23 26 22 21 -5 l-5 -23 11 23 c9
21 15 23 80 21 57 -1 70 -5 66 -16 -3 -8 -1 -11 4 -8 6 3 10 13 10 21 0 8 5
14 10 14 6 0 10 -9 10 -20 0 -13 5 -18 15 -14 19 8 19 0 -1 -20 -8 -9 -11 -16
-6 -16 24 0 47 48 51 108 1 19 29 14 43 -8 7 -11 18 -20 25 -20 6 0 15 -5 19
-12 4 -7 3 -8 -4 -4 -7 4 -12 3 -12 -3 0 -5 10 -13 23 -17 22 -8 29 -9 55 -12
6 -1 12 -6 12 -12 0 -5 -14 -8 -30 -6 -34 4 -58 -22 -38 -42 7 -7 6 -10 -3 -9
-29 1 -49 -3 -49 -11 0 -16 65 -6 87 14 13 12 36 24 52 27 17 4 32 15 36 26 3
12 17 21 33 23 22 2 26 8 24 25 -2 13 1 23 7 23 6 0 8 -7 5 -15 -4 -8 -1 -15
6 -15 6 0 9 4 6 9 -3 4 1 17 9 27 14 18 15 17 9 -11 -4 -24 -3 -27 6 -15 10
13 11 13 7 0 -2 -8 -10 -15 -17 -15 -7 0 -15 -5 -17 -11 -5 -14 64 -26 104
-18 22 4 33 0 52 -20 23 -24 41 -26 41 -5 0 6 -4 8 -9 5 -4 -3 -17 4 -27 16
-11 12 -13 18 -6 14 20 -12 35 4 20 22 -11 15 -11 15 3 4 22 -17 48 10 30 32
-13 15 4 26 40 26 35 0 99 39 99 60 0 26 -15 33 -30 14 -11 -12 -15 -12 -21
-2 -7 10 -9 10 -9 1 0 -20 -28 -15 -40 7 -15 29 16 95 45 95 24 1 49 -27 33
-36 -7 -5 -3 -17 11 -34 30 -40 27 -62 -15 -87 -41 -24 -32 -36 26 -33 22 1
37 -1 35 -5 -2 -4 -23 -6 -45 -5 -26 1 -39 -2 -37 -9 3 -6 9 -10 15 -9 5 1 8
-7 5 -17 -3 -11 0 -20 6 -20 6 0 11 5 11 11 0 5 5 7 10 4 6 -3 10 0 10 7 0 9
3 9 10 -2 8 -13 14 -8 12 11 -1 3 9 4 21 3 12 -1 36 -3 54 -3 17 -1 38 -7 45
-14 7 -6 27 -14 43 -16 17 -2 39 -5 50 -6 11 -1 24 -3 28 -4 11 -1 -2 -21 -14
-21 -6 0 -7 5 -3 11 4 7 2 10 -5 8 -20 -7 -14 -24 11 -31 13 -3 17 -6 11 -7
-7 -1 -13 -5 -13 -11 0 -5 7 -7 15 -4 11 4 15 -1 16 -17 1 -13 5 -4 9 21 6 36
4 47 -8 54 -12 7 -6 12 29 22 48 15 76 18 66 7 -8 -7 21 -43 35 -43 5 0 7 4 4
8 -2 4 0 14 6 22 8 12 9 12 5 -2 -3 -9 -1 -19 6 -21 9 -3 8 -8 -2 -21 -12 -14
-12 -16 3 -10 13 5 16 13 11 32 -5 21 -3 24 15 19 17 -4 19 -3 10 8 -7 8 -21
17 -31 20 -12 4 -19 14 -17 23 4 19 24 23 51 10 10 -5 17 -5 17 2 0 5 -5 10
-11 10 -8 0 -8 5 1 15 7 8 18 15 24 15 6 0 5 -4 -3 -9 -11 -7 -10 -11 5 -20
11 -6 13 -11 6 -11 -7 0 -10 -5 -7 -11 5 -6 13 -2 22 11 13 19 14 24 2 32 -12
8 -11 9 1 5 9 -3 14 -15 13 -31 -1 -21 2 -26 13 -22 12 5 12 2 4 -15 -9 -15
-8 -24 1 -35 10 -13 10 -17 -2 -25 -12 -7 -11 -9 2 -9 19 0 29 20 29 54 0 34
-55 114 -84 122 -22 5 -23 9 -19 47 7 50 11 56 23 37 8 -13 10 -13 10 1 0 9
-7 22 -15 29 -8 7 -15 17 -15 22 0 5 -7 16 -15 24 -20 21 -19 30 4 30 15 0 17
-3 9 -13 -8 -10 -7 -12 6 -7 9 3 16 1 16 -6 0 -6 5 -8 12 -4 8 5 9 2 5 -10 -4
-10 -3 -15 3 -11 29 18 2 56 -46 66 l-39 8 43 -3 c23 -2 42 0 42 5 0 5 12 9
28 9 30 0 46 9 50 28 3 15 6 15 -43 -3 -51 -18 -65 -18 -65 -2 0 18 46 60 58
53 6 -3 12 0 15 7 5 14 70 15 115 1 12 -3 22 -2 22 3 0 5 -24 16 -54 23 -58
14 -70 39 -25 51 41 12 47 10 86 -23 l37 -33 -22 32 c-14 20 -18 34 -12 38 6
4 8 11 5 16 -3 5 0 6 8 3 8 -3 18 -1 22 5 13 22 -33 11 -47 -11 -14 -20 -15
-21 -15 -2 0 26 27 45 57 39 18 -4 21 -3 11 4 -11 7 -10 10 5 14 10 3 -5 4
-34 2 -30 -2 -59 -8 -65 -14 -8 -8 -7 -11 4 -11 8 0 2 -10 -16 -26 -16 -14
-37 -23 -47 -21 -9 3 -19 -2 -22 -10 -3 -8 -10 -11 -16 -8 -6 4 -8 10 -5 15 3
5 1 11 -5 15 -5 3 -10 17 -10 31 0 25 -26 34 -46 15 -14 -15 -87 -43 -79 -32
3 6 12 11 19 11 15 0 45 30 45 45 0 5 5 11 12 14 7 2 9 -1 5 -8 -5 -7 -1 -9 9
-4 13 5 14 7 3 14 -9 6 -7 9 10 9 23 0 30 14 11 26 -6 3 -15 1 -19 -6 -4 -7
-27 -14 -51 -15 l-43 -3 26 22 c30 23 104 50 118 41 4 -3 11 2 14 10 3 8 10
14 15 13 6 -2 24 6 40 17 22 14 31 28 31 48 0 15 5 27 10 27 13 0 13 -57 0
-65 -5 -3 -7 -12 -4 -19 6 -17 -22 -40 -37 -30 -7 4 -9 3 -5 -4 3 -5 0 -13 -6
-16 -7 -3 1 -2 17 1 17 3 35 12 40 19 6 6 17 14 25 17 13 5 13 6 0 6 -12 1
-14 12 -12 53 2 29 10 60 16 68 27 31 28 44 3 17 -30 -31 -52 -27 -43 7 5 19
4 19 -8 4 -14 -19 -26 -14 -26 10 0 25 62 74 87 69 12 -2 20 0 17 4 -3 5 -12
9 -21 9 -10 0 -14 6 -11 18 4 13 -2 17 -26 18 -17 1 -23 -1 -13 -3 9 -2 17
-11 17 -19 0 -24 -52 -74 -76 -74 -26 0 -40 -16 -22 -23 10 -4 10 -6 1 -6 -7
-1 -13 -6 -13 -11 0 -6 6 -9 13 -8 19 4 20 -47 1 -63 -14 -11 -16 -11 -10 0 7
10 4 12 -12 7 -21 -7 -32 14 -32 67 0 29 -19 38 -21 10 0 -13 -4 -11 -12 8 -7
14 -18 24 -25 21 -16 -5 -44 17 -36 30 3 5 14 6 25 3 14 -5 19 -2 19 13 0 22
23 46 34 34 4 -4 12 1 17 11 6 9 16 17 24 17 8 0 12 6 9 14 -3 8 10 31 31 53
20 21 33 31 29 23 -5 -11 -2 -10 13 3 20 18 21 17 42 -9 11 -15 21 -22 21 -17
0 6 -12 23 -26 38 -24 26 -25 31 -15 74 17 75 9 161 -18 199 -27 38 -24 45 21
45 27 -1 29 1 13 7 -11 5 -15 9 -10 9 6 1 3 6 -5 11 -8 5 -40 10 -70 10 l-55
0 30 26 c17 14 24 23 18 19 -7 -3 -13 -2 -13 4 0 5 16 15 34 22 19 7 32 17 29
23 -4 5 1 7 10 3 10 -3 17 -2 17 3 0 17 -32 11 -66 -12 -40 -28 -74 -85 -74
-126 0 -36 22 -48 39 -21 14 23 33 16 25 -9 -5 -14 -2 -13 11 3 17 20 17 20
10 -4 -5 -16 -4 -21 4 -17 7 5 9 -3 6 -24 -3 -16 -7 -43 -10 -60 -2 -16 0 -30
5 -30 6 0 10 12 10 28 0 44 16 59 24 22 8 -43 6 -61 -4 -30 -7 21 -8 18 -9
-20 -2 -42 -3 -44 -16 -26 -14 19 -15 19 -15 -7 0 -14 -11 -39 -24 -54 l-25
-28 5 25 c5 24 5 24 -10 6 -9 -11 -16 -14 -16 -8 0 7 -7 12 -16 12 -14 0 -16
11 -12 85 2 47 0 85 -4 85 -5 0 -6 5 -2 12 4 6 9 29 10 50 1 21 11 55 22 76
12 24 16 44 11 57 l-8 20 -1 -20 c-1 -19 -2 -19 -13 3 -7 12 -16 19 -21 15 -4
-4 -4 1 0 11 5 12 14 16 30 13 19 -3 24 0 24 16 0 17 2 18 17 6 14 -12 15 -12
9 0 -5 8 -3 17 5 22 11 7 11 9 1 9 -7 0 -24 -7 -38 -16 -33 -22 -56 -5 -36 27
8 12 9 18 3 14 -6 -3 -11 1 -11 10 0 8 10 20 23 25 13 5 16 9 7 10 -12 0 -11
3 3 11 9 5 17 15 17 21 0 6 -12 2 -27 -8 -20 -12 -24 -13 -16 -3 8 10 9 19 3
25 -16 16 8 86 28 83 9 -2 34 3 55 10 37 12 87 9 87 -7 0 -4 -15 -15 -33 -26
-22 -13 -28 -20 -17 -24 7 -3 16 0 18 7 2 6 8 11 14 11 6 0 7 -8 4 -17 -4 -12
1 -10 14 6 25 29 22 41 -17 64 -30 17 -34 17 -93 0 -53 -16 -62 -22 -67 -45
-4 -19 -12 -28 -24 -28 -11 0 -19 4 -19 10 0 5 -7 7 -15 4 -13 -5 -13 -8 0
-21 8 -8 15 -23 15 -33 0 -10 4 -21 9 -25 6 -3 8 -34 7 -70 -2 -35 1 -62 6
-59 4 3 8 0 8 -5 0 -6 -9 -11 -19 -11 -11 0 -22 -6 -24 -12 -4 -10 -6 -10 -6
0 -1 14 -41 17 -41 2 0 -16 78 -63 94 -57 9 4 18 2 21 -4 12 -18 -23 -20 -80
-4 -31 9 -59 15 -61 12 -3 -3 8 -8 25 -12 17 -4 34 -11 37 -17 5 -7 0 -9 -14
-6 -15 4 -19 2 -15 -8 3 -10 10 -11 23 -4 38 20 68 -38 55 -107 -4 -23 -12
-33 -28 -35 -21 -4 -21 -5 5 -17 23 -12 27 -20 25 -52 -2 -46 -16 -50 -59 -14
-30 25 -88 35 -88 14 0 -6 9 -9 20 -6 11 3 18 1 15 -3 -3 -5 9 -20 26 -34 17
-14 28 -26 24 -26 -3 0 -1 -9 5 -20 13 -24 30 -26 30 -5 0 8 -6 15 -13 15 -7
0 -13 10 -14 23 -2 22 -2 22 17 -3 24 -30 25 -44 5 -60 -8 -7 -13 -16 -10 -20
10 -17 -22 -3 -58 24 -20 16 -37 35 -37 42 0 16 -47 9 -65 -9 -7 -7 -6 -8 1
-4 7 4 17 0 24 -8 7 -8 16 -13 20 -10 4 3 16 -7 26 -20 10 -14 25 -25 32 -25
9 0 12 -6 8 -16 -3 -9 -6 -20 -6 -25 0 -12 -36 -11 -63 2 -20 9 -20 9 2 -9 22
-17 22 -22 11 -53 -12 -33 -8 -66 15 -122 5 -13 2 -17 -13 -17 -11 0 -28 -3
-37 -6 -13 -5 -10 -10 15 -25 17 -11 36 -19 43 -19 7 0 23 -9 35 -20 12 -11
23 -20 26 -20 10 0 -7 40 -26 60 l-20 22 23 -4 c18 -2 25 -10 28 -33 3 -24 5
-26 10 -12 6 16 11 13 34 -20 28 -40 33 -54 20 -52 -22 4 -24 -3 -7 -23 10
-13 15 -20 10 -16 -5 4 -15 3 -23 -3 -15 -13 -97 5 -123 27 -13 11 -22 11 -50
-4 -50 -25 -49 -50 3 -93 38 -33 45 -35 62 -23 27 20 41 17 22 -4 -10 -10 -14
-22 -10 -27 5 -4 -2 -5 -13 -1 -16 5 -26 0 -39 -20 -9 -15 -18 -33 -19 -40 -3
-22 -17 -29 -26 -14 -8 13 -10 13 -10 -1 0 -29 29 -29 63 0 26 23 39 27 73 23
33 -3 46 1 73 24 24 20 35 24 44 15 7 -7 7 -14 1 -20 -12 -11 -103 -41 -126
-41 -36 0 -98 -40 -113 -73 l-14 -32 3 38 c2 20 0 37 -4 37 -5 0 -8 -40 -8
-90 0 -49 2 -90 5 -90 4 0 15 8 25 17 11 10 37 18 59 18 34 1 40 -2 46 -22 3
-15 0 -28 -9 -36 -21 -17 -32 -51 -15 -44 22 8 66 -35 69 -68 3 -28 1 -30 -37
-33 -22 -2 -45 -7 -50 -12 -6 -5 -42 -9 -81 -9 -55 0 -82 6 -137 31 -37 17
-65 33 -63 35 2 2 34 -10 70 -27 54 -26 74 -31 104 -25 30 6 33 8 19 16 -9 6
-17 16 -17 24 0 8 -11 17 -25 21 -14 3 -25 10 -25 15 0 13 61 10 95 -5 19 -8
38 -10 53 -4 13 4 29 5 35 1 7 -3 1 6 -12 20 -24 27 -37 36 -27 18 3 -5 -4
-11 -17 -15 -37 -10 -44 -6 -17 9 25 14 25 14 -15 15 -32 1 -36 3 -20 10 19 8
19 9 -2 9 -13 1 -23 6 -23 12 0 8 -5 8 -15 -1 -10 -8 -19 -9 -27 -3 -33 26
-58 22 -84 -13 -20 -26 -33 -34 -55 -32 -15 1 -26 6 -23 10 7 11 -19 48 -35
48 -8 0 -11 -3 -8 -7 4 -3 -3 -13 -14 -21 -12 -8 -24 -11 -28 -6 -3 5 -38 9
-77 10 l-70 0 12 -55 c11 -48 11 -59 -2 -78 -8 -13 -19 -23 -25 -23 -8 0 -7 5
1 15 11 13 10 14 -5 9 -12 -5 -16 -4 -12 3 4 6 -1 14 -11 18 -16 6 -16 7 2 20
10 8 23 12 27 9 16 -9 10 3 -8 17 -14 12 -16 12 -8 0 6 -11 4 -13 -8 -8 -8 3
-28 2 -44 -2 -27 -7 -27 -8 -5 -15 23 -8 26 -16 16 -54 -7 -26 -24 -29 -25 -4
-1 11 -4 8 -9 -8 l-7 -25 -8 28 c-4 15 -5 36 -2 47 3 12 0 20 -7 20 -8 0 -11
-11 -8 -31 5 -34 -9 -49 -38 -42 -21 6 -16 41 9 60 14 11 13 12 -5 13 -12 0
-27 7 -34 15 -7 8 -16 12 -21 9 -5 -3 -6 1 -3 9 3 8 0 18 -7 23 -8 4 -10 3 -5
-4 4 -7 -4 -17 -21 -24 -15 -7 -40 -25 -55 -40 -14 -16 -32 -28 -40 -27 -10 0
-10 2 0 6 10 4 10 8 0 21 -11 13 -10 15 4 9 10 -3 20 -2 23 3 8 14 -52 22 -74
10 -14 -7 -21 -7 -21 -1 0 6 15 15 33 20 17 5 24 10 15 10 -10 1 -18 6 -18 11
0 6 3 9 8 8 4 -1 18 4 31 11 14 8 38 11 60 7 25 -4 31 -2 21 4 -8 5 -35 10
-60 10 -25 0 -54 7 -64 15 -11 8 -27 15 -35 15 -13 0 -13 -2 -2 -9 9 -6 10
-11 3 -15 -6 -4 -9 -13 -5 -21 4 -13 -9 -21 -20 -12 -2 1 -10 -3 -18 -9 -8 -7
-30 -14 -49 -18 -30 -5 -31 -5 -11 4 20 9 22 15 17 41 -3 17 -6 36 -6 41 0 6
-17 8 -44 4 -39 -6 -45 -5 -51 14 -3 11 -11 20 -17 20 -5 0 -7 -7 -4 -16 3 -9
2 -12 -5 -9 -6 4 -8 13 -5 21 7 17 -56 56 -78 48 -23 -9 -20 -23 4 -17 19 5
29 -10 12 -20 -4 -2 -1 -2 5 -1 7 2 17 -5 23 -16 13 -24 13 -40 0 -20 -6 9
-10 10 -10 3 0 -7 9 -17 20 -23 15 -8 19 -17 14 -32 -4 -14 -2 -18 5 -14 6 4
11 2 11 -3 0 -6 6 -11 13 -11 6 0 21 -8 32 -17 l20 -16 -20 8 c-11 4 -31 8
-45 10 -51 4 -98 57 -101 113 -2 24 -2 24 -6 4 -2 -12 -11 -22 -19 -22 -20 0
-18 15 9 61 19 35 20 41 7 52 -8 7 -16 21 -17 32 -1 18 0 18 18 -4 l19 -23 0
69 c0 49 -6 80 -20 108 -11 22 -17 47 -14 55 4 8 6 18 6 22 -1 5 3 7 9 5 6 -1
14 4 17 12 2 8 1 11 -4 8 -17 -10 -94 -11 -95 -2 0 6 -10 15 -22 22 -19 10
-20 12 -5 18 10 4 14 13 10 23 -4 12 0 11 16 -4 16 -14 31 -19 49 -16 18 3 30
-1 40 -13 7 -11 13 -14 13 -9 0 17 -23 34 -47 34 -13 0 -23 5 -23 10 0 6 -8
10 -17 10 -15 0 -16 2 -3 10 9 5 17 5 20 -1 7 -10 31 13 49 48 15 29 14 32 -8
30 -16 -1 -18 -5 -9 -20 7 -13 7 -17 0 -13 -14 8 -62 -13 -91 -41 -15 -15 -31
-21 -43 -18 -11 4 -18 1 -18 -6 0 -10 -3 -10 -11 -2 -18 18 39 100 76 112 55
17 92 20 104 8 6 -6 11 -7 11 -3 0 4 -10 16 -21 25 -21 17 -21 20 -9 72 8 30
18 59 23 66 5 8 1 18 -12 29 -19 16 -19 18 -3 30 16 13 16 13 -1 14 -10 0 -15
5 -12 10 11 18 34 10 50 -17 9 -16 13 -19 8 -8 -4 11 -8 44 -8 72 0 29 -4 53
-10 53 -5 0 -10 -7 -10 -15 0 -9 -13 -22 -29 -30 -35 -18 -49 -19 -41 -2 4 6
-1 3 -9 -7 -16 -20 -16 -20 -16 0 0 15 -2 16 -9 5 -8 -12 -12 -12 -25 -2 -21
17 -20 31 0 31 10 0 14 5 10 15 -3 9 -1 15 7 14 27 -3 37 2 52 31 8 16 15 31
15 35 0 13 -39 3 -55 -15 -10 -11 -22 -17 -26 -14 -5 3 -6 -1 -3 -9 3 -8 0
-18 -5 -22 -6 -3 -9 -11 -6 -16 4 -5 -5 -8 -19 -7 -17 2 -26 8 -26 20 0 10 -7
18 -17 18 -24 0 -43 44 -43 101 0 54 10 66 32 40 10 -11 26 -17 42 -16 33 4
30 -15 -5 -32 -20 -10 -25 -10 -30 4 -4 12 -8 7 -12 -17 -11 -54 42 -92 74
-53 13 15 11 16 -12 10 -30 -8 -60 15 -38 28 6 4 16 1 21 -6 8 -11 11 -11 15
-1 3 8 9 10 16 3 7 -5 29 -6 52 -1 l40 8 -36 1 c-41 1 -55 21 -39 52 14 25 61
25 91 -1 24 -19 24 -19 2 -15 -15 2 -20 0 -17 -10 13 -34 55 -27 73 11 17 38
13 70 -14 122 -14 26 -25 52 -25 58 0 6 -7 17 -15 24 -8 7 -15 25 -15 40 0 23
-4 27 -20 23 -28 -8 -25 4 10 34 52 43 76 134 50 184 -13 23 -52 25 -70 4 -22
-27 -31 -16 -25 34 7 62 -20 126 -68 159 -35 23 -35 23 -55 15z"/>
<path d="M1725 1833 c12 -12 15 -29 10 -72 -3 -31 -6 -237 -7 -459 -3 -427 -3
-426 -50 -422 -47 4 -141 0 -135 -6 7 -7 143 -7 166 1 14 4 18 -3 20 -37 1
-23 4 -44 7 -47 2 -2 4 103 4 235 0 131 3 370 7 529 l6 291 -22 1 c-19 2 -20
0 -6 -14z"/>
<path d="M798 1776 c-10 -9 -20 -11 -29 -5 -8 5 -23 8 -34 8 -17 -1 -17 -2 -2
-6 9 -2 17 -8 17 -13 0 -5 -7 -7 -16 -3 -12 4 -15 2 -12 -8 3 -9 16 -13 34
-12 27 3 27 2 7 -7 -13 -5 -23 -12 -23 -15 0 -3 10 -4 23 -2 12 2 16 2 9 0 -7
-3 -10 -9 -7 -14 8 -12 -2 -12 -24 1 -11 5 -30 6 -47 0 l-29 -8 35 -2 c19 -1
38 -2 43 -1 12 2 8 -11 -10 -32 -10 -11 -12 -17 -5 -13 7 4 12 2 12 -5 0 -7
13 -10 34 -7 19 2 32 0 30 -4 -10 -16 19 -7 32 10 12 15 15 15 27 2 10 -12 34
-14 125 -12 94 2 112 0 112 -12 0 -10 -6 -13 -15 -10 -8 4 -15 1 -15 -5 0 -6
11 -11 24 -11 20 0 24 4 21 20 -2 12 0 31 4 43 9 22 9 22 20 -5 6 -17 18 -28
30 -28 23 0 45 25 35 41 -4 7 -3 9 3 6 6 -4 16 -20 23 -37 8 -19 18 -29 26
-26 8 3 14 1 14 -4 0 -6 5 -10 10 -10 19 0 10 17 -15 28 -38 17 -30 32 18 33
32 2 35 3 12 6 -16 2 -43 9 -59 15 -27 11 -28 12 -7 19 28 11 27 28 -1 22 -22
-4 -23 -4 -4 11 11 9 16 16 10 16 -5 0 -2 5 6 10 13 8 12 10 -2 10 -10 0 -18
7 -18 16 0 8 -5 12 -10 9 -6 -4 -8 -11 -5 -16 4 -5 1 -9 -4 -9 -6 0 -11 6 -11
14 0 11 -12 14 -44 13 -38 -2 -43 -4 -35 -19 5 -9 14 -20 19 -23 16 -10 11
-38 -14 -69 -23 -27 -26 -28 -116 -27 -50 1 -102 7 -113 13 l-22 12 23 5 c36
9 28 26 -9 23 -32 -3 -33 -3 -14 12 24 18 70 22 59 4 -4 -7 -3 -8 4 -4 21 13
13 24 -25 32 l-38 8 35 6 c29 6 31 8 10 10 -49 5 -65 8 -81 14 -9 4 -23 1 -31
-8z"/>
<path d="M1475 1760 c5 -8 -8 -15 -17 -8 -8 5 -48 -24 -43 -32 3 -5 -3 -10
-12 -12 -10 -2 8 -8 39 -12 l56 -7 -14 -36 c-8 -19 -10 -32 -5 -28 6 3 11 13
11 21 0 8 4 14 10 14 5 0 7 -6 4 -13 -7 -20 21 -40 46 -32 12 4 20 15 20 28 1
21 1 21 14 4 10 -13 15 -15 19 -5 2 7 -7 23 -22 36 -21 19 -22 22 -6 17 59
-21 75 -23 81 -13 4 6 2 8 -4 4 -6 -3 -13 -2 -17 4 -4 6 -10 8 -15 5 -16 -10
-52 15 -46 31 3 8 -1 14 -10 14 -8 0 -13 4 -10 9 3 5 -1 12 -10 15 -23 9 -34
7 -34 -5 0 -5 6 -7 13 -3 9 5 8 3 -1 -7 -11 -12 -15 -11 -23 4 -6 9 -15 17
-20 17 -6 0 -7 -4 -4 -10z"/>
<path d="M1081 1529 c-45 -11 -57 -18 -97 -58 -28 -27 -30 -38 -10 -38 8 0 14
5 13 10 -3 16 60 27 161 27 92 1 141 -11 150 -38 3 -10 -13 -11 -72 -6 -42 3
-76 2 -76 -2 0 -5 22 -8 49 -7 50 2 118 -24 110 -41 -2 -6 -22 -9 -44 -7 -22
2 -38 0 -35 -3 3 -3 25 -6 48 -7 50 -3 73 -22 44 -38 -11 -6 -40 -7 -74 -2
-50 7 -55 6 -50 -11 6 -25 -23 -66 -50 -71 -13 -2 -9 -2 7 0 17 2 38 5 47 6
11 1 14 6 9 16 -5 7 -6 23 -3 33 4 17 11 19 56 13 44 -6 97 -24 72 -25 -5 0
-3 -7 4 -15 16 -20 4 -32 -18 -19 -9 5 -35 7 -57 3 l-40 -6 45 -2 c43 -1 97
-20 60 -21 -12 0 -12 -2 -2 -9 21 -13 -14 -43 -42 -36 -20 6 -20 5 2 -8 12 -7
19 -17 15 -22 -4 -4 -2 -5 5 -1 7 4 10 13 6 19 -3 7 1 3 10 -7 14 -17 14 -20
-2 -32 -16 -12 -15 -13 7 -14 18 0 22 -4 15 -17 -4 -10 -8 -30 -8 -44 -1 -14
-7 -33 -15 -42 -12 -15 -11 -17 3 -17 39 0 8 -49 -34 -51 -19 -1 -17 -3 10 -8
38 -7 49 -33 15 -39 -11 -2 -24 -9 -30 -14 -7 -7 -3 -8 11 -4 13 4 26 1 34 -9
10 -12 10 -15 -4 -15 -9 0 -16 -7 -16 -15 0 -8 -5 -15 -12 -15 -6 0 -9 -2 -6
-5 3 -3 18 -1 34 5 16 7 73 13 128 15 54 2 100 6 103 9 3 3 -3 4 -13 4 -30 -2
-74 11 -74 23 0 6 5 7 12 3 7 -4 8 -3 4 4 -4 6 -13 9 -21 5 -12 -4 -15 3 -15
31 0 35 1 36 38 37 34 0 35 1 13 10 -14 5 -31 7 -38 5 -7 -3 -13 1 -13 9 0 16
42 30 65 21 18 -7 47 3 40 14 -3 4 -22 6 -43 4 -48 -4 -78 12 -39 21 31 8 36
25 8 25 -11 0 -23 5 -26 10 -6 9 2 11 57 15 9 0 20 3 23 6 8 9 -52 20 -70 13
-8 -4 -15 -1 -15 4 0 11 50 23 80 20 42 -4 180 3 180 10 0 4 -58 6 -130 4 -86
-2 -130 0 -130 7 0 7 32 11 83 12 45 0 105 4 132 9 37 6 14 8 -84 6 l-134 -1
-1 33 -1 32 79 0 c44 0 77 3 73 6 -3 4 -40 6 -82 6 -41 -1 -75 3 -75 8 0 14
32 19 144 24 146 7 132 18 -18 14 -89 -2 -130 0 -133 8 -2 6 10 14 27 18 17 3
29 10 26 15 -3 4 -16 6 -28 4 -15 -3 -27 2 -34 14 -10 17 -6 18 60 17 39 -1
51 0 26 2 -76 7 -110 14 -110 25 0 7 34 9 100 7 55 -2 100 -1 100 3 0 5 -46
10 -102 11 -84 2 -103 6 -103 18 0 8 -8 18 -18 22 -10 4 -16 12 -13 16 3 5
-12 15 -34 22 -22 7 -37 17 -34 21 3 5 -15 9 -39 9 -24 0 -64 2 -88 4 -24 3
-64 0 -88 -5z"/>
<path d="M940 1395 c-14 -8 -36 -15 -50 -15 -19 0 -22 -2 -10 -9 8 -6 18 -7
22 -5 4 3 8 1 8 -4 0 -6 -7 -13 -16 -16 -11 -4 -14 -15 -10 -40 3 -21 1 -38
-7 -44 -7 -6 -50 -10 -95 -9 -46 2 -86 -1 -88 -5 -3 -5 38 -8 90 -8 53 0 96
-4 96 -9 0 -14 -14 -21 -62 -31 l-43 -9 53 3 c39 2 52 0 52 -10 0 -10 -17 -14
-67 -14 -36 0 -63 -3 -60 -7 4 -4 32 -5 62 -4 l55 2 0 -35 0 -36 -72 1 c-116
1 -162 -1 -156 -6 3 -3 49 -7 104 -10 54 -3 108 -7 119 -10 11 -2 27 0 35 5
13 8 13 10 -2 10 -25 0 -20 66 6 79 18 8 18 10 4 10 -10 1 -18 6 -18 12 0 5 6
7 13 3 10 -6 10 -4 0 7 -18 18 -16 27 5 32 16 4 16 5 0 6 -21 1 -25 37 -5 44
10 3 10 9 0 26 -17 27 -16 29 5 27 12 -1 18 8 20 27 3 21 12 32 35 42 18 8 25
14 17 14 -8 0 -26 -6 -40 -14z"/>
<path d="M760 1049 c33 -7 32 -7 -15 -7 -95 0 -118 -2 -112 -9 4 -4 59 -6 122
-6 63 1 115 -3 115 -8 0 -5 -19 -9 -42 -10 -24 -1 -54 -5 -68 -9 -18 -6 -7 -8
43 -9 37 -1 67 -5 67 -10 0 -13 -22 -19 -58 -15 -17 2 -42 -1 -54 -6 -17 -7
-7 -9 45 -9 37 -1 67 -5 67 -11 0 -6 -43 -8 -115 -6 -66 2 -115 0 -115 -5 0
-5 54 -9 120 -9 l120 0 0 -40 c0 -32 4 -40 18 -39 10 0 12 3 5 6 -14 5 -18 53
-5 53 5 0 9 6 9 14 0 8 -6 12 -14 9 -9 -3 -13 3 -13 20 0 21 4 24 23 21 l22
-5 -22 10 c-13 6 -23 19 -23 31 0 21 14 27 25 10 3 -5 13 -6 21 -3 12 4 7 10
-17 21 -19 8 -37 14 -41 14 -5 -1 -8 2 -8 7 0 5 -30 9 -67 9 -56 -1 -62 -2
-33 -9z"/>
<path d="M1546 805 c17 -13 14 -14 -40 -15 -65 0 -73 -11 -9 -12 35 0 39 -3
38 -27 0 -19 4 -25 18 -23 9 2 17 -1 17 -5 0 -4 -179 -8 -397 -8 -377 0 -398
1 -401 18 -5 24 26 57 46 50 14 -4 14 -3 3 5 -10 7 -22 5 -40 -6 -14 -9 -32
-16 -42 -14 -9 2 -19 -5 -23 -14 -5 -14 -4 -15 8 -5 10 9 16 9 21 1 10 -16 -1
-23 -35 -23 -18 0 -30 -6 -30 -13 0 -16 8 -16 415 -13 165 1 316 2 335 0 19
-1 91 2 160 6 107 6 117 8 66 13 -35 3 -61 10 -64 18 -2 7 6 12 20 13 15 0 18
3 8 6 -8 4 -27 19 -42 35 -14 15 -32 28 -39 28 -7 0 -5 -6 7 -15z"/>
<path d="M1731 745 c-2 -22 -3 -46 -2 -52 1 -9 -11 -13 -35 -13 -41 0 -40 -12
1 -14 14 -1 25 -5 25 -9 0 -4 0 -16 0 -28 0 -13 -8 -23 -21 -26 -14 -4 -17 -8
-9 -13 8 -5 -1 -15 -25 -30 -32 -20 -57 -24 -174 -31 -155 -9 -223 -26 -252
-63 -38 -48 -53 -50 -106 -12 -59 42 -117 62 -208 71 -38 4 -76 13 -84 19 -11
8 -13 8 -7 -1 10 -17 -1 -16 -68 7 -54 18 -121 60 -97 60 6 0 11 5 11 10 0 6
-8 10 -18 10 -11 0 -24 10 -31 23 -11 22 -11 22 -5 -3 18 -78 108 -129 252
-143 122 -11 183 -29 250 -73 56 -37 69 -36 107 6 37 41 82 53 230 60 123 6
146 10 190 32 71 37 87 71 83 173 -2 45 -5 62 -7 40z"/>
</g>
</svg>
